<svg xmlns="http://www.w3.org/2000/svg" xmlns:xlink="http://www.w3.org/1999/xlink" version="1.1" id="Layer_1" x="0px" y="0px" viewBox="0 0 235.7 336.7" style="enable-background:new 0 0 235.7 336.7;" xml:space="preserve"><script xmlns="" id="eppiocemhmnlbhjplcgkofciiegomcon"/><script xmlns=""/><script xmlns=""/>
<style type="text/css">
	.st0{fill:#008F5E;}
	.st1{fill:#FCEB20;}
	.st2{fill:#E2231A;}
	.st3{fill:#100C08;}
	.st4{fill:#FFFFFF;}
	.st5{fill:none;stroke:#100C08;stroke-width:0.174;stroke-miterlimit:10;}
	.st6{fill:none;stroke:#FFFFFF;stroke-miterlimit:10;}
</style>
<g>
	<g>
		<path class="st0" d="M229,18.5l0-11.8H6.7v11.8c0,29.5,0,197.8,0,198.6C6.7,279.3,56.5,330,117.9,330    c61.3,0,111.2-50.7,111.2-112.9C229.1,216,229,47.3,229,18.5"/>
	</g>
	<g>
		<path class="st1" d="M111.2,139.1c2.1,0.6,3.9,1.9,5,3.9c0.3,0.6,0.6,1.2,0.7,1.7c1.9-0.7,4-0.9,5.3-1c0-0.1,0-0.1,0-0.2    c0-1.6,0.2-2.3,0.4-2.7l0,0c0.3-0.6,1-1.2,2.2-1.9c0.3-0.2,0.5-0.3,0.8-0.4c0.1-1.7,0.2-5.6,0.3-7.3c0.1-2.3,0.5-7.6,0.5-7.9    c0-0.4,0.3-1.1,0.9-1.5l0,0c0.9-0.6,1.7-1.1,1.9-1.4c0.1-0.4,0.2-1.5,0.2-2.5l0-1.2l1.1-0.1c0.1,0,0.5-0.1,0.7-0.3    c0.1-0.4,0-1.5-0.1-2.4l-0.1-0.9l0.8-0.4c0.4-0.2,1.4-0.9,1.8-1.7c0.4-0.9,0.7-2.5,0.8-4c-0.5,0.5-1,0.7-1.5,0.7    c-0.4,0-1.6-0.2-1.7-2.2c-0.2-2.9,2.2-4.7,2.3-4.8l0.8-0.6l0.8,0.7c0.2,0.2,0.4,0.3,0.7,0.5c0.1-0.2,0.1-0.5,0.2-0.8    c0.3-1,0.7-2.3,0.9-4.3l0,0c0.3-2.5-0.3-3-0.6-3.2c0,0,0,0-0.1-0.1c-0.2-0.1-0.6-0.2-1-0.2c-0.3,0-0.6,0.1-0.8,0.2    c-0.5,0.4-1,0.6-1.5,0.6c-0.6,0-1.1-0.3-1.4-0.8c-0.5-0.8-0.3-2,0-2.7l0,0c0.4-0.7,1.2-1.1,3-1.4c0.3,0,0.6-0.1,0.8-0.1    c0-0.2-0.1-0.3-0.1-0.3l-1-2.2l2.4,0.4c0,0,2.1,0.3,4.7,0.3c2.6,0,4.8-0.3,6.5-0.9c5.9-2.1,13.7-2.3,16-2.3h0h0    c1.4,0,2.9,0.1,4.2,0.1c16.1,0,25-3.2,28.8-4.6c0.2-0.1,0.3-0.1,0.4-0.2l0,0c4-1.4,8.4-3.9,12.1-6.9c3.9-3.3,6.8-6.9,7.9-10.2l0,0    l0,0c2.1-4.9,2.6-12.6-2.9-18.2c-3-3.1-6.9-4.6-11.4-4.6c-1.6,0-3.1,0.2-4.3,0.4c3.8,1.3,6.7,2.8,8.8,4.8c2.4,2.2,3.3,4.4,4,6.4    l0,0.1l0,0.1c0.4,2.6,0.2,5-0.7,7.3c-1.1,2.7-3.2,5.2-6.3,7.4c-7.4,5.7-19.4,7.3-24.3,7.7c-1.9,0.2-4.2,0.3-6.8,0.3    c-6.1,0-13.1-0.6-15.9-1.1c-2.8-0.5-9.6-1.1-13.3-1.4c-0.8-0.1-1.5-0.1-1.9-0.2c-0.8-0.1-1.5-0.1-2.2-0.1c-1.5,0-2.5,0.3-3.4,1.2    l0,0c-1.1,1-2,1.5-2.9,1.5c-0.5,0-0.9-0.2-1.2-0.5l0,0c0,0-2.5-3-6.3-3c-0.2,0-0.4,0-0.6,0c-3,0.2-3.9,1-4.6,1.7    c-0.3,0.3-0.7,0.6-1.2,0.9c-0.4,0.2-0.8,0.4-1.3,0.4c-0.6,0-1-0.3-1.3-0.5c-0.2-0.1-3-1.9-6-2.4c-0.3,0-0.7,0-1,0    c-4.4,0-8.3,2.3-8.4,2.3l-1.5,0.9l-0.4-1.5c-0.3-0.3-1.5-0.7-3.4-0.7c-0.4,0-0.8,0-1.1,0.1c-0.8,0.1-2.2,0.2-3.9,0.3    c-3.8,0.3-9.1,0.7-11.5,1.2c-2.7,0.6-11.7,1.4-19.1,1.4c-2,0-3.8-0.1-5.2-0.2c-2.3-0.2-7-0.6-12.1-2c-5.1-1.3-9.3-3.2-12.4-5.5    c-3.1-2.1-5.3-4.5-6.5-7.3c-0.9-2.2-1.2-4.7-0.8-7.3l0-0.1l0-0.1c0.6-2.1,1.5-4.3,3.9-6.5c2.1-1.9,4.9-3.6,8.7-4.9    c-1.2-0.2-2.5-0.4-4-0.4c-4.7,0-8.6,1.6-11.7,4.8c-5.4,5.7-4.7,13.3-2.5,18.2l0,0l0,0c1.2,3.2,4.1,6.8,8.3,10    c3.8,2.9,8.3,5.4,12.4,6.7l0,0c0.2,0.1,0.5,0.2,0.7,0.3c4,1.4,12.4,4.3,27.6,4.3c2.1,0,4.3-0.1,6.5-0.2l0.1,0c0.3,0,0.6,0,0.9,0    c0.7,0,1.5,0,2.5,0c5.9,0,10.3,0.5,13.5,1.6c4.2,1.4,9,1.4,9.9,1.4h0.2l0.6,0l0.4,0.5c0.2,0.3,0.3,0.6,0.3,1.1    c0.1,0.6,0.2,1.7,0.3,3.2c0.2,1.9-0.7,3.5-2.4,4.6c-0.4,0.2-0.7,0.4-1.1,0.5c0.1,0.3,0.2,0.7,0.3,1.1c0.3,1,0.4,2,0.6,2.9    c0.1,0.4,0.2,0.8,0.2,1.1c0.4,0.4,0.7,0.9,0.9,1.3c0.1,0.2,0.2,0.3,0.3,0.4c0.2,0.2,0.6,0.5,0.8,0.7l2,1.4l-2.1,0.7    c0,2.3,0.3,4.8,1.1,6c0.1,0,0.2,0.1,0.3,0.1c0.8,0.3,2.4,0.9,3,2.7l0.1,0.2l0,0.2c0.1,1.9,0.3,3.9,0.4,5c1.3,0.6,2.1,1.7,2.4,2    c0.7,0.9,1,2,1.1,2.8l0,0.1c0,0.1,0,0.4,0.1,0.8c0.1,0.6,0.1,1.4,0.2,1.7l0,0c0.1,0.6,0,1.5,0,2.7c-0.1,1.2-0.1,2.6-0.1,3.9    C110.8,136.4,111.1,138.2,111.2,139.1 M114.9,148.4l-0.2-1.8c0-0.2-0.6-4.5-4.8-5.2l-0.9-0.1l-0.2-0.9c0-0.1-0.6-2.8-0.6-5.8    c0-1.4,0-2.9,0.1-4.1c0-1,0.1-1.8,0.1-2.3c0-0.3-0.1-1.1-0.2-1.7c0-0.3-0.1-0.6-0.1-0.8c-0.1-0.8-0.3-1.3-0.6-1.6l-0.1-0.1l0-0.1    c-0.2-0.3-0.9-1.1-1.7-1.2l-0.9-0.2l-0.1-0.9c0-0.1-0.3-3.1-0.5-5.8c-0.2-0.5-0.7-0.7-1.4-1c-0.5-0.2-0.9-0.3-1.2-0.7l0,0    c-0.5-0.6-1.8-2.2-1.8-8.6v-0.2c-0.1-0.1-0.1-0.1-0.2-0.2l0,0c-0.2-0.2-0.3-0.5-0.5-0.8c-0.1-0.2-0.4-0.7-0.5-0.8l-0.3-0.2    l-0.2-0.3c-0.2-0.3-0.3-0.8-0.5-1.9c-0.1-0.8-0.3-1.8-0.6-2.7l0,0c-0.2-0.9-0.6-2-0.6-2l-0.6-1.5l1.6-0.2c0.1,0,0.9-0.2,1.6-0.6    c1.1-0.7,1.2-1.6,1.2-2.2c-0.1-1.2-0.2-1.9-0.2-2.4c-1.9-0.1-6-0.3-9.8-1.6l0,0c-2.9-1-7-1.4-12.7-1.4c-0.9,0-1.8,0-2.4,0    c-0.3,0-0.6,0-0.9,0c-2.2,0.1-4.4,0.2-6.6,0.2c-6.7,0-13-0.6-18.6-1.7c-4.7-0.9-7.9-2.1-9.9-2.7c-0.3-0.1-0.5-0.2-0.7-0.2    c-4.4-1.4-9.2-4-13.2-7.1c-3.2-2.5-7.3-6.4-9.1-11.1c-1.4-3.2-2.1-6.8-1.8-10.3c0.4-4.1,2-7.8,4.8-10.7c1.9-2,4.2-3.5,6.7-4.4    c2.1-0.8,4.4-1.1,6.8-1.1c5,0,8.8,1.6,9,1.7l3.4,1.4l-3.5,0.9c-12.5,3.3-14.1,8.2-14.9,10.9c-0.7,4.8,1.3,8.7,6.2,12l0.1,0    c5.9,4.4,15.8,6.4,23.1,6.9l0,0c1.4,0.1,3.1,0.2,5,0.2c7,0,16-0.8,18.6-1.4c2.5-0.5,7.9-0.9,11.8-1.2c1.6-0.1,3-0.2,3.8-0.3    c0.5-0.1,0.9-0.1,1.4-0.1c0.7,0,3.4,0.1,4.9,1.2c1.6-0.8,5-2.2,8.7-2.2c0.4,0,0.9,0,1.3,0.1l0.1,0c3.5,0.5,6.6,2.5,7,2.8l0,0l0,0    c0.2-0.1,0.4-0.3,0.7-0.5c0.9-0.9,2.2-2,6.1-2.3c0.3,0,0.5,0,0.8,0c3.9,0,6.7,2.4,7.8,3.4c0.2-0.1,0.5-0.3,0.9-0.7    c1.8-1.7,3.7-1.9,5.1-1.9c0.8,0,1.6,0.1,2.4,0.1h0c0.5,0,1.1,0.1,1.9,0.2c3.7,0.3,10.6,0.9,13.5,1.5c2.3,0.4,8.9,1,15.4,1    c2.5,0,4.7-0.1,6.5-0.3l0,0c4.6-0.4,16.1-1.9,23-7.2l0.1,0c4.8-3.3,6.8-7.3,6-12.1c-0.9-2.7-2.6-7.5-15.1-10.6l-3.6-0.9l3.4-1.5    c0.2-0.1,4.2-1.8,9.3-1.8c2.4,0,4.6,0.4,6.6,1.1c2.5,0.9,4.7,2.3,6.6,4.3c1.5,1.5,2.7,3.2,3.5,5.1c0.8,1.7,1.3,3.6,1.5,5.5    c0.4,3.4-0.2,7.1-1.6,10.3c-1.7,4.8-5.6,8.7-8.7,11.2c-3.9,3.2-8.6,5.9-12.8,7.4c-0.1,0.1-0.3,0.1-0.4,0.2    c-2,0.7-5.3,1.9-10.2,2.9c-5.8,1.2-12.4,1.8-19.5,1.8h0c-1.4,0-2.8,0-4.3-0.1c-1.6,0-9.5,0.2-15.1,2.2c-2,0.7-4.4,1-7.3,1    c-1.3,0-2.5-0.1-3.4-0.2c0,0.3-0.1,0.6-0.2,0.9l-0.2,0.6c0.2,0.1,0.4,0.3,0.5,0.4c0,0,0,0,0,0c0.8,0.7,1.8,2,1.4,5.4    c-0.2,2.3-0.7,3.8-1,4.8c-0.2,0.8-0.4,1.3-0.4,1.8l0.1,2.1l-1.5-0.7c0.2,0.4,0.3,0.8,0.3,1.4c0,1.5-0.2,4.4-1.1,6.1l0,0    c-0.5,1.1-1.5,1.8-2.1,2.3c0,0.2,0,0.5,0.1,0.7c0.1,1.4-0.1,2.2-0.5,2.7c-0.4,0.5-1,0.9-1.4,1.1c0,0.2,0,0.4,0,0.6    c-0.1,1.6-0.3,2.1-0.6,2.4c-0.3,0.4-1.1,1-2.4,1.8c-0.1,1.2-0.4,5.6-0.5,7.5c-0.1,2.2-0.3,8-0.3,8.1l0,0.8l-0.7,0.3    c-1.1,0.5-2.2,1.2-2.5,1.5c-0.1,0.4-0.2,1.7,0,2.8l0.1,1.4l-1.4,0c0,0-4.3,0.1-7,1.4L114.9,148.4z"/>
	</g>
	<g>
		<path class="st1" d="M133.2,91.1c-0.1,0.1-0.1,0.3-0.1,0.5c0,0,0.1,0,0.1-0.1l0.2-0.2l0.3-0.1c0.5-0.2,1-0.3,1.6-0.3    c0.1,0,0.1,0,0.2,0l0.1-0.3l0,0c-0.3,0-0.5,0.1-0.7,0.1C133.7,90.8,133.3,91,133.2,91.1 M133.9,103.2c-0.4,0.5-0.8,1.3-0.7,2.3v0    c0,0,0,0,0,0l1.2-1.2L133.9,103.2z M113,137.7c2.1,0.8,3.8,2.4,4.9,4.4c0.1,0.1,0.1,0.2,0.2,0.3c0.8-0.2,1.6-0.3,2.3-0.4    c0.1-0.8,0.2-1.4,0.5-2l0,0c0.5-1,1.3-1.8,2.8-2.6c0.1-1.8,0.2-4.8,0.2-6.2c0.1-2.2,0.5-7.4,0.5-7.9c0.1-1.1,0.7-2.2,1.7-2.9    l0.1-0.1c0.5-0.3,0.9-0.6,1.2-0.8c0-0.4,0.1-0.9,0.1-1.5l0.1-2.9l1.7-0.1c0-0.2,0-0.4-0.1-0.5l-0.3-2.2l2-1.1    c0.3-0.2,0.9-0.6,1-0.8c0.1-0.1,0.1-0.3,0.2-0.5c-1.4-0.3-2.7-1.6-2.8-3.9c-0.2-3.9,2.8-6.2,3.2-6.4l2.1-1.5l0.2,0.2    c0.1-0.5,0.2-1.1,0.3-1.8l0-0.1c0.1-0.5,0.1-0.8,0.1-1.1c-0.7,0.4-1.4,0.6-2.1,0.6c-1.3,0-2.4-0.7-3.1-1.8c-0.9-1.5-0.6-3.4,0-4.6    l0,0c0.6-1.1,1.6-1.6,2.8-2l-1.7-3.5l6,0.9c0,0,2,0.3,4.4,0.3c2.4,0,4.3-0.3,5.8-0.8c6.2-2.2,14.3-2.4,16.6-2.4h0.1l0.1,0    c1.4,0,2.8,0.1,4.2,0.1c15.8,0,24.4-3.2,28.1-4.5l0,0c0.1-0.1,0.3-0.1,0.4-0.2l0,0c3.8-1.3,8-3.7,11.5-6.6c3.7-3,6.3-6.3,7.3-9.3    l0-0.1l0-0.1c1.9-4.3,2.3-11.2-2.5-16c-1.7-1.7-3.6-2.9-5.9-3.5c0.6,0.4,1.1,0.8,1.6,1.3c2.7,2.5,3.8,5.1,4.6,7.3l0.1,0.2l0,0.2    c0.5,2.9,0.2,5.8-0.8,8.3c-1.2,3.1-3.6,5.9-7,8.2c-3.4,2.6-8,4.7-13.8,6.1c-4.5,1.2-8.7,1.7-11.5,1.9c-1.9,0.2-4.3,0.3-7,0.3    c-6.2,0-13.4-0.6-16.2-1.1c-2.7-0.5-9.5-1.1-13.1-1.4c-0.8-0.1-1.5-0.1-1.9-0.2c-0.8-0.1-1.5-0.1-2.1-0.1c-1.1,0-1.6,0.2-2,0.7    l-0.1,0.1c-1,0.8-2.4,2-4.1,2c-1.1,0-2-0.4-2.7-1.2l-0.1-0.1c-0.1-0.1-2.1-2.3-4.8-2.3c-0.1,0-0.3,0-0.4,0    c-2.4,0.2-2.9,0.6-3.4,1.2c-0.4,0.4-0.9,0.8-1.6,1.2c-0.4,0.2-1.2,0.7-2.2,0.7c-1.2,0-2-0.6-2.4-0.9c-0.2-0.1-2.6-1.7-5.1-2.1    c-0.2,0-0.5,0-0.8,0c-3.8,0-7.4,2-7.4,2.1L99.2,76l-0.8-3.1c-0.4-0.1-1-0.2-1.8-0.2c-0.3,0-0.6,0-0.9,0.1    c-0.8,0.1-2.3,0.2-3.9,0.3c-3.8,0.3-9,0.7-11.2,1.2c-2.8,0.6-11.9,1.4-19.5,1.4c-2.1,0-3.9-0.1-5.4-0.2c-2.4-0.2-7.2-0.6-12.4-2    c-5.3-1.4-9.7-3.3-13-5.8c-3.4-2.3-5.8-5-7.1-8.1c-1.1-2.6-1.4-5.4-1-8.3l0-0.2l0.1-0.2c0.7-2.2,1.7-4.8,4.4-7.3    c0.5-0.5,1-0.9,1.6-1.3c-2.2,0.7-4.2,1.9-5.8,3.6c-4.7,5-4.1,11.8-2.2,16.1l0,0.1l0,0.1c1.1,2.9,3.8,6.2,7.6,9.2    c3.6,2.8,7.9,5.1,11.8,6.4l0,0c0.2,0.1,0.5,0.2,0.7,0.3c3.9,1.4,12.1,4.2,27,4.2c2.1,0,4.2-0.1,6.4-0.2l0.1,0c0.3,0,0.5,0,0.9,0    c0.7,0,1.6,0,2.5,0c6.1,0,10.8,0.5,14.1,1.6c3.9,1.3,8.5,1.4,9.3,1.4h0.1l1.6,0l1,1.3c0.6,0.7,0.6,1.4,0.7,2.1    c0.1,0.6,0.2,1.7,0.3,3.2c0.2,2.6-0.9,4.8-3.2,6.3c0.2,0.9,0.4,1.8,0.5,2.6c0,0.2,0.1,0.4,0.1,0.5c0.4,0.4,0.6,0.9,0.8,1.2    c0,0,0.1,0.1,0.1,0.2c0.1,0.1,0.3,0.2,0.4,0.4l5.1,3.6l-4.3,1.5c0.1,1.7,0.3,2.6,0.5,3c1.1,0.4,2.9,1.4,3.7,3.7l0.2,0.4l0,0.5    c0.1,1.4,0.2,2.8,0.3,3.9c1.1,0.7,1.8,1.6,2.1,2c1,1.3,1.3,2.7,1.5,3.7l0,0.2c0,0.1,0,0.4,0.1,0.8c0.1,0.6,0.1,1.4,0.2,1.7l0,0.1    c0.1,0.8,0,1.7,0,2.9c-0.1,1.2-0.1,2.5-0.1,3.8C112.7,135.7,112.8,136.8,113,137.7 M113.3,151.4l-0.4-4.6c0-0.1-0.1-0.9-0.6-1.7    c-0.6-1-1.4-1.6-2.6-1.8l-2.2-0.3l-0.4-2.2c0-0.1-0.6-3-0.7-6.1c0-1.5,0-3,0.1-4.2c0-0.8,0.1-1.7,0.1-2.1c0-0.4-0.1-1.1-0.2-1.7    l0-0.1c0-0.3,0-0.5-0.1-0.6c-0.1-0.5-0.2-0.6-0.2-0.7l-0.1-0.2l-0.1-0.1c-0.1-0.1-0.3-0.3-0.4-0.4l-2.3-0.4l-0.3-2.4    c0-0.3-0.3-2.6-0.4-5.1c-0.1,0-0.1-0.1-0.2-0.1c-0.6-0.2-1.4-0.5-2.1-1.3l0,0c-0.3-0.4-0.9-1.1-1.4-2.8c-0.5-1.6-0.8-3.8-0.8-6.5    c-0.2-0.2-0.3-0.5-0.4-0.7c-0.1-0.1-0.1-0.2-0.2-0.3l-0.5-0.3l-0.4-0.8c-0.3-0.6-0.4-1.2-0.6-2.5c-0.1-0.8-0.3-1.7-0.5-2.6l0-0.1    c-0.1-0.6-0.4-1.4-0.5-1.7l-1.5-3.7l3.9-0.6c0.2,0,0.6-0.2,0.9-0.4c0.2-0.1,0.3-0.2,0.3-0.2s0,0,0-0.2c0-0.3,0-0.5-0.1-0.7    c-2.3-0.2-5.5-0.6-8.6-1.6l0,0c-2.7-0.9-6.6-1.3-12.1-1.3c-0.9,0-1.7,0-2.4,0c-0.3,0-0.6,0-0.8,0c-2.3,0.1-4.5,0.2-6.6,0.2    c-6.9,0-13.2-0.6-19-1.7c-4.8-1-8.1-2.1-10.1-2.8l0,0c-0.2-0.1-0.5-0.2-0.7-0.2c-4.6-1.5-9.6-4.2-13.8-7.4    c-3.4-2.6-7.8-6.8-9.7-11.9c-1.6-3.5-2.2-7.4-1.9-11.2c0.4-4.5,2.2-8.6,5.3-11.9c2.1-2.2,4.7-3.9,7.5-4.9c2.3-0.8,4.8-1.3,7.4-1.3    c5.3,0,9.3,1.7,9.7,1.8l10.8,4.1l-11.2,1.9c-11.3,3-12.8,7.1-13.5,9.4c-0.5,4,1.2,7.1,5.4,9.9l0.1,0.1c5.6,4.1,15.1,6.1,22.1,6.6    l0.1,0c1.3,0.1,2.9,0.2,4.8,0.2c6.8,0,15.7-0.8,18.2-1.3c2.6-0.5,8.1-1,12-1.3h0c1.6-0.1,3-0.2,3.7-0.3c0.5-0.1,1.1-0.1,1.6-0.1    c1,0,3.2,0.1,5,1c2-0.9,5.1-1.9,8.6-1.9c0.5,0,1,0,1.5,0.1l0.2,0c2.7,0.4,5.1,1.6,6.5,2.4c0.5-0.4,1.1-0.9,2-1.3    c1.3-0.6,2.9-1,4.9-1.1c0.3,0,0.6,0,0.9,0c3.5,0,6.2,1.6,7.8,2.9c2.1-1.8,4.4-2,6-2c0.9,0,1.7,0.1,2.6,0.2l0,0    c0.5,0,1.2,0.1,1.9,0.2c3.7,0.3,10.7,0.9,13.7,1.5c2.2,0.4,8.7,1,15,1c2.5,0,4.6-0.1,6.3-0.3l0.1,0c4.5-0.4,15.5-1.8,22-6.8    l0.1-0.1c4.2-2.9,5.8-6.1,5.2-10c-0.8-2.3-2.3-6.4-13.7-9.2l-9.1-2.2l8.5-3.8c0.5-0.2,4.7-2,10.1-2c2.6,0,5,0.4,7.3,1.2    c2.8,1,5.2,2.6,7.3,4.7c1.6,1.7,3,3.6,3.9,5.7c0.9,1.9,1.4,4,1.6,6.1c0.4,3.7-0.2,7.7-1.7,11.2c-1.8,5.2-6,9.4-9.2,12    c-4,3.3-8.9,6.1-13.4,7.7c-0.1,0-0.3,0.1-0.4,0.1l0,0c-2,0.7-5.4,2-10.4,3c-6,1.2-12.7,1.9-19.9,1.9c-1.4,0-2.9,0-4.3-0.1    c-1.6,0-9.1,0.2-14.5,2.1c-2.2,0.8-4.8,1.1-7.9,1.1c-0.2,0-0.4,0-0.7,0c0.8,1.4,1,3.2,0.8,5.4c-0.2,2.5-0.7,4.2-1.1,5.2    c-0.2,0.5-0.3,1-0.3,1.1l0.4,5.3l-1.5-0.7c-0.1,1.7-0.4,3.8-1.2,5.3l0,0c-0.5,0.9-1.2,1.7-1.8,2.3c0.1,1.3,0,2.7-0.9,3.8    c-0.3,0.4-0.7,0.7-1.1,1c-0.1,1.4-0.4,2.3-1.1,3.1c-0.3,0.3-0.7,0.8-2,1.6c-0.1,1.8-0.3,5-0.4,6.5c-0.1,2-0.2,6.7-0.3,8.1    l-0.1,2.1l-1.8,0.8c-0.6,0.3-1.1,0.5-1.5,0.8c0,0.4,0,1,0.1,1.6l0.3,3.5l-3.5,0.1c-1.1,0-4.3,0.3-6.2,1.2L113.3,151.4z"/>
	</g>
	<g>
		<path class="st2" d="M60,96.5c-0.1-32,25.8-58,57.8-58c32-0.1,58,25.8,58,57.8c0.1,32-25.8,58-57.8,58    C86.1,154.4,60.1,128.5,60,96.5"/>
	</g>
	<g>
		<path class="st1" d="M118,40.9h-0.1c-14.8,0-28.8,5.8-39.2,16.3C68.2,67.7,62.4,81.7,62.4,96.5c0.1,30.6,25,55.4,55.5,55.4h0.1    c30.6-0.1,55.5-25,55.4-55.6C173.4,65.7,148.5,40.9,118,40.9 M117.9,156.7c-33.2,0-60.2-27-60.3-60.2c0-16.1,6.2-31.3,17.6-42.7    c11.4-11.4,26.5-17.7,42.6-17.8h0.1c33.2,0,60.2,27,60.3,60.2c0.1,33.3-26.9,60.4-60.2,60.4H117.9z"/>
	</g>
	<g>
		<path class="st2" d="M60,96.5c-0.1-32,25.8-58,57.8-58c32-0.1,58,25.8,58,57.8c0.1,32-25.8,58-57.8,58    C86.1,154.4,60.1,128.5,60,96.5"/>
	</g>
	<g>
		<polygon class="st3" points="158.7,58.4 196.9,55.2 156.7,55.9   "/>
	</g>
	<g>
		<path class="st4" d="M114.3,43.2c31,0,56.2,25.1,56.2,56.2c0,13-4.4,24.9-11.8,34.4c9.3-9.9,15-23.3,15-38    c0-30.7-24.9-55.6-55.6-55.6c-13.4,0-25.8,4.8-35.4,12.7C91.7,46.8,102.6,43.2,114.3,43.2"/>
	</g>
	<g>
		<polygon class="st3" points="157.7,55.7 183.1,25.3 156.1,54   "/>
	</g>
	<g>
		<path class="st3" d="M153.9,52.2C151,49.6,124,28,124,28s26.3,23.4,28.8,26L153.9,52.2z"/>
	</g>
	<g>
		<polygon class="st3" points="153.9,11.3 154.3,52.9 157.7,54.1   "/>
	</g>
	<g>
		<polygon class="st4" points="154,16.1 153.5,52.6 125.5,29.3 150.4,54.9 112.3,56 150.4,57.8 131.9,79.1 152.5,59.4 154.5,98     155.4,59.7 174.8,77.2 157.7,57.6 195.6,55.2 157.5,54.9 178.9,29.7 156.2,52.9   "/>
	</g>
	<g>
		<path class="st3" d="M97.6,88.6c0,0,0.1,0.1,0.3,3.6c0.3,3.5-3.9,4.2-3.9,4.2s0.5,1.2,0.7,2.2c0.5,2,0.7,4,0.9,4.4    c0.6,0.4,1,1.4,1.3,1.8c0.4,0.4,1.1,1,1.1,1l-0.6,0.2c0,6.1,1.2,7.4,1.5,7.8c0.4,0.4,2.3,0.4,3,2.3c0.1,2.8,0.5,5.9,0.5,5.9    c1.5,0.3,2.5,1.8,2.5,1.8c0.5,0.6,0.7,1.4,0.9,2.3c0,0.3,0.2,2.1,0.2,2.6c0.1,1.2-0.2,3.9-0.1,6.5c0.1,2.9,0.6,5.6,0.6,5.6    c5.3,0.8,5.9,6.2,5.9,6.2c3-1.5,7.6-1.6,7.6-1.6s-0.3-2.6,0.2-3.5c0.4-0.9,3.1-2.1,3.1-2.1s0.2-5.8,0.3-8.1    c0.1-2.3,0.5-7.8,0.5-7.8s0-0.3,0.3-0.5c0.8-0.5,2.1-1.4,2.3-1.7c0.3-0.3,0.4-3.2,0.4-3.2s1-0.1,1.7-0.9c0.4-0.5,0-3.3,0-3.3    s1.7-0.9,2.4-2.2c0.7-1.4,1-3.9,0.9-5.5c0-1.5-0.9-1.5-1.3-1.3c-0.1,0.7-1.8,3.1-1.9,0.8c-0.1-2.3,1.8-3.7,1.8-3.7    c0.8,0.7,2.5,1.5,2.5,1.5c-0.1-1.7,1-2.9,1.4-6.9c0.4-3.6-0.9-4.2-1.1-4.4c-0.2-0.2-2-0.8-3.4-0.1c-1.4,1.3-1.5-0.5-1.1-1.2    c0.4-0.7,3.9-0.9,3.9-0.9c0.3-1-0.1-2-0.1-2s6.9,1.1,11.8-0.6c5.3-1.8,12.5-2.2,15.6-2.2"/>
	</g>
	<g>
		<path class="st4" d="M118.6,70.2c0,0,2.7-3.1,7.2-3c5.2,0.1,8.2,3.5,8.2,3.5s2.8-2.4,4-2.4c1.2,0.1,0.9-0.6,9.9,0.4    c4.2,0.5,9,0.9,13.4,1.7c0.8,0.2,14,0.8,16.2,0.4c1.6-0.3,10.2-1.2,12.2-1.7c12.4-3.1,16.6-8.7,16.6-8.7s4.1-3.4,2.5-9.7    c-2.2-8.2-18.3-10.9-18.3-10.9s18.8-10.7,28.7,6.3c0.8,1.4,1.3,3.1,1.7,5.1c0.6,2.6,0.3,6.8-1.1,11.2c-3,9.2-12.8,14.4-15.6,16    c-11.2,6.3-26.5,7.3-27.4,7.5c-1.9,0.4-14.9,0.2-15.7,0.3c-3.2,0.2-6.4,0.6-9,1.2c-2.6,0.6-4.6,1.3-5.8,1.6    c-2.9,0.6-7.4,0.4-8.5,0.2c0,0.1-0.1,0.7-0.4,1.7c2.8,1.7,1.9,6.1,1.9,6.1s-0.3,3.1-1.2,5.3c-0.3,0.8,0,2.9,0,2.9    s-1.7-0.8-1.6-0.7c0.8,1.4,0,5.4-0.1,5.6c-0.2,1-0.6,2.9-2.8,4.3c0,0,0.2,2.1-0.1,2.9c-0.3,1-1.6,1.6-1.7,1.6    c-0.1,2-0.4,2.7-0.5,2.8c-0.2,0.5-2.5,2-2.5,2s-0.8,16.2-0.8,16.4c-0.1,0.1-2.9,1.2-3.3,1.9c-0.2,1.5,0.3,4,0.1,4    c-3.6-0.1-7.4,0.8-9.9,2.2c-0.1-7-5.6-6.9-5.9-7c-0.8-2.9-0.7-7.6-0.8-7.9c-0.1-0.3,0.9-7.8-1-9.8c-0.2-0.2-1.1-1.1-2.3-1.1    c-0.4-0.9-0.5-5.7-0.7-6.9c-0.4-0.7-2.7-1.1-2.8-1.9c-0.6-0.4-1.6-2.4-1.6-8.4c-0.5-0.6-0.9-1.5-1.2-1.7c-0.1-0.1-0.3-0.2-0.3-0.3    c-0.6-0.6-1-5.6-2.4-8.3c-0.1-0.2,0.1-0.1,0.4-0.1c4.4-0.6,3.9-3,3.9-3s-0.1-2.6-0.2-2.6c0,0-4.8-0.4-5.5-0.5    c-1.5-0.2-4.7-1.2-7.3-1.8c-4.1-0.9-12-0.7-12-0.7s-8.3,0.4-12.7,0.1c-7.4-0.3-12.6-1.5-14.1-1.7c-5.7-0.8-14-4.6-14.6-4.8    c-3.1-1-10.2-6.5-11.5-7.7c-4.6-4.3-6.2-9-6.2-9s-2.2-4.9-1.5-10.5C16.2,41.8,24.9,38.7,26,38.3c9.5-3.4,18.4,1.8,18.7,1.9    c-0.3,0.4-16.5,2.8-18.2,12.3c-0.1,0.8-1.4,6.2,5.9,11.4c1.1,0.8,8.5,6,22.9,7.2c2.5,0.5,19.1,0,22.1-0.9c1-0.3,18.9-2.1,20.6-1.9    c1.4,0.1,3.2,0.8,3.5,1.3c4.2-2.1,6.5-2.2,8-2.3C114.9,67.2,118.6,70.2,118.6,70.2"/>
	</g>
	<g>
		<path class="st3" d="M215.3,42.7c-8.7-8.8-21.1-3.3-21.1-3.3c12.7,3.2,14.9,8.1,16.1,11.6c0.7,4.1-0.2,9-6.5,13.4    c-6.5,5-17.2,6.9-23.7,7.5c-7.1,0.8-18.8-0.1-22.3-0.8c-3.5-0.7-12.7-1.4-15.3-1.6c-2.6-0.2-4.7-0.4-6.6,1.4    c-1.8,1.6-2.3,1.1-2.3,1.1s-3.1-3.8-7.9-3.5c-4.8,0.4-5,2.1-6.3,2.7c-0.6,0.4-0.8,0.4-1.3,0c-0.6-0.4-3.5-2.2-6.5-2.6    c-5.2-0.5-10.2,2.5-10.2,2.5c-0.3-1.1-3.3-1.8-5.9-1.5c-2.6,0.3-12,0.8-15.5,1.6c-3.4,0.7-16.9,1.8-24,1.2    c-6.4-0.4-17.2-2.3-23.8-7.2c-6.4-4.3-7.4-9.2-6.8-13.3c1.1-3.4,3.2-8.5,15.8-11.8c0,0-12.5-5.3-21.1,3.6    c-5.6,5.9-5.3,14-2.8,19.6c2.8,7.6,13.2,14.8,21.5,17.5c4,1.4,14.6,5.5,35.3,4.5c3.1,0,11.1-0.3,16.4,1.5    c4.9,1.6,10.5,1.5,10.5,1.5s0.1,0.1,0.4,3.6c0.3,3.5-3.9,4.2-3.9,4.2s0.5,1.2,0.7,2.2c0.5,2,0.7,4,0.9,4.4c0.6,0.4,1,1.4,1.3,1.8    c0.4,0.4,1.1,1,1.1,1l-0.6,0.2c0,6.1,1.2,7.4,1.5,7.8c0.4,0.4,2.3,0.5,3,2.3c0.1,2.8,0.5,5.9,0.5,5.9c1.5,0.3,2.5,1.8,2.5,1.8    c0.5,0.6,0.7,1.4,0.9,2.3c0,0.3,0.2,2.1,0.2,2.6c0.1,1.2-0.2,3.9-0.1,6.5c0.1,2.9,0.6,5.5,0.6,5.5c5.3,0.8,5.9,6.3,5.9,6.3    c3-1.5,7.6-1.6,7.6-1.6s-0.3-2.6,0.2-3.5c0.4-0.9,3.1-2.1,3.1-2.1s0.2-5.8,0.3-8.1c0.1-2.3,0.5-7.8,0.5-7.8s0-0.3,0.4-0.6    c0.8-0.5,2.1-1.4,2.3-1.7c0.3-0.3,0.4-3.2,0.4-3.2s1-0.1,1.7-0.9c0.5-0.5,0.1-3.3,0.1-3.3s1.7-0.9,2.3-2.2c0.7-1.4,1-3.9,0.9-5.5    c0-1.5-0.9-1.5-1.4-1.3c-0.1,0.7-1.8,3.1-1.9,0.8c-0.1-2.3,1.8-3.7,1.8-3.7c0.8,0.7,2.5,1.5,2.5,1.5c-0.1-1.7,1-2.9,1.4-6.9    c0.4-3.6-0.9-4.2-1.1-4.4c-0.2-0.2-2-0.8-3.4-0.1c-1.4,1.3-1.5-0.5-1.1-1.2c0.4-0.7,3.9-0.9,3.9-0.9c0.3-1-0.1-2-0.1-2    s6.9,1.1,11.8-0.6c5.3-1.8,12.5-2.2,15.6-2.2c19.7,0.7,29.9-3.3,33.9-4.8c8.2-2.9,18.1-10.3,20.7-17.9    C220.9,56.6,221.1,48.5,215.3,42.7"/>
	</g>
	<g>
		<path class="st4" d="M151.6,81.2c-0.7-0.8-2.4-2.2-3.5-2.3l0.4-4c0,0-2.4-1.4-6.3-2.4c-3.5-1-3.5-0.7-4.2-0.4    c-2,1.4-3.8,1.9-3.8,1.9s-3.1-3.6-7.3-4c-2.2-0.2-4.2,0.5-5.3,1.3c-1.3,1-2,1.6-2,1.6s-0.5,0.6-2.2,0c-1.7-0.7-3.6-3.5-9.4-2.7    c-4.8,1.4-6.8,2.7-6.8,2.7s-0.4-2-3.4-2c-2.9,0-6.2,0.1-6.9,0.3c-0.7,0.2-1.9,0.8-2.2,0.9c-0.3,0,0.9,2.6-0.2,4.1    c-0.6,0.9-0.2,1.5-1.4,1.4c0,0-2.5,0-2.7,1.9c0,2,3.2,3.1,4.6-0.9c0,0,1.5,3.8,3.2,4.3c2.1,0.4,4.1-2.7,4.6-3c0,0-2.2,3.9-1.1,5.4    c1.4,0.8,3.1,0.9,3.4,0.6c0.3-0.4,1.2-2,1-3.8c0,0,1.2,1,1.9,0.1c0.7-0.9,0.9-4.7,0.9-4.7s0.8-0.2,0.9,1.7c0,1.9,0.1,3.3,0.1,3.3    s-1.1-0.1-1.3,0.6c-0.1,0.7,0.1,1.2,0.1,1.2l1.1-0.1c0,0,0.3,0.7-1.1,1.5c0,0,1.4,3.9,0.4,6.8c-1.1,3.2-3.2,3.7-3.2,3.7    s0.7,3.5,0.7,4.3c0,0.8,1.2,1.8,1.5,2.6c0.4,0.7,0.8,1.4,0.8,1.4s-1.4-2.7-1.6-4.9c-0.2-2.2,1.8-3,4.5-3.7c0,0,1.3-0.1,1.9,0.2    c0.7,0.3,1.6,0.6,1.6,0.6s1.1,0.9,1.1,1.3c0.1,0.3,0.4,2.9,0.4,3.6c-0.1,0.7-0.9,1-0.9,1s0.5,5,0.5,5.8c0,0.7-0.1,0.9-0.1,0.9    s-0.4-0.1-0.7-0.3c-0.2-0.2-0.3,0-0.3,0s-0.3,1.7-1.7,2.6c0,0-0.4-0.7-0.7-1c-0.3-0.2-0.9-0.7-2.5-3.5c0,0-0.5-0.9-1.4-0.7    c0,0,0,3.2,0.8,4.9c0.9,1.3,1.5,0.7,2,1.9c0.4,0.9,1,1.4,1.3,2.9c0.5,1.9,1,4.5,1,4.5s2.3,1.7,2.8,2.8c0.3,0.7,0.6,1.8,0.5,3.3    c0,0-0.2,9.8,0,11.1c0.1,0.7,0.4,1.1,0.4,1.1s3.1,0.2,5.3,5.6l4.4-1c0,0,0-0.5,0.1-1.2c0.3-1.2,1.2-2.5,1.5-2.7    c0.4-0.4,1.9-0.8,1.9-0.8s0.3,0,0.3-0.5c0,0,0.3-10.9,0.3-11.3l0.3-3.9c0,0,1.3-0.8,2.5-2.3c0.7-0.6,0.8-3.2,0.8-3.2l1.5,0.2    c0,0,0.7,0.1,0-4.5c0,0,0.9-0.3,2.6-2.7l0.2-2.7l-4,3.7c0,0-1.9-2.1-1.9-2.4c-0.1-0.2-0.4-1.1-0.2-6.1l-0.6-0.8l-0.1-0.4l0.5-0.8    c0,0,0.8-3.6,1.3-4.2c0.5-0.6,2.3-1,4.6-0.3c2.5,0.9,3,4.3,3,4.3s0.6-0.4,0.6-3.4c0.1-1.1-0.1-2.7-0.1-2.7s-0.1-1.1-1.6-1.1    c-0.8,0.2-1.2,1-2.4,0.4c-1.1-0.1-1.2,0.1-1.8-1.7c-0.2-1.9,2-2.9,3.5-3.3l0.2-1.2c0,0-1.9-2-2-3.2l0.8-0.1c0,0-1.9-4.1,0.2-6.4    c0,0-0.5,5.3,2.3,4.9l0.8,2.3c0,0,1.9,1.2,2,1.4c0,0,1,0.2,3-0.1c0.4-0.7-0.3-0.9-1.1-1.3c-1.2-0.6-1.5-1.9-0.6-3    c0,0,1.1,1.7,3.3,2.6c3.3-0.1,3-1,3-1l0.3-1.2c0,0-0.2-1.3,0.4-2l2,3.1c0,0,0.7-0.4,1-0.5c0.3-0.1,2.4-0.4,2.4-0.4    S152.3,82,151.6,81.2"/>
	</g>
	<g>
		<path class="st3" d="M117.7,78.3c0,0,0-3.7,0.1-4c0.1-0.3,0.3-0.6,0.7-0.6c0.4,0,0.6,0.7,0.6,0.7s-0.3,2-0.4,2.3    C118.7,77.1,118.4,77.7,117.7,78.3"/>
	</g>
	<g>
		<path class="st3" d="M117.9,100.2c0,0-0.6,6.6-0.7,7c-0.1,0.4,0.9,0.2,0.9,0.2s1.2-2.1,1.4-2.4c0.2-0.3,0.2-0.5-0.1-1.1    C119.2,103.3,117.9,100.2,117.9,100.2"/>
	</g>
	<g>
		<path class="st3" d="M118.5,108.8l0.9,0c0,0-0.5,4.3-0.5,5.6c0,1.3-0.1,3.1-0.1,3.1h-0.7c0,0-0.8-3.1-0.8-3.2    c0-0.2,1.1-2.8,1.1-2.8L118.5,108.8z"/>
	</g>
	<g>
		<path class="st3" d="M117.4,120.5c0,0,0.8-0.2,1-0.2c0.2,0.1,0.3,0.2,0.3,0.2l0,4.4c0,0,0.2,1,0.3,1.2c0.2,0.2,1.1,0.6,1.3,1.1    c0.2,0.5,0.6,2.6,0.1,4.1c-0.6,2.5-1.5,2.9-1.4,3.9c0.1,1,0.7,2.9,0.7,3.5c0,0-0.3,0.4-1.3,0.2c-0.3-0.3-0.9-0.3-0.9-0.3    s0.4-2.8,0.2-4.2c-0.2-1.2-1.5-0.5-1.5-0.5l0-6.5c0,0-0.2-0.5,0.5-0.9c0.8-0.4,1-0.4,1-0.4L117.4,120.5z"/>
	</g>
	<g>
		<path class="st2" d="M121.3,83.1c0,0,1-0.9,1.1-1.1c0-0.2-0.5-1-1.4-1.4c-0.9-0.4-1.4-0.1-1.4-0.1s-1.3,2.4-2,2.6    c-1.4-0.5-2.3-1.6-3.1-2.5c-0.8-0.9-3.5-3.6-3.5-3.6l-0.3-0.2c0,0,0,1.3,0.1,2.9c0,0.8,0.2,1.8,0.2,2.7c0.1,1.5,0.1,2.7,0.2,2.7    c0.1,0.2,1.8,1.8,1.8,1.8s0.2,0.2,0,0.3c-0.2,0.1-1.3,1.4-2.2,1.5c-1,0.2-1.8-0.1-2-0.2l0.1,0.6c0,0,0.8,2.5,1.1,2.9    c0.3,0.4,0.4,0.1,0.7,0.4c0.5,0.3,0.5,1.5,0.5,1.5l4.2-0.2l1.3-3.2c0,0,1.3-0.1,1.6-0.2c0.2-0.1,1.6-0.2,1.8-0.1    c0.3,0,0.6,0.8,0.9,1c0.1,0.1,0.5-0.1,0.8-0.4c0.3-0.2,2.5-1.2,3.1-1.3c0.3-0.1,2.9-4.2,4.1-5.1c0,0-1.7,0.3-2.8,0.6    c-1.1,0.3-3.4,0.3-3.7,0.2c-0.6-0.1-1.4-0.2-1.4-0.2S121.1,84.2,121.3,83.1"/>
	</g>
	<g>
		<path class="st4" d="M106.6,106.2c0,0,1.2-0.3,0.9-1.7c-0.6-1.4-1.9-1-2.2,0.1C105,105.6,105.6,106.5,106.6,106.2"/>
	</g>
	<g>
		<path class="st4" d="M129.7,103.4c0,0-1.2,0.3-0.4,2c0.9,0.6,1.8-0.3,1.6-0.7C130.9,104.2,130.8,103.5,129.7,103.4"/>
	</g>
	<g>
		<path class="st4" d="M48.5,72.4c0,0,9.9,3.7,34.7,0c0,0,0.8,7.7-7.3,8.7c-6.8,0.8-14.5-1.7-16.2-2.3    C55.9,77.4,49.3,74.3,48.5,72.4"/>
	</g>
	<g>
		<path class="st4" d="M175.8,78.4c-1.7,0.6-9.4,3-16.2,2c-8-1.1-7.1-8.8-7.1-8.8c24.7,4.2,34.7,0.7,34.7,0.7    C186.4,74.1,179.7,77.1,175.8,78.4"/>
	</g>
	<g>
		<path class="st3" d="M217.7,130.8l-75.6,15.4l0-9.5l-10.6,2.2l0,9.5l-79,16.3l0-9.5l-34,7.1v39.7L92,186.9l0-19.8l10.6-2.2l0,19.7    l115-23.7L217.7,130.8z M52.5,184.3l-23.1,4.8l-0.1-18l23.2-4.8L52.5,184.3z M149.4,164.5l-7.2,1.4l0.1-9.1l7.1-1.5L149.4,164.5z     M199.3,154.2l0-9l7.7-1.6l0,9L199.3,154.2z"/>
	</g>
	<g>
		<path class="st5" d="M217.7,130.8l-75.6,15.4l0-9.5l-10.6,2.2l0,9.5l-79,16.3l0-9.5l-34,7.1v39.7L92,186.9l0-19.8l10.6-2.2l0,19.7    l115-23.7L217.7,130.8z M52.5,184.3l-23.1,4.8l-0.1-18l23.2-4.8L52.5,184.3z M149.4,164.5l-7.2,1.4l0.1-9.1l7.1-1.5L149.4,164.5z     M199.3,154.2l0-9l7.7-1.6l0,9L199.3,154.2z"/>
	</g>
	<g>
		<path class="st4" d="M104.1,155.7l0,7.4c0,0,15.9-3.3,17.8-3.7c0,0.8,0,1.4,0,2.2c-1.9,0.4-17.8,3.7-17.8,3.7l0,17.5l25.9-5.4    l0-27.1L104.1,155.7z M122.4,169c0,0.9,0,1.7,0,2.6c-1.6,0.3-9.2,1.9-10.9,2.3c0-0.9,0-1.7,0-2.6    C113.2,170.9,120.8,169.3,122.4,169"/>
	</g>
	<g>
		<path class="st4" d="M161.2,143.9l0,7.4c0,0,15.9-3.3,17.8-3.7c0,0.8,0,1.4,0,2.2c-1.9,0.4-17.8,3.6-17.8,3.6l0,17.4l25.9-5.3v-27    L161.2,143.9z M179.6,157.2c0,0.9,0,1.7,0,2.6c-1.6,0.3-9.2,1.9-10.9,2.2c0-0.9,0-1.7,0-2.6C170.4,159.1,177.9,157.6,179.6,157.2"/>
	</g>
	<g>
		<path class="st4" d="M19.7,200.4l31.2-6.5l0-7.8c0,0-21.4,4.5-23.4,4.9c0-1.9,0-19.3,0-21.2c2-0.4,23.2-4.8,23.2-4.8l0-7.8    l-31,6.4L19.7,200.4z"/>
	</g>
	<g>
		<path class="st4" d="M53.9,166l0,7.5c0,0,15.9-3.3,17.8-3.7c0,0.8,0,1.4,0,2.2c-1.9,0.4-17.8,3.7-17.8,3.7l0,17.5l25.9-5.4v-27.2    L53.9,166z M72.3,179.4c0,0.9,0,1.7,0,2.6c-1.6,0.3-9.3,1.9-10.9,2.3c0-0.9,0-1.7,0-2.6C63,181.3,70.6,179.7,72.3,179.4"/>
	</g>
	<g>
		<path class="st4" d="M82.8,160.1l-0.1,27.2l7.5-1.6c0,0,0-17.8,0-19.7c1.7-0.4,10.9-2.2,10.9-2.2l0-7.4L82.8,160.1z"/>
	</g>
	<g>
		<path class="st4" d="M132.9,140.3l0,36.5l25.3-5.2l0-27.1c0,0-16,3.3-17.9,3.7c0-1.7,0-9.4,0-9.4L132.9,140.3z M150.8,153.5    c0,1.7,0,10.6,0,12.3c-1.6,0.3-8.7,1.8-10.3,2.1c0-1.7,0-10.6,0-12.3C142.1,155.3,149.1,153.8,150.8,153.5"/>
	</g>
	<g>
		<path class="st4" d="M190.1,138l0,27l25.9-5.3l0-27L190.1,138z M208.4,141.7c0,1.7,0,10.5,0,12.2c-1.6,0.3-9.2,1.9-10.9,2.2    c0-1.7,0-10.5,0-12.2C199.2,143.6,206.8,142,208.4,141.7"/>
	</g>
	<g>
		<path class="st3" d="M163.4,187.1l-38.9,7.8l0.1,19.8l-7.8,1.6l0-19.8l-10.4,2.1l0-9.5l-34,7.1v39.7l91-18.6L163.4,187.1z     M106.1,218.4l-23,4.8l-0.1-18l23.2-4.8L106.1,218.4z M152.7,209l-7.2,1.5l0.1-9.1l7.1-1.5L152.7,209z"/>
	</g>
	<g>
		<path class="st5" d="M163.4,187.1l-38.9,7.8l0.1,19.8l-7.8,1.6l0-19.8l-10.4,2.1l0-9.5l-34,7.1v39.7l91-18.6L163.4,187.1z     M106.1,218.4l-23,4.8l-0.1-18l23.2-4.8L106.1,218.4z M152.7,209l-7.2,1.5l0.1-9.1l7.1-1.5L152.7,209z"/>
	</g>
	<g>
		<polygon class="st3" points="145.6,220.8 135,223 135,232.4 145.6,230.3   "/>
	</g>
	<g>
		<polygon class="st5" points="145.6,220.8 135,223 135,232.4 145.6,230.3   "/>
	</g>
	<g>
		<path class="st4" d="M73.4,234.2l31.2-6.5l0-7.8c0,0-21.4,4.5-23.4,4.9c0-1.9,0-19.3,0-21.2c2-0.4,23.2-4.8,23.2-4.8l0-7.8    l-31,6.4L73.4,234.2z"/>
	</g>
	<g>
		<path class="st4" d="M161.7,188.8l-25.4,5.2l0,26.7l0,9.8l7.5-1.6c0-1.5,0-7.9,0-9.5l17.8-3.7L161.7,188.8z M154.1,210    c-1.6,0.3-8.7,1.8-10.3,2.1c0-1.7,0-10.6,0-12.3c1.6-0.3,8.7-1.8,10.3-2.1C154.2,199.4,154.1,208.4,154.1,210"/>
	</g>
	<g>
		<path class="st4" d="M115.1,198.6l-7.5,1.5l0,27l25.9-5.3l0-27l-7.5,1.5l0,7.4c0,1.7,0,10.5,0,12.2c-1.6,0.3-9.2,1.9-10.9,2.2    c0-1.7,0-10.5,0-12.2L115.1,198.6z"/>
	</g>
	<g>
		<polygon class="st4" points="217.3,226.5 28.1,263.2 28.2,260.2 217.2,223.5   "/>
	</g>
	<g>
		<polygon class="st6" points="217.3,226.5 28.1,263.2 28.2,260.2 217.2,223.5   "/>
	</g>
	<g>
		<path class="st4" d="M119.3,275.7v5.4v3.4v5.4v5.1h0.1c0.2,1.9,1.2,3.9,3.6,3.9h10.4v-5.1h-8.7V290h8.3v-5.4h-8.3v-3.4h8.9v-5.4    h-8.9L119.3,275.7L119.3,275.7z"/>
	</g>
	<g>
		<path class="st4" d="M137.9,295.9c0.4,1.9,1.4,3,3.2,3h2.3v-9.2h7.5v-5h-7.5v-4h8.4v-5.1h-14.1L137.9,295.9z"/>
	</g>
	<g>
		<path class="st4" d="M156,275.7v18.1c0,2.5,0.3,5,3.4,5h9.2v-5h-7.3v-18.1H156z"/>
	</g>
	<g>
		<path class="st4" d="M75,278c0,1.5-1.2,2.7-2.6,2.7c-1.4,0-2.6-1.2-2.6-2.7c0-1.5,1.2-2.7,2.6-2.7C73.8,275.3,75,276.5,75,278"/>
	</g>
	<g>
		<path class="st4" d="M82.1,277.9c0,1.8-1.4,3.2-3.1,3.2c-1.7,0-3.1-1.4-3.1-3.2c0-1.8,1.4-3.2,3.1-3.2    C80.7,274.7,82.1,276.1,82.1,277.9"/>
	</g>
	<g>
		<path class="st4" d="M88.2,281.4c0,1.9-1.5,3.4-3.3,3.4c-1.8,0-3.3-1.5-3.3-3.4c0-1.9,1.5-3.4,3.3-3.4    C86.8,278.1,88.2,279.6,88.2,281.4"/>
	</g>
	<g>
		<path class="st4" d="M79.2,284c0,1.7-1.3,3-2.9,3c-1.6,0-2.9-1.4-2.9-3c0-1.7,1.3-3,2.9-3C77.9,281,79.2,282.3,79.2,284"/>
	</g>
	<g>
		<path class="st4" d="M72.8,283.3c0,1.4-1.1,2.5-2.4,2.5c-1.3,0-2.4-1.1-2.4-2.5c0-1.4,1.1-2.4,2.4-2.4    C71.7,280.9,72.8,282,72.8,283.3"/>
	</g>
	<g>
		<path class="st4" d="M84.7,287.5c0,1.6-1.3,3-2.9,3c-1.6,0-2.9-1.3-2.9-3c0-1.6,1.3-3,2.9-3C83.4,284.6,84.7,285.9,84.7,287.5"/>
	</g>
	<g>
		<path class="st4" d="M72.2,288.8c0,1.3-1,2.4-2.3,2.4c-1.3,0-2.3-1.1-2.3-2.4c0-1.3,1-2.4,2.3-2.4    C71.1,286.4,72.2,287.5,72.2,288.8"/>
	</g>
	<g>
		<path class="st4" d="M77.6,290c0,1.4-1.1,2.5-2.4,2.5s-2.4-1.1-2.4-2.5c0-1.4,1.1-2.4,2.4-2.4S77.6,288.6,77.6,290"/>
	</g>
	<g>
		<path class="st4" d="M82.2,293c0,1.4-1.1,2.4-2.4,2.4c-1.3,0-2.4-1.1-2.4-2.4c0-1.4,1.1-2.5,2.4-2.5    C81.2,290.5,82.2,291.6,82.2,293"/>
	</g>
	<g>
		<path class="st4" d="M81.9,298c0,1.1-0.9,2.1-2,2.1c-1.1,0-2-0.9-2-2.1c0-1.1,0.9-2.1,2-2.1C81,296,81.9,296.9,81.9,298"/>
	</g>
	<g>
		<path class="st4" d="M77.3,295.1c0,1.1-0.9,2.1-2,2.1s-2-0.9-2-2.1c0-1.1,0.9-2.1,2-2.1S77.3,294,77.3,295.1"/>
	</g>
	<g>
		<path class="st4" d="M72.5,293.6c0,1.1-0.9,2.1-2,2.1c-1.1,0-2-0.9-2-2.1s0.9-2.1,2-2.1C71.6,291.5,72.5,292.4,72.5,293.6"/>
	</g>
	<g>
		<path class="st4" d="M73.4,297.3c0,0.9-0.7,1.6-1.5,1.6c-0.8,0-1.5-0.7-1.5-1.6c0-0.9,0.7-1.6,1.5-1.6    C72.7,295.7,73.4,296.4,73.4,297.3"/>
	</g>
	<g>
		<path class="st4" d="M77.6,299.2c0,0.9-0.7,1.6-1.5,1.6c-0.8,0-1.5-0.7-1.5-1.6c0-0.9,0.7-1.6,1.5-1.6    C77,297.6,77.6,298.3,77.6,299.2"/>
	</g>
	<g>
		<path class="st4" d="M74.5,300.2c0,0.7-0.6,1.3-1.3,1.3c-0.7,0-1.3-0.6-1.3-1.3c0-0.7,0.6-1.3,1.3-1.3    C74,299,74.5,299.5,74.5,300.2"/>
	</g>
	<g>
		<path class="st4" d="M76.3,302.5c0,0.7-0.5,1.2-1.2,1.2c-0.6,0-1.2-0.5-1.2-1.2c0-0.7,0.5-1.2,1.2-1.2    C75.8,301.3,76.3,301.8,76.3,302.5"/>
	</g>
	<g>
		<path class="st4" d="M79.2,302.2c0,0.7-0.5,1.2-1.2,1.2c-0.6,0-1.2-0.5-1.2-1.2c0-0.7,0.5-1.2,1.2-1.2    C78.6,301.1,79.2,301.6,79.2,302.2"/>
	</g>
	<g>
		<path class="st4" d="M82.7,301.9c0,0.9-0.7,1.6-1.5,1.6s-1.5-0.7-1.5-1.6c0-0.9,0.7-1.6,1.5-1.6C82,300.4,82.7,301.1,82.7,301.9"/>
	</g>
	<g>
		<path class="st4" d="M81.1,305.3c0,0.7-0.5,1.2-1.2,1.2c-0.6,0-1.2-0.5-1.2-1.2c0-0.7,0.5-1.2,1.2-1.2    C80.6,304.1,81.1,304.7,81.1,305.3"/>
	</g>
	<g>
		<path class="st4" d="M84.1,305.1c0,0.7-0.6,1.3-1.2,1.3c-0.7,0-1.2-0.6-1.2-1.3c0-0.7,0.6-1.3,1.2-1.3    C83.6,303.8,84.1,304.4,84.1,305.1"/>
	</g>
	<g>
		<path class="st4" d="M78.4,304.7c0,0.5-0.4,0.9-0.9,0.9c-0.5,0-0.9-0.4-0.9-0.9c0-0.5,0.4-0.9,0.9-0.9    C78,303.8,78.4,304.2,78.4,304.7"/>
	</g>
	<g>
		<path class="st4" d="M82.6,307.2c0,0.5-0.4,0.8-0.8,0.8c-0.5,0-0.8-0.4-0.8-0.8c0-0.5,0.4-0.8,0.8-0.8    C82.2,306.4,82.6,306.7,82.6,307.2"/>
	</g>
	<g>
		<path class="st4" d="M85.5,307.4c0,0.6-0.5,1.1-1.1,1.1c-0.6,0-1.1-0.5-1.1-1.1c0-0.6,0.5-1.1,1.1-1.1    C85.1,306.3,85.5,306.8,85.5,307.4"/>
	</g>
	<g>
		<path class="st4" d="M87.5,308.5c0,0.4-0.3,0.8-0.8,0.8c-0.4,0-0.8-0.3-0.8-0.8c0-0.4,0.3-0.8,0.8-0.8    C87.1,307.8,87.5,308.1,87.5,308.5"/>
	</g>
	<g>
		<path class="st4" d="M106.5,278.3c-1.4-0.6-2-2.1-1.5-3.5c0.6-1.3,2.2-1.9,3.5-1.3c1.4,0.6,2,2.1,1.5,3.5    C109.4,278.3,107.8,278.9,106.5,278.3"/>
	</g>
	<g>
		<path class="st4" d="M102.9,284.3c-1.6-0.7-2.4-2.5-1.7-4.1c0.7-1.6,2.5-2.3,4.1-1.6c1.6,0.7,2.4,2.5,1.7,4.1    C106.4,284.3,104.5,285,102.9,284.3"/>
	</g>
	<g>
		<path class="st4" d="M96.9,288c-1.7-0.7-2.5-2.7-1.8-4.3c0.7-1.7,2.7-2.4,4.4-1.7c1.7,0.7,2.5,2.7,1.8,4.3    C100.6,288,98.6,288.8,96.9,288"/>
	</g>
	<g>
		<path class="st4" d="M98.8,278.9c-1.5-0.7-2.3-2.4-1.6-3.9c0.6-1.5,2.4-2.2,3.9-1.5c1.5,0.7,2.3,2.4,1.6,3.9    C102.1,278.9,100.3,279.5,98.8,278.9"/>
	</g>
	<g>
		<path class="st4" d="M102.7,273.8c-1.2-0.5-1.8-2-1.3-3.2c0.5-1.2,2-1.8,3.2-1.2c1.2,0.5,1.8,2,1.3,3.2    C105.4,273.8,103.9,274.3,102.7,273.8"/>
	</g>
	<g>
		<path class="st4" d="M93.3,281.8c-1.5-0.6-2.2-2.4-1.6-3.8c0.6-1.5,2.4-2.1,3.9-1.5c1.5,0.6,2.2,2.4,1.6,3.8    C96.5,281.8,94.8,282.4,93.3,281.8"/>
	</g>
	<g>
		<path class="st4" d="M98.4,270.6c-1.2-0.5-1.8-1.9-1.3-3c0.5-1.2,1.9-1.7,3.1-1.2c1.2,0.5,1.8,1.9,1.3,3    C101,270.6,99.6,271.1,98.4,270.6"/>
	</g>
	<g>
		<path class="st4" d="M94.5,274.4c-1.2-0.5-1.8-1.9-1.3-3.1c0.5-1.2,1.9-1.8,3.2-1.2c1.2,0.5,1.8,1.9,1.3,3.1    C97.2,274.4,95.7,274.9,94.5,274.4"/>
	</g>
	<g>
		<path class="st4" d="M89.4,276.9c-1.2-0.5-1.8-1.9-1.3-3.1c0.5-1.2,1.9-1.7,3.2-1.2c1.2,0.5,1.8,1.9,1.3,3.1    C92.1,276.9,90.7,277.4,89.4,276.9"/>
	</g>
	<g>
		<path class="st4" d="M85.3,274.3c-1-0.4-1.5-1.6-1.1-2.7c0.4-1,1.6-1.5,2.7-1.1c1,0.4,1.5,1.6,1.1,2.7    C87.6,274.3,86.4,274.7,85.3,274.3"/>
	</g>
	<g>
		<path class="st4" d="M90.1,271.6c-1.1-0.4-1.5-1.6-1.1-2.7c0.4-1,1.6-1.5,2.7-1c1,0.4,1.5,1.6,1.1,2.7    C92.3,271.6,91.1,272.1,90.1,271.6"/>
	</g>
	<g>
		<path class="st4" d="M93.8,268.4c-1.1-0.5-1.5-1.6-1.1-2.7c0.4-1,1.6-1.5,2.7-1c1.1,0.5,1.5,1.6,1.1,2.7    C96.1,268.4,94.9,268.9,93.8,268.4"/>
	</g>
	<g>
		<path class="st4" d="M90.2,267.1c-0.8-0.3-1.2-1.2-0.8-2c0.3-0.8,1.2-1.1,2-0.8c0.8,0.3,1.2,1.2,0.8,2    C91.9,267.1,91,267.5,90.2,267.1"/>
	</g>
	<g>
		<path class="st4" d="M86.4,270.2c-0.8-0.3-1.2-1.2-0.8-2c0.3-0.8,1.2-1.1,2-0.8c0.8,0.3,1.2,1.2,0.8,2    C88.1,270.1,87.2,270.5,86.4,270.2"/>
	</g>
	<g>
		<path class="st4" d="M86.9,266.9c-0.6-0.3-1-1-0.7-1.6c0.3-0.6,1-0.9,1.7-0.7c0.6,0.3,1,1,0.7,1.7    C88.3,266.9,87.6,267.2,86.9,266.9"/>
	</g>
	<g>
		<path class="st4" d="M84,267.2c-0.6-0.3-0.9-0.9-0.6-1.5c0.3-0.6,1-0.9,1.6-0.6c0.6,0.3,0.9,1,0.6,1.5    C85.3,267.2,84.6,267.5,84,267.2"/>
	</g>
	<g>
		<path class="st4" d="M82.7,269.6c-0.6-0.3-0.9-0.9-0.6-1.5c0.3-0.6,0.9-0.9,1.5-0.6c0.6,0.3,0.9,0.9,0.6,1.5    C84,269.6,83.3,269.9,82.7,269.6"/>
	</g>
	<g>
		<path class="st4" d="M81.2,272.9c-0.8-0.3-1.2-1.2-0.8-2c0.3-0.8,1.2-1.1,2-0.8c0.8,0.3,1.2,1.2,0.8,2    C82.9,272.9,82,273.2,81.2,272.9"/>
	</g>
	<g>
		<path class="st4" d="M79.1,269.9c-0.6-0.3-0.9-0.9-0.6-1.5c0.3-0.6,0.9-0.9,1.5-0.6c0.6,0.3,0.9,0.9,0.6,1.5    C80.4,269.9,79.7,270.1,79.1,269.9"/>
	</g>
	<g>
		<path class="st4" d="M77.9,272.5c-0.6-0.3-0.9-1-0.7-1.6c0.3-0.6,1-0.9,1.6-0.6c0.6,0.3,0.9,1,0.7,1.6    C79.3,272.5,78.6,272.8,77.9,272.5"/>
	</g>
	<g>
		<path class="st4" d="M80.9,267.8c-0.5-0.2-0.7-0.7-0.5-1.2c0.2-0.4,0.7-0.7,1.2-0.5c0.5,0.2,0.7,0.7,0.5,1.2    C81.9,267.8,81.3,268,80.9,267.8"/>
	</g>
	<g>
		<path class="st4" d="M76.7,270.2c-0.4-0.2-0.6-0.7-0.4-1.1c0.2-0.4,0.7-0.6,1.1-0.4c0.4,0.2,0.6,0.7,0.4,1.1    C77.6,270.2,77.1,270.4,76.7,270.2"/>
	</g>
	<g>
		<path class="st4" d="M75,272.5c-0.6-0.2-0.8-0.9-0.6-1.4c0.2-0.5,0.9-0.8,1.4-0.6c0.6,0.2,0.8,0.9,0.6,1.4    C76.1,272.5,75.5,272.8,75,272.5"/>
	</g>
	<g>
		<path class="st4" d="M73,273.7c-0.4-0.2-0.6-0.6-0.4-1c0.2-0.4,0.6-0.6,1-0.4c0.4,0.2,0.6,0.6,0.4,1    C73.9,273.7,73.4,273.8,73,273.7"/>
	</g>
	<g>
		<path class="st4" d="M90,304.8c1.2-0.9,2.9-0.7,3.7,0.5c0.9,1.2,0.6,2.8-0.6,3.7c-1.2,0.9-2.9,0.7-3.7-0.5    C88.5,307.3,88.8,305.7,90,304.8"/>
	</g>
	<g>
		<path class="st4" d="M86.7,298.7c1.4-1,3.4-0.8,4.4,0.6c1,1.4,0.7,3.3-0.7,4.4c-1.4,1-3.4,0.8-4.4-0.6    C84.9,301.7,85.2,299.7,86.7,298.7"/>
	</g>
	<g>
		<path class="st4" d="M86.5,291.6c1.5-1.1,3.6-0.8,4.7,0.6c1.1,1.5,0.7,3.5-0.8,4.6c-1.5,1.1-3.6,0.8-4.7-0.6    C84.7,294.8,85,292.7,86.5,291.6"/>
	</g>
	<g>
		<path class="st4" d="M93.5,297.9c1.3-1,3.2-0.7,4.2,0.6c1,1.3,0.6,3.2-0.7,4.1c-1.3,1-3.2,0.7-4.2-0.6    C91.8,300.7,92.1,298.9,93.5,297.9"/>
	</g>
	<g>
		<path class="st4" d="M95.9,303.9c1.1-0.8,2.6-0.6,3.4,0.5c0.8,1.1,0.5,2.6-0.5,3.4c-1.1,0.8-2.6,0.6-3.4-0.5    C94.5,306.2,94.8,304.7,95.9,303.9"/>
	</g>
	<g>
		<path class="st4" d="M93.8,291.7c1.3-1,3.2-0.7,4.1,0.6c0.9,1.3,0.7,3.1-0.7,4.1c-1.3,1-3.2,0.7-4.1-0.6    C92.1,294.5,92.4,292.6,93.8,291.7"/>
	</g>
	<g>
		<path class="st4" d="M100.8,301.8c1.1-0.8,2.5-0.6,3.3,0.4c0.8,1,0.5,2.5-0.6,3.3c-1.1,0.8-2.5,0.6-3.3-0.4    C99.5,304,99.7,302.6,100.8,301.8"/>
	</g>
	<g>
		<path class="st4" d="M99.5,296.5c1.1-0.8,2.6-0.6,3.4,0.5c0.8,1.1,0.5,2.6-0.6,3.4c-1.1,0.8-2.6,0.6-3.4-0.5    C98.1,298.8,98.4,297.3,99.5,296.5"/>
	</g>
	<g>
		<path class="st4" d="M99.9,290.8c1.1-0.8,2.6-0.6,3.4,0.5c0.8,1.1,0.5,2.6-0.6,3.4c-1.1,0.8-2.6,0.6-3.4-0.5    C98.6,293.1,98.9,291.6,99.9,290.8"/>
	</g>
	<g>
		<path class="st4" d="M104.2,288.7c0.9-0.7,2.2-0.5,2.9,0.4c0.7,0.9,0.5,2.2-0.5,2.9c-0.9,0.7-2.2,0.5-2.9-0.4    C103.1,290.6,103.3,289.3,104.2,288.7"/>
	</g>
	<g>
		<path class="st4" d="M104.1,294.1c0.9-0.7,2.2-0.5,2.9,0.4c0.7,0.9,0.4,2.2-0.5,2.9c-0.9,0.7-2.2,0.5-2.9-0.4    C103,296,103.2,294.8,104.1,294.1"/>
	</g>
	<g>
		<path class="st4" d="M104.9,298.9c0.9-0.7,2.2-0.5,2.9,0.4c0.7,0.9,0.4,2.2-0.5,2.9c-0.9,0.7-2.2,0.5-2.9-0.4    C103.8,300.9,104,299.6,104.9,298.9"/>
	</g>
	<g>
		<path class="st4" d="M107.9,296.5c0.7-0.5,1.7-0.4,2.2,0.3c0.5,0.7,0.3,1.6-0.3,2.2c-0.7,0.5-1.7,0.4-2.2-0.3    C107.1,298,107.2,297,107.9,296.5"/>
	</g>
	<g>
		<path class="st4" d="M107.3,291.7c0.7-0.5,1.7-0.4,2.2,0.3c0.5,0.7,0.3,1.6-0.3,2.2c-0.7,0.5-1.7,0.4-2.2-0.3    C106.4,293.1,106.6,292.2,107.3,291.7"/>
	</g>
	<g>
		<path class="st4" d="M109.8,293.8c0.6-0.4,1.4-0.3,1.8,0.3c0.4,0.6,0.3,1.3-0.3,1.8c-0.6,0.4-1.4,0.3-1.8-0.3    C109.1,295,109.2,294.2,109.8,293.8"/>
	</g>
	<g>
		<path class="st4" d="M111,291.1c0.5-0.4,1.3-0.3,1.7,0.2c0.4,0.5,0.3,1.3-0.3,1.6c-0.5,0.4-1.3,0.3-1.7-0.2    C110.4,292.2,110.5,291.4,111,291.1"/>
	</g>
	<g>
		<path class="st4" d="M109.6,288.8c0.5-0.4,1.3-0.3,1.6,0.2c0.4,0.5,0.3,1.2-0.3,1.6c-0.5,0.4-1.3,0.3-1.6-0.2    C108.9,289.9,109.1,289.2,109.6,288.8"/>
	</g>
	<g>
		<path class="st4" d="M107.5,285.8c0.7-0.5,1.7-0.4,2.2,0.3c0.5,0.7,0.3,1.6-0.3,2.2c-0.7,0.5-1.7,0.4-2.2-0.3    C106.7,287.3,106.8,286.3,107.5,285.8"/>
	</g>
	<g>
		<path class="st4" d="M111.2,285.5c0.5-0.4,1.3-0.3,1.6,0.2c0.4,0.5,0.3,1.3-0.3,1.6c-0.5,0.4-1.3,0.3-1.6-0.2    C110.6,286.6,110.7,285.9,111.2,285.5"/>
	</g>
	<g>
		<path class="st4" d="M109.5,283.2c0.6-0.4,1.3-0.3,1.7,0.2c0.4,0.6,0.3,1.3-0.3,1.7c-0.6,0.4-1.3,0.3-1.7-0.2    C108.9,284.4,109,283.6,109.5,283.2"/>
	</g>
	<g>
		<path class="st4" d="M112.1,288.1c0.4-0.3,1-0.2,1.2,0.2c0.3,0.4,0.2,0.9-0.2,1.2c-0.4,0.3-1,0.2-1.2-0.2    C111.6,289,111.7,288.4,112.1,288.1"/>
	</g>
	<g>
		<path class="st4" d="M112.1,283.3c0.4-0.3,0.9-0.2,1.1,0.2c0.3,0.4,0.2,0.9-0.2,1.1c-0.4,0.3-0.9,0.2-1.1-0.2    C111.7,284.1,111.8,283.6,112.1,283.3"/>
	</g>
	<g>
		<path class="st4" d="M111,280.6c0.5-0.4,1.2-0.3,1.5,0.2c0.4,0.5,0.2,1.2-0.2,1.5c-0.5,0.4-1.2,0.3-1.5-0.2    C110.4,281.6,110.6,281,111,280.6"/>
	</g>
	<g>
		<path class="st4" d="M111,278.4c0.3-0.2,0.8-0.2,1.1,0.2c0.2,0.3,0.2,0.8-0.2,1.1c-0.3,0.3-0.8,0.2-1.1-0.1    C110.6,279.1,110.7,278.6,111,278.4"/>
	</g>
</g>
</svg>