<svg xmlns="http://www.w3.org/2000/svg" xmlns:xlink="http://www.w3.org/1999/xlink" version="1.1" id="Layer_2_00000039134930335558501510000004546329802988467857_" x="0px" y="0px" viewBox="0 0 305 397.3" style="enable-background:new 0 0 305 397.3;" xml:space="preserve"><script xmlns="" id="eppiocemhmnlbhjplcgkofciiegomcon"/><script xmlns=""/><script xmlns=""/>
<style type="text/css">
	.st0{fill:#FFFFFF;}
	.st1{fill:#8D8E8E;}
	.st2{fill:#283271;}
	.st3{fill:url(#Plinth_00000172434143409384610500000017932122834155881151_);}
	.st4{opacity:0.4;fill:url(#p40_00000163768115384315211280000008839021644231377284_);enable-background:new    ;}
	.st5{fill:url(#Sky_x5F_Logo_00000021090364672007675130000007222050802673672606_);}
	.st6{opacity:0.25;fill:url(#s25_00000165193093300988837360000007311107201193347985_);enable-background:new    ;}
</style>
<g id="Layer_1-2">
	<path class="st0" d="M152.5,397.3C68.4,397.3,0,327.8,0,242.5c0-1,0-180.8,0-218.6V0h304.9v23.9c0,37.6,0,217.2,0,218.6   C305,327.8,236.6,397.3,152.5,397.3"/>
	<path class="st1" d="M296.3,23.9V8.6H8.7v15.3c0,38.2,0,217.6,0,218.6c0,80.6,64.5,146.1,143.9,146.1s143.9-65.5,143.9-146.1   C296.4,241.1,296.3,61.2,296.3,23.9 M152.5,380c-74.6,0-135.2-61.7-135.2-137.5c0-2.7,0-189.2,0-225.2h270.4c0,36,0,222.5,0,225.2   C287.7,318.3,227.1,380,152.5,380"/>
	<path class="st2" d="M148.3,347.9c-3.6,0-6.6-2.9-6.6-6.6v-36h25.8v9.9h-15.2v6.4h13.8v9.9h-13.8v16.4H148.3L148.3,347.9z    M108.9,341.4c0,3.6,2.9,6.6,6.6,6.6h19v-9.8h-15v-6.6h13.8v-9.9h-13.8v-6.4h15.1v-9.9h-25.7L108.9,341.4L108.9,341.4z    M197.8,347.9v-9.8h-13.2v-32.7h-10.6v36c0,3.6,2.9,6.6,6.6,6.6L197.8,347.9L197.8,347.9z"/>
	<path class="st2" d="M155,256c0,4.4-3.6,8-8,8s-8-3.6-8-8s3.6-8,8-8S155,251.5,155,256 M164.4,248.2c-3.9,0-7.1,3.2-7.1,7.2   c0,4,3.2,7.2,7.1,7.2s7.2-3.2,7.2-7.2S168.3,248.2,164.4,248.2 M163.7,264.4c-3.9,0-7,3.1-7,7s3.1,7,7,7s7-3.1,7-7   S167.6,264.4,163.7,264.4 M178.9,246.7c-3.3,0-5.9,2.7-5.9,5.9s2.7,5.9,5.9,5.9s5.9-2.7,5.9-5.9S182.1,246.7,178.9,246.7    M189.4,241.4c-2.7,0-4.9,2.2-4.9,4.9s2.2,4.9,4.9,4.9s4.9-2.2,4.9-4.9S192.1,241.4,189.4,241.4 M196.4,234.9   c-2.1,0-3.9,1.7-3.9,3.9s1.7,3.9,3.9,3.9s3.9-1.7,3.9-3.9S198.5,234.9,196.4,234.9 M196.4,249.3c-2.1,0-3.7,1.7-3.7,3.7   s1.7,3.7,3.7,3.7s3.7-1.7,3.7-3.7S198.5,249.3,196.4,249.3 M197.9,261c-2,0-3.6,1.6-3.6,3.6s1.6,3.6,3.6,3.6s3.6-1.6,3.6-3.6   S199.9,261,197.9,261 M202.2,254.8c-1.6,0-2.9,1.3-2.9,2.9s1.3,2.9,2.9,2.9s2.9-1.3,2.9-2.9S203.8,254.8,202.2,254.8 M204.7,248.3   c-1.4,0-2.6,1.2-2.6,2.6s1.2,2.6,2.6,2.6s2.6-1.2,2.6-2.6S206.1,248.3,204.7,248.3 M201.2,242.4c-1.6,0-2.8,1.3-2.8,2.8   s1.3,2.8,2.8,2.8s2.8-1.3,2.8-2.8S202.8,242.4,201.2,242.4 M205.3,234.5c-1.4,0-2.6,1.1-2.6,2.6s1.1,2.6,2.6,2.6s2.6-1.1,2.6-2.6   S206.7,234.5,205.3,234.5 M206.9,241c-1.1,0-1.9,0.9-1.9,1.9s0.9,1.9,1.9,1.9s1.9-0.9,1.9-1.9S207.9,241,206.9,241 M206.8,229   c-1,0-1.8,0.8-1.8,1.8s0.8,1.8,1.8,1.8s1.8-0.8,1.8-1.8S207.7,229,206.8,229 M201,228.2c-1.7,0-3.1,1.4-3.1,3.1s1.4,3.1,3.1,3.1   s3.1-1.4,3.1-3.1S202.7,228.2,201,228.2 M204.5,222.2c-1.3,0-2.4,1.1-2.4,2.4s1.1,2.4,2.4,2.4s2.4-1.1,2.4-2.4   S205.9,222.2,204.5,222.2 M204,216.9c-0.9,0-1.6,0.7-1.6,1.6s0.7,1.6,1.6,1.6s1.6-0.7,1.6-1.6S204.9,216.9,204,216.9 M178,260.7   c-3.2,0-5.8,2.6-5.8,5.8s2.6,5.8,5.8,5.8s5.8-2.6,5.8-5.8S181.2,260.7,178,260.7 M147.2,266.3c-4.1,0-7.4,3.3-7.4,7.4   s3.3,7.4,7.4,7.4s7.4-3.3,7.4-7.4S151.2,266.3,147.2,266.3 M155.2,281.2c-3.5,0-6.4,2.9-6.4,6.4s2.9,6.4,6.4,6.4s6.4-2.9,6.4-6.4   S158.7,281.2,155.2,281.2 M169.4,279.3c-3.3,0-5.9,2.7-5.9,5.9s2.7,5.9,5.9,5.9s5.9-2.7,5.9-5.9S172.7,279.3,169.4,279.3    M181.6,273.9c-3.1,0-5.5,2.5-5.5,5.5s2.5,5.5,5.5,5.5s5.5-2.5,5.5-5.5S184.7,273.9,181.6,273.9 M191.2,267.4   c-2.6,0-4.6,2.1-4.6,4.6s2.1,4.6,4.6,4.6s4.6-2.1,4.6-4.6S193.8,267.4,191.2,267.4 M188.8,255.2c-2.7,0-4.8,2.2-4.8,4.8   s2.2,4.8,4.8,4.8s4.8-2.2,4.8-4.8S191.5,255.2,188.8,255.2"/>
	<path class="st2" d="M171.2,225.1c-4.4,0-8,3.6-8,8s3.6,8,8,8s8-3.6,8-8S175.6,225.1,171.2,225.1 M161.9,211.2   c-3.9,0-7.2,3.2-7.2,7.2s3.2,7.2,7.2,7.2s7.2-3.2,7.2-7.2C169.1,214.4,165.9,211.2,161.9,211.2 M176.2,203.9c-3.9,0-7,3.1-7,7   s3.1,7,7,7s7-3.1,7-7S180,203.9,176.2,203.9 M152.3,201.2c-3.3,0-5.9,2.7-5.9,5.9s2.7,5.9,5.9,5.9s5.9-2.7,5.9-5.9   S155.6,201.2,152.3,201.2 M141.6,196.3c-2.7,0-4.9,2.2-4.9,4.9s2.2,4.9,4.9,4.9s4.9-2.2,4.9-4.9S144.3,196.3,141.6,196.3    M131.6,195.1c-2.1,0-3.9,1.7-3.9,3.9s1.7,3.9,3.9,3.9s3.9-1.7,3.9-3.9S133.7,195.1,131.6,195.1 M143.8,188.1   c-2.1,0-3.7,1.7-3.7,3.7s1.7,3.7,3.7,3.7s3.7-1.7,3.7-3.7S145.9,188.1,143.8,188.1 M153.1,181c-2,0-3.6,1.6-3.6,3.6   s1.6,3.6,3.6,3.6s3.6-1.6,3.6-3.6S155.2,181,153.1,181 M145,181.5c-1.6,0-2.9,1.3-2.9,2.9s1.3,2.9,2.9,2.9s2.9-1.3,2.9-2.9   C147.9,182.8,146.6,181.5,145,181.5 M137.9,183.1c-1.4,0-2.6,1.2-2.6,2.6s1.2,2.6,2.6,2.6s2.6-1.2,2.6-2.6S139.4,183.1,137.9,183.1    M134.7,188.7c-1.6,0-2.8,1.3-2.8,2.8s1.3,2.8,2.8,2.8s2.8-1.3,2.8-2.8S136.2,188.7,134.7,188.7 M125.6,189.5   c-1.4,0-2.6,1.1-2.6,2.6s1.2,2.6,2.6,2.6s2.6-1.1,2.6-2.6S127,189.5,125.6,189.5 M129.9,185.9c-1.1,0-1.9,0.9-1.9,1.9   s0.9,1.9,1.9,1.9s1.9-0.9,1.9-1.9S130.9,185.9,129.9,185.9 M119.4,192.2c-1,0-1.8,0.8-1.8,1.8s0.8,1.8,1.8,1.8s1.8-0.8,1.8-1.8   S120.4,192.2,119.4,192.2 M122.8,195.6c-1.7,0-3.1,1.4-3.1,3.1s1.4,3.1,3.1,3.1s3.1-1.4,3.1-3.1S124.5,195.6,122.8,195.6    M115.2,196.6c-1.3,0-2.4,1.1-2.4,2.4s1.1,2.4,2.4,2.4s2.4-1.1,2.4-2.4S116.5,196.6,115.2,196.6 M110.2,200.9   c-0.9,0-1.6,0.7-1.6,1.6s0.7,1.6,1.6,1.6s1.6-0.7,1.6-1.6S111.1,200.9,110.2,200.9 M164.8,195.2c-3.2,0-5.8,2.6-5.8,5.8   s2.6,5.8,5.8,5.8s5.8-2.6,5.8-5.8S168,195.2,164.8,195.2 M186.4,216.7c-4.1,0-7.4,3.3-7.4,7.4s3.3,7.4,7.4,7.4s7.4-3.3,7.4-7.4   S190.4,216.7,186.4,216.7 M194.4,203.8c-3.5,0-6.4,2.9-6.4,6.4s2.9,6.4,6.4,6.4s6.4-2.9,6.4-6.4S197.9,203.8,194.4,203.8    M185.3,193.1c-3.3,0-5.9,2.7-5.9,5.9s2.7,5.9,5.9,5.9s5.9-2.7,5.9-5.9S188.5,193.1,185.3,193.1 M174.1,185.9   c-3.1,0-5.5,2.5-5.5,5.5s2.5,5.5,5.5,5.5s5.5-2.5,5.5-5.5C179.6,188.4,177.2,185.9,174.1,185.9 M163,182.2c-2.6,0-4.6,2.1-4.6,4.6   s2.1,4.6,4.6,4.6s4.6-2.1,4.6-4.6S165.5,182.2,163,182.2 M153.7,190c-2.7,0-4.8,2.2-4.8,4.8s2.2,4.8,4.8,4.8s4.8-2.2,4.8-4.8   S156.4,190,153.7,190"/>
	<path class="st1" d="M139.3,215.6c-4.4,0-8,3.6-8,8s3.6,8,8,8s8-3.6,8-8S143.7,215.6,139.3,215.6 M131.1,231.8   c-3.9,0-7.2,3.2-7.2,7.2s3.2,7.2,7.2,7.2s7.2-3.2,7.2-7.2S135.1,231.8,131.1,231.8 M117.5,223.4c-3.9,0-7,3.1-7,7s3.1,7,7,7   s7-3.1,7-7S121.4,223.4,117.5,223.4 M126.2,246.9c-3.3,0-5.9,2.6-5.9,5.9s2.7,5.9,5.9,5.9c3.3,0,5.9-2.7,5.9-5.9   S129.5,246.9,126.2,246.9 M126.4,260.3c-2.7,0-4.9,2.2-4.9,4.9s2.2,4.9,4.9,4.9s4.9-2.2,4.9-4.9S129.1,260.3,126.4,260.3    M129.5,271.1c-2.1,0-3.9,1.7-3.9,3.9c0,2.1,1.7,3.9,3.9,3.9s3.9-1.7,3.9-3.9C133.3,272.8,131.6,271.1,129.5,271.1 M117.1,264.2   c-2.1,0-3.7,1.7-3.7,3.7s1.7,3.7,3.7,3.7s3.7-1.7,3.7-3.7S119.2,264.2,117.1,264.2 M106.3,259.7c-2,0-3.7,1.6-3.7,3.6   s1.6,3.6,3.7,3.6s3.7-1.6,3.7-3.6S108.3,259.7,106.3,259.7 M110.2,267.7c-1.6,0-2.9,1.3-2.9,2.9s1.3,2.9,2.9,2.9s2.9-1.3,2.9-2.9   S111.8,267.7,110.2,267.7 M114.8,273.4c-1.4,0-2.6,1.2-2.6,2.6c0,1.5,1.2,2.6,2.6,2.6s2.6-1.2,2.6-2.6   C117.4,274.6,116.2,273.4,114.8,273.4 M121.5,273.2c-1.6,0-2.8,1.3-2.8,2.8s1.3,2.8,2.8,2.8s2.8-1.3,2.8-2.8S123,273.2,121.5,273.2    M126.5,281c-1.4,0-2.6,1.1-2.6,2.6s1.2,2.6,2.6,2.6c1.4,0,2.6-1.1,2.6-2.6S127.9,281,126.5,281 M120.7,280c-1.1,0-1.9,0.9-1.9,1.9   c0,1.1,0.9,1.9,1.9,1.9s1.9-0.9,1.9-1.9S121.7,280,120.7,280 M131.2,286.2c-1,0-1.8,0.8-1.8,1.8s0.8,1.8,1.8,1.8s1.8-0.8,1.8-1.8   S132.2,286.2,131.2,286.2 M133.6,279.6c-1.7,0-3.1,1.4-3.1,3.1s1.4,3.1,3.1,3.1s3.1-1.4,3.1-3.1S135.3,279.6,133.6,279.6    M137.6,286.7c-1.3,0-2.4,1.1-2.4,2.4s1.1,2.4,2.4,2.4s2.4-1.1,2.4-2.4S139,286.7,137.6,286.7 M143.2,290.1c-0.9,0-1.6,0.7-1.6,1.6   s0.7,1.6,1.6,1.6s1.6-0.7,1.6-1.6S144.1,290.1,143.2,290.1 M114.6,239.3c-3.2,0-5.8,2.6-5.8,5.8s2.6,5.8,5.8,5.8s5.8-2.6,5.8-5.8   S117.8,239.3,114.6,239.3 M123.8,207.5c-4.1,0-7.4,3.3-7.4,7.4s3.3,7.4,7.4,7.4s7.4-3.3,7.4-7.4S127.8,207.5,123.8,207.5    M107.7,208.5c-3.5,0-6.4,2.9-6.4,6.4s2.9,6.4,6.4,6.4s6.4-2.9,6.4-6.4S111.3,208.5,107.7,208.5 M102.7,222.4   c-3.3,0-5.9,2.7-5.9,5.9s2.7,5.9,5.9,5.9s5.9-2.7,5.9-5.9S106,222.4,102.7,222.4 M101.6,236.4c-3.1,0-5.5,2.5-5.5,5.5   s2.5,5.5,5.5,5.5s5.5-2.5,5.5-5.5S104.7,236.4,101.6,236.4 M103.2,249.2c-2.6,0-4.6,2.1-4.6,4.6c0,2.5,2.1,4.6,4.6,4.6   s4.6-2.1,4.6-4.6S105.7,249.2,103.2,249.2 M114.8,253c-2.7,0-4.8,2.2-4.8,4.8c0,2.7,2.2,4.8,4.8,4.8c2.7,0,4.8-2.2,4.8-4.8   S117.5,253,114.8,253"/>
	<path class="st1" d="M30.2,161.6c0,1,0.8,1.9,1.9,1.9h240.8c1,0,1.9-0.9,1.9-1.9s-0.9-1.9-1.9-1.9H32.1   C31,159.7,30.2,160.5,30.2,161.6"/>
	<path class="st1" d="M55.7,144.5l-0.7,3.2c-0.2,0.8-0.6,1-1.2,1H42.9c-3.1,0-4.9-1.6-4.9-5.1V118c0-0.7,0.3-0.9,1.2-0.9h3.8   c0.9,0,1.2,0.2,1.2,0.9v25.5h10.5C55.5,143.5,55.9,143.7,55.7,144.5"/>
	<path class="st1" d="M76.6,144.2l-0.4,3.7c0,0.5-0.2,0.7-0.8,0.7h-12c-3.1,0-4.9-1.6-4.9-5.1V118c0-0.6,0.2-0.9,0.9-0.9h16.4   c0.5,0,0.8,0.2,0.7,0.7l-0.4,3.7c0,0.5-0.3,0.7-0.8,0.7H64.9v7.9h9.6c0.6,0,0.7,0.2,0.7,0.7l-0.4,3.7c0,0.4-0.3,0.6-0.8,0.6h-9.1   v8.3h11.1C76.5,143.5,76.7,143.7,76.6,144.2"/>
	<path class="st1" d="M79.2,147.9c2.8-10.7,5.5-21.2,8.2-29.6c0.2-0.8,0.8-1.2,1.7-1.2h5.3c1.1,0,1.5,0.4,1.8,1.2   c2.6,8.3,5.5,18.9,8.3,29.6c0.1,0.5-0.1,0.7-0.7,0.7H99c-0.7,0-1.1-0.3-1.1-0.7l-1.2-5.5H87c-0.4,1.9-0.8,3.7-1.2,5.6   c-0.1,0.4-0.4,0.6-1,0.6h-5C79.2,148.6,79,148.4,79.2,147.9 M95.5,137.5c-0.9-4.7-2.3-10.4-3.6-15.2h-0.3   c-1.2,4.8-2.7,10.5-3.5,15.2H95.5L95.5,137.5z"/>
	<path class="st1" d="M122.2,136.2c-2.7,0-4.1-1.5-4.1-4.1v-0.3c0-0.5,0.2-0.8,0.7-0.8h9.3c0.5,0,0.8,0.2,0.8,0.7v13.7   c0,1.1-0.3,1.7-1.1,2c-2.2,1-5.9,1.6-9.3,1.6c-8.2,0-11.9-3.3-11.9-10.6v-10.8c0-7.8,4.3-11,12.6-11c2.8,0,5.7,0.4,7.6,0.9   c0.6,0.2,0.8,0.4,0.8,1.1v3.6c0,0.6-0.4,0.7-1,0.5c-1.8-0.5-4.4-0.8-6.9-0.8c-4,0-6.8,1.3-6.8,6.3v9.5c0,2.4,0.4,3.7,1.2,4.7   c0.7,0.9,2.2,1.4,4.4,1.4c1.6,0,3.5-0.2,4.4-0.5v-7.1L122.2,136.2L122.2,136.2z"/>
	<path class="st1" d="M136.8,146.6c-1.9-1.7-2.8-4.5-2.8-8.3v-20.5c0-0.4,0.2-0.7,0.7-0.7h4.9c0.5,0,0.7,0.2,0.7,0.7v19.9   c0,1.9,0.2,3.6,1.1,4.6c0.7,0.9,2,1.5,3.7,1.5s3-0.5,3.8-1.5c0.9-1.1,1-2.7,1-4.6v-19.9c0-0.4,0.3-0.7,0.8-0.7h4.9   c0.5,0,0.7,0.3,0.7,0.7v20.5c0,3.9-1,6.7-3.1,8.4c-1.9,1.6-4.5,2.4-8.1,2.4C141.4,149.1,138.6,148.3,136.8,146.6"/>
	<path class="st1" d="M179.8,144.2l-0.4,3.7c0,0.5-0.2,0.7-0.8,0.7h-12c-3.1,0-4.9-1.6-4.9-5.1V118c0-0.6,0.2-0.9,0.9-0.9H179   c0.5,0,0.8,0.2,0.7,0.7l-0.4,3.7c0,0.5-0.3,0.7-0.8,0.7h-10.4v7.9h9.6c0.6,0,0.7,0.2,0.7,0.7l-0.4,3.7c0,0.4-0.3,0.6-0.8,0.6h-9.1   v8.3h11.1C179.6,143.5,179.8,143.7,179.8,144.2"/>
	<path class="st1" d="M196,146.4c-2-1.7-3.1-4.4-3.1-7.9v-11.4c0-4,1.5-6.8,4.1-8.6c1.9-1.3,4.5-1.9,7.5-1.9s5.8,0.7,7.8,2.1   c2.4,1.7,3.8,4.5,3.8,8.4v11.4c0,3.9-1.3,6.6-3.8,8.4c-1.9,1.4-4.6,2.1-7.9,2.1C201,149.1,198,148.2,196,146.4 M208.3,142.6   c1-1,1.5-2.7,1.5-4.7v-10.1c0-2.3-0.6-3.7-1.5-4.7c-0.8-0.8-2.1-1.2-3.7-1.2s-2.9,0.4-3.8,1.2c-1,1-1.5,2.4-1.5,4.7v10.1   c0,2,0.5,3.7,1.5,4.7c0.8,0.8,2.2,1.2,3.8,1.2S207.5,143.4,208.3,142.6"/>
	<path class="st1" d="M243.3,117.8v30.2c0,0.4-0.3,0.7-0.8,0.7h-3.2c-0.9,0-1.3-0.4-1.6-0.9l-11.2-19.5h-0.2v19.6   c0,0.5-0.2,0.7-0.8,0.7h-0.3c-2.9,0-4.5-1.6-4.5-5.1v-25.7c0-0.4,0.2-0.7,0.6-0.7h3.6c0.7,0,1.1,0.3,1.4,0.8l11.2,19.2h0.2v-19.4   c0-0.5,0.2-0.7,0.6-0.7h4.2C243.1,117.1,243.3,117.3,243.3,117.8"/>
	<path class="st1" d="M267,144.2l-0.4,3.7c0,0.5-0.2,0.7-0.8,0.7h-12c-3.1,0-4.9-1.6-4.9-5.1V118c0-0.6,0.2-0.9,0.9-0.9h16.4   c0.5,0,0.8,0.2,0.7,0.7l-0.4,3.7c0,0.5-0.3,0.7-0.8,0.7h-10.4v7.9h9.6c0.6,0,0.7,0.2,0.7,0.7l-0.4,3.7c0,0.4-0.3,0.6-0.8,0.6h-9.1   v8.3h11C266.8,143.5,267,143.7,267,144.2"/>
</g>
<g>
	
		<linearGradient id="Plinth_00000166664492710599930030000005865510388625304734_" gradientUnits="userSpaceOnUse" x1="209.9186" y1="220.7841" x2="209.9186" y2="292.9255" gradientTransform="matrix(1 0 0 1 0 -189.8898)">
		<stop offset="0.4" style="stop-color:#FF0000"/>
		<stop offset="1" style="stop-color:#D42321"/>
	</linearGradient>
	<path id="Plinth" style="fill:url(#Plinth_00000166664492710599930030000005865510388625304734_);" d="M269.6,30.9H150.2   c-2.6,0-4.8,2.2-4.8,4.8v62.5c0,2.6,2.2,4.8,4.8,4.8h119.4c2.6,0,4.8-2.2,4.8-4.8V35.7C274.4,33.1,272.3,30.9,269.6,30.9z"/>
	
		<linearGradient id="p40_00000130624119087897561500000010672902260737015193_" gradientUnits="userSpaceOnUse" x1="210.3623" y1="255.5749" x2="209.1075" y2="219.6426" gradientTransform="matrix(1 0 0 1 0 -189.8898)">
		<stop offset="0" style="stop-color:#FFFFFF"/>
		<stop offset="1" style="stop-color:#FFFFFF;stop-opacity:0.25"/>
	</linearGradient>
	
		<path id="p40" style="opacity:0.4;fill:url(#p40_00000130624119087897561500000010672902260737015193_);enable-background:new    ;" d="   M148.9,66.7c0,0,0.2,0,0.4,0c14.2-0.5,121.5-4.2,121.5-4.2c1.8-0.1,3.6-1.4,3.6-3.7V35.7c0-2.6-2.2-4.8-4.8-4.8H150.2   c-2.6,0-4.8,2.2-4.8,4.8v34.7C145.4,70.1,145.5,67,148.9,66.7z"/>
	
		<linearGradient id="Sky_x5F_Logo_00000139278532409082839200000014821619301377081744_" gradientUnits="userSpaceOnUse" x1="82.3684" y1="224.9367" x2="82.3684" y2="288.7762" gradientTransform="matrix(1 0 0 1 0 -189.8898)">
		<stop offset="0" style="stop-color:#002A91"/>
		<stop offset="0.8" style="stop-color:#002672"/>
	</linearGradient>
	<path id="Sky_x5F_Logo" style="fill:url(#Sky_x5F_Logo_00000139278532409082839200000014821619301377081744_);" d="M102.3,97.9   c0.9,0.4,2.6,1,4.8,1c3.8,0.1,5.8-1.3,7.3-4.7l20.2-45c-0.8-0.4-2.7-0.9-4.2-1c-2.6,0-6.1,0.5-8.3,5.8l-6.6,15.4l-12.8-20.8   c-0.8-0.2-2.8-0.6-4.3-0.6c-4.6,0-7.1,1.7-9.7,4.5L76.2,66.1l10,15.8c1.9,2.9,4.3,4.4,8.3,4.4c2.6,0,4.8-0.6,5.8-1.1L88.2,67   l8.5-9.1l14,22L102.3,97.9z M75.8,80.8c0,3.3-1.3,5.2-7.8,5.2c-0.9,0-1.6,0-2.3-0.2v-44c0-3.3,1.1-6.8,7.7-6.8   c0.8,0,1.7,0.1,2.4,0.2L75.8,80.8L75.8,80.8z M62.4,74.2c0,6.2-4,10.7-12.3,11.6c-5.9,0.7-14.6-0.1-18.7-0.6   c-0.1-0.7-0.2-1.5-0.2-2.2c0-5.4,2.9-6.6,5.7-6.6c2.8,0,7.3,0.5,10.7,0.5c3.7,0,4.8-1.3,4.8-2.4c0-1.5-1.5-2.2-4.3-2.7l-7.8-1.5   c-6.5-1.2-10-5.7-10-10.5c0-5.8,4.1-10.6,12.2-11.5c6.1-0.7,13.5,0.1,17.6,0.6c0.1,0.7,0.2,1.3,0.2,2.1c0,5.4-2.8,6.6-5.6,6.6   c-2.1,0-5.4-0.4-9.1-0.4c-3.8,0-5.4,1.1-5.4,2.3c0,1.3,1.5,1.9,3.9,2.3l7.5,1.4C59.1,64.5,62.4,68.8,62.4,74.2z"/>
	
		<linearGradient id="s25_00000092440150866828467240000003315091455665789321_" gradientUnits="userSpaceOnUse" x1="82.9098" y1="258.7584" x2="82.0658" y2="234.5927" gradientTransform="matrix(1 0 0 1 0 -189.8898)">
		<stop offset="0" style="stop-color:#FFFFFF"/>
		<stop offset="1" style="stop-color:#FFFFFF;stop-opacity:0.25"/>
	</linearGradient>
	
		<path id="s25_11_" style="opacity:0.25;fill:url(#s25_00000092440150866828467240000003315091455665789321_);enable-background:new    ;" d="   M134.6,49.1l-7.4,16.5c-0.2,0.4-1.1,1.9-3.1,1.9c-0.5,0-6.8,0.2-6.8,0.2c-1.2,0-1.6,1.2-1.6,1.2l0,0l6.4-15.1   c2.2-5.3,5.7-5.8,8.3-5.8C131.9,48.2,133.8,48.7,134.6,49.1z M115.2,68.8l-12.5-20.3c-0.8-0.2-2.8-0.6-4.3-0.6   c-4.6,0-7.1,1.7-9.7,4.5L76.2,66l1,1.5c0.4,0.6,1.3,1.5,3,1.5c0.6,0,6.6-0.2,7.1-0.2c1.5,0,2.6,0.6,3.1,1.4l0,0l-2.2-3.3l8.5-9.1   l5.7,9l0,0c1.1,1.3,2.6,1.4,2.9,1.4c0.3,0,7.9-0.3,8.2-0.3C114.2,67.9,114.8,68.2,115.2,68.8z M73.3,35c-6.6,0-7.7,3.5-7.7,6.8   v30.2c0-1.2,0.9-2.5,2.5-2.6c1.1,0,4.2-0.2,5-0.2c1,0,2.5-0.7,2.6-2.6V35.3C75,35.1,74.1,35,73.3,35z M51.4,63.1L44,61.7   c-2.4-0.4-3.9-1-3.9-2.3c0-1.3,1.6-2.3,5.4-2.3c3.7,0,7,0.4,9.1,0.4c2.7,0,5.6-1.2,5.6-6.6c0-0.7-0.1-1.4-0.2-2.1   c-4.1-0.5-11.5-1.3-17.6-0.6c-8.1,0.9-12.2,5.7-12.2,11.5c0,3,1.3,5.8,3.9,7.9c2,1.3,3.9,1.8,6,2.2c1.7,0.3,5.5,0.5,8.3,0.4   c0.9,0,7.5-0.2,8.9-0.3c3.3-0.1,5.1,2.7,5,5.6c0,0,0-0.1,0-0.1v0c0-0.4,0-0.7,0-1.1C62.4,68.8,59.1,64.5,51.4,63.1z"/>
	<path class="st0" d="M194.8,67.4c0,11.1-7.8,17.7-16.4,17.7c-5.1,0-9.3-2.4-11.8-5.8v3.3c0,1.4-0.8,2.2-3.1,2.2   c-1,0-2.1-0.2-2.7-0.3V40.4c0-1.3,0.8-2.2,3.1-2.2c1,0,2.1,0.2,2.7,0.3v17.1c2.5-3.4,6.6-5.8,11.8-5.8   C187,49.7,194.8,56.3,194.8,67.4z M188.9,67.4c0-7.5-5-12.5-11.6-12.5c-4.5,0-8.7,2.6-10.6,6.4v12.3c1.9,3.8,6.1,6.4,10.6,6.4   C184,80,188.9,74.9,188.9,67.4z M232.6,69.5h-26.3c0.8,6.6,5.3,10.3,12.1,10.3c2.9,0,5.2-0.6,7.3-1.3c1.5-0.5,2.1-0.7,2.7-0.7   c1.6,0,2.7,1.3,2.4,4.5c-3.1,1.3-7.7,2.8-12.6,2.8c-10.6,0-17.8-7.2-17.8-17.8c0-10.2,7.6-17.5,16.9-17.5   c10.5,0,15.6,8.1,15.6,16.4C232.8,67.1,232.7,68.3,232.6,69.5z M206.2,65h20.9c-0.2-5.8-3.9-10.3-10-10.3   C211.9,54.6,207.1,58.2,206.2,65z M260.4,82.7c-3,1.4-6.4,2.3-9.8,2.3c-6.7,0-10.8-3.9-10.8-10.5V45.2c0-1.5,0.9-2.5,3.1-2.5   c1,0,2.1,0.2,2.7,0.4v7.4h13.2c0.1,0.5,0.2,1.5,0.2,2.3c0,2.1-0.9,2.8-2.1,2.8h-11.3V74c0,3.9,1.8,5.9,5.6,5.9   c3.4,0,5.3-1.5,6.9-1.5C259.9,78.5,260.7,79.9,260.4,82.7z"/>
</g>
</svg>