<svg xmlns="http://www.w3.org/2000/svg" xmlns:xlink="http://www.w3.org/1999/xlink" version="1.1" id="Layer_2_00000062169451091882338230000014558434260793768349_" x="0px" y="0px" viewBox="0 0 305 397.3" style="enable-background:new 0 0 305 397.3;" xml:space="preserve"><script xmlns="" id="eppiocemhmnlbhjplcgkofciiegomcon"/><script xmlns=""/><script xmlns=""/>
<style type="text/css">
	.st0{fill:#FFFFFF;}
	.st1{fill:#BB1731;}
	.st2{fill:#283271;}
	.st3{clip-path:url(#SVGID_00000034053408742159823260000008023745998302254981_);}
	.st4{fill:url(#SVGID_00000139280558243890691480000016908362854289773465_);}
	.st5{fill:url(#Plinth_00000110455051161286796470000008496238668553463735_);}
	.st6{opacity:0.4;fill:url(#p40_00000008132186519803672500000001477968460404643973_);enable-background:new    ;}
	.st7{fill:url(#Sky_x5F_Logo_00000127015441251909153760000008545767592014613381_);}
	.st8{opacity:0.25;fill:url(#s25_00000159471817044682157610000013246907957629856903_);enable-background:new    ;}
</style>
<g id="Layer_1-2">
	<path class="st0" d="M152.5,397.3C68.4,397.3,0,327.8,0,242.5c0-1,0-180.8,0-218.6V0h304.9v23.9c0,37.6,0,217.2,0,218.6   C305,327.8,236.6,397.3,152.5,397.3"/>
	<path class="st1" d="M296.3,23.9V8.6H8.7v15.3c0,38.2,0,217.6,0,218.6c0,80.6,64.5,146.1,143.9,146.1s143.9-65.5,143.9-146.1   C296.4,241.1,296.3,61.2,296.3,23.9 M152.5,380c-74.6,0-135.2-61.7-135.2-137.5c0-2.7,0-189.2,0-225.2h270.4c0,36,0,222.5,0,225.2   C287.7,318.3,227.1,380,152.5,380"/>
	<path class="st2" d="M148.3,347.9c-3.6,0-6.6-2.9-6.6-6.6v-36h25.8v9.9h-15.2v6.4h13.8v9.9h-13.8v16.4H148.3L148.3,347.9z    M108.8,341.3c0,3.6,2.9,6.6,6.6,6.6h19v-9.8h-15v-6.6h13.8v-9.9h-13.8v-6.4h15.1v-9.9h-25.7V341.3L108.8,341.3z M197.8,347.9v-9.8   h-13.2v-32.7H174v36c0,3.6,2.9,6.6,6.6,6.6H197.8L197.8,347.9z"/>
	<path class="st2" d="M171.2,224.8c-4.4,0-8,3.6-8,8s3.6,8,8,8s8-3.6,8-8S175.6,224.8,171.2,224.8"/>
	<path class="st2" d="M162,210.9c-4,0-7.2,3.2-7.2,7.2s3.2,7.2,7.2,7.2s7.2-3.2,7.2-7.2C169.1,214.1,165.9,210.9,162,210.9"/>
	<path class="st2" d="M176.2,203.5c-3.9,0-7,3.1-7,7s3.1,7,7,7s7-3.1,7-7S180.1,203.5,176.2,203.5"/>
	<path class="st2" d="M152.3,200.9c-3.3,0-5.9,2.7-5.9,5.9s2.7,5.9,5.9,5.9s5.9-2.7,5.9-5.9S155.6,200.9,152.3,200.9"/>
	<path class="st2" d="M141.5,195.9c-2.7,0-4.9,2.2-4.9,4.9s2.2,4.9,4.9,4.9s4.9-2.2,4.9-4.9S144.2,195.9,141.5,195.9"/>
	<path class="st2" d="M131.5,194.7c-2.1,0-3.9,1.7-3.9,3.9s1.7,3.9,3.9,3.9s3.9-1.7,3.9-3.9S133.6,194.7,131.5,194.7"/>
	<path class="st2" d="M143.8,187.7c-2.1,0-3.7,1.7-3.7,3.7s1.7,3.7,3.7,3.7s3.7-1.7,3.7-3.7S145.9,187.7,143.8,187.7"/>
	<path class="st2" d="M153.1,180.6c-2,0-3.7,1.6-3.7,3.7s1.6,3.7,3.7,3.7s3.7-1.6,3.7-3.7S155.2,180.6,153.1,180.6"/>
	<path class="st2" d="M145,181.1c-1.6,0-2.9,1.3-2.9,2.9s1.3,2.9,2.9,2.9s2.9-1.3,2.9-2.9S146.6,181.1,145,181.1"/>
	<path class="st2" d="M137.9,182.6c-1.4,0-2.6,1.2-2.6,2.6s1.2,2.6,2.6,2.6s2.6-1.2,2.6-2.6S139.3,182.6,137.9,182.6"/>
	<path class="st2" d="M134.6,188.4c-1.6,0-2.8,1.3-2.8,2.8s1.3,2.8,2.8,2.8s2.8-1.3,2.8-2.8S136.2,188.4,134.6,188.4"/>
	<path class="st2" d="M125.5,189.1c-1.4,0-2.6,1.2-2.6,2.6s1.2,2.6,2.6,2.6s2.6-1.2,2.6-2.6S127,189.1,125.5,189.1"/>
	<path class="st2" d="M129.8,185.5c-1.1,0-1.9,0.9-1.9,1.9s0.9,1.9,1.9,1.9s1.9-0.9,1.9-1.9S130.9,185.5,129.8,185.5"/>
	<path class="st2" d="M119.3,191.8c-1,0-1.8,0.8-1.8,1.8c0,1,0.8,1.8,1.8,1.8s1.8-0.8,1.8-1.8S120.3,191.8,119.3,191.8"/>
	<path class="st2" d="M122.7,195.2c-1.7,0-3.1,1.4-3.1,3.1s1.4,3.1,3.1,3.1s3.1-1.4,3.1-3.1S124.4,195.2,122.7,195.2"/>
	<path class="st2" d="M115.1,196.2c-1.3,0-2.4,1.1-2.4,2.4s1.1,2.4,2.4,2.4s2.4-1.1,2.4-2.4S116.4,196.2,115.1,196.2"/>
	<path class="st2" d="M110.1,200.5c-0.9,0-1.6,0.7-1.6,1.6s0.7,1.6,1.6,1.6s1.6-0.7,1.6-1.6S111,200.5,110.1,200.5"/>
	<path class="st2" d="M164.8,194.8c-3.2,0-5.9,2.6-5.9,5.9s2.6,5.9,5.9,5.9c3.2,0,5.9-2.6,5.9-5.9S168.1,194.8,164.8,194.8"/>
	<path class="st2" d="M186.5,216.4c-4.1,0-7.4,3.3-7.4,7.4s3.3,7.4,7.4,7.4s7.4-3.3,7.4-7.4S190.6,216.4,186.5,216.4"/>
	<path class="st2" d="M194.5,203.5c-3.5,0-6.4,2.9-6.4,6.4s2.9,6.4,6.4,6.4s6.4-2.9,6.4-6.4S198.1,203.5,194.5,203.5"/>
	<path class="st2" d="M185.4,192.8c-3.3,0-6,2.7-6,6s2.7,6,6,6s6-2.7,6-6S188.7,192.8,185.4,192.8"/>
	<path class="st2" d="M174.1,185.5c-3.1,0-5.5,2.5-5.5,5.5s2.5,5.5,5.5,5.5s5.5-2.5,5.5-5.5S177.2,185.5,174.1,185.5"/>
	<path class="st2" d="M163,181.7c-2.6,0-4.6,2.1-4.6,4.6s2.1,4.6,4.6,4.6s4.6-2.1,4.6-4.6S165.6,181.7,163,181.7"/>
	<path class="st2" d="M153.7,189.6c-2.7,0-4.9,2.2-4.9,4.9s2.2,4.9,4.9,4.9s4.9-2.2,4.9-4.9S156.4,189.6,153.7,189.6"/>
	<path class="st1" d="M155,255.8c0,4.4-3.6,8-8,8s-8-3.6-8-8s3.6-8,8-8S155,251.3,155,255.8"/>
	<path class="st1" d="M164.4,248c-4,0-7.2,3.2-7.2,7.2s3.2,7.2,7.2,7.2s7.2-3.2,7.2-7.2S168.3,248,164.4,248"/>
	<path class="st1" d="M163.7,264.3c-3.9,0-7,3.1-7,7s3.1,7,7,7s7-3.1,7-7S167.6,264.3,163.7,264.3"/>
	<path class="st1" d="M178.9,246.5c-3.3,0-5.9,2.7-5.9,5.9s2.7,6,5.9,6s5.9-2.7,5.9-5.9S182.2,246.5,178.9,246.5"/>
	<path class="st1" d="M189.5,241.2c-2.7,0-4.9,2.2-4.9,4.9s2.2,4.9,4.9,4.9s4.9-2.2,4.9-4.9S192.2,241.2,189.5,241.2"/>
	<path class="st1" d="M196.4,234.6c-2.1,0-3.9,1.7-3.9,3.9s1.7,3.9,3.9,3.9s3.9-1.7,3.9-3.9S198.6,234.6,196.4,234.6"/>
	<path class="st1" d="M196.5,249.1c-2.1,0-3.7,1.7-3.7,3.7s1.7,3.7,3.7,3.7s3.7-1.7,3.7-3.7S198.6,249,196.5,249.1"/>
	<path class="st1" d="M198,260.8c-2,0-3.7,1.6-3.7,3.7s1.6,3.7,3.7,3.7s3.7-1.6,3.7-3.7S200,260.8,198,260.8"/>
	<path class="st1" d="M202.3,254.6c-1.6,0-2.9,1.3-2.9,2.9c0,1.6,1.3,2.9,2.9,2.9s2.9-1.3,2.9-2.9S203.9,254.6,202.3,254.6"/>
	<path class="st1" d="M204.8,248.1c-1.4,0-2.6,1.2-2.6,2.6s1.2,2.6,2.6,2.6s2.6-1.2,2.6-2.6S206.2,248.1,204.8,248.1"/>
	<path class="st1" d="M201.3,242.1c-1.6,0-2.8,1.3-2.8,2.8s1.3,2.8,2.8,2.8s2.8-1.3,2.8-2.8S202.9,242.1,201.3,242.1"/>
	<path class="st1" d="M205.4,234.2c-1.4,0-2.6,1.2-2.6,2.6s1.1,2.6,2.6,2.6s2.6-1.2,2.6-2.6S206.8,234.2,205.4,234.2"/>
	<path class="st1" d="M207,240.7c-1.1,0-1.9,0.9-1.9,1.9s0.9,1.9,1.9,1.9s1.9-0.9,1.9-1.9S208.1,240.7,207,240.7"/>
	<path class="st1" d="M206.9,228.7c-1,0-1.8,0.8-1.8,1.8s0.8,1.8,1.8,1.8s1.8-0.8,1.8-1.8S207.9,228.7,206.9,228.7"/>
	<path class="st1" d="M201.1,227.9c-1.7,0-3.1,1.4-3.1,3.1s1.4,3.1,3.1,3.1s3.1-1.4,3.1-3.1S202.8,227.9,201.1,227.9"/>
	<path class="st1" d="M204.7,221.9c-1.3,0-2.4,1.1-2.4,2.4s1.1,2.4,2.4,2.4s2.4-1.1,2.4-2.4S206,221.9,204.7,221.9"/>
	<path class="st1" d="M204.1,216.6c-0.9,0-1.6,0.7-1.6,1.6s0.7,1.6,1.6,1.6s1.6-0.7,1.6-1.6S205,216.6,204.1,216.6"/>
	<path class="st1" d="M178,260.5c-3.2,0-5.9,2.6-5.9,5.9s2.6,5.9,5.9,5.9s5.9-2.6,5.9-5.9S181.2,260.5,178,260.5"/>
	<path class="st1" d="M147.1,266.2c-4.1,0-7.4,3.3-7.4,7.4s3.3,7.4,7.4,7.4s7.4-3.3,7.4-7.4S151.2,266.2,147.1,266.2"/>
	<path class="st1" d="M155.2,281.1c-3.5,0-6.4,2.9-6.4,6.4s2.9,6.4,6.4,6.4s6.4-2.9,6.4-6.4S158.7,281.1,155.2,281.1"/>
	<path class="st1" d="M169.4,279.1c-3.3,0-6,2.7-6,6s2.7,6,6,6s6-2.7,6-6S172.7,279.1,169.4,279.1"/>
	<path class="st1" d="M181.7,273.7c-3.1,0-5.5,2.5-5.5,5.5s2.5,5.5,5.5,5.5s5.5-2.5,5.5-5.5S184.8,273.7,181.7,273.7"/>
	<path class="st1" d="M191.3,267.3c-2.6,0-4.6,2.1-4.6,4.6s2.1,4.6,4.6,4.6s4.6-2.1,4.6-4.6S193.9,267.3,191.3,267.3"/>
	<path class="st1" d="M188.9,255c-2.7,0-4.9,2.2-4.9,4.8s2.2,4.9,4.9,4.9s4.9-2.2,4.9-4.9S191.6,255,188.9,255"/>
	<path class="st2" d="M139.2,215.2c-4.4,0-8,3.6-8,8s3.6,8,8,8s8-3.6,8-8S143.7,215.2,139.2,215.2 M131,231.5c-4,0-7.2,3.2-7.2,7.2   s3.2,7.2,7.2,7.2s7.2-3.2,7.2-7.2S135,231.5,131,231.5 M117.4,223.1c-3.9,0-7,3.1-7,7s3.1,7,7,7s7-3.1,7-7S121.3,223.1,117.4,223.1    M126.2,246.7c-3.3,0-5.9,2.7-5.9,5.9s2.7,5.9,5.9,5.9c3.3,0,6-2.7,6-5.9S129.4,246.7,126.2,246.7 M126.4,260.1   c-2.7,0-4.9,2.2-4.9,4.9s2.2,4.9,4.9,4.9s4.9-2.2,4.9-4.9S129.1,260.1,126.4,260.1 M129.4,270.9c-2.2,0-3.9,1.7-3.9,3.9   s1.7,3.9,3.9,3.9c2.2,0,3.9-1.7,3.9-3.9S131.5,270.9,129.4,270.9 M117,264c-2.1,0-3.7,1.7-3.7,3.7c0,2,1.7,3.7,3.7,3.7   s3.7-1.7,3.7-3.7S119.1,264,117,264 M106.2,259.6c-2,0-3.7,1.6-3.7,3.7s1.6,3.7,3.7,3.7s3.7-1.6,3.7-3.7S108.2,259.6,106.2,259.6    M110.1,267.6c-1.6,0-2.9,1.3-2.9,2.9s1.3,2.9,2.9,2.9s2.9-1.3,2.9-2.9S111.7,267.6,110.1,267.6 M114.7,273.3   c-1.4,0-2.6,1.2-2.6,2.6s1.2,2.6,2.6,2.6s2.6-1.2,2.6-2.6S116.1,273.3,114.7,273.3 M121.4,273c-1.6,0-2.8,1.3-2.8,2.8   s1.3,2.8,2.8,2.8s2.8-1.3,2.8-2.8S123,273,121.4,273 M126.4,280.9c-1.4,0-2.6,1.1-2.6,2.6s1.2,2.6,2.6,2.6c1.4,0,2.6-1.2,2.6-2.6   S127.8,280.9,126.4,280.9 M120.6,279.9c-1.1,0-1.9,0.9-1.9,1.9s0.9,1.9,1.9,1.9s1.9-0.9,1.9-1.9S121.7,279.9,120.6,279.9    M131.2,286.1c-1,0-1.8,0.8-1.8,1.8s0.8,1.8,1.8,1.8s1.8-0.8,1.8-1.8S132.2,286.1,131.2,286.1 M133.6,279.4c-1.7,0-3.1,1.4-3.1,3.1   s1.4,3.1,3.1,3.1s3.1-1.4,3.1-3.1S135.3,279.4,133.6,279.4 M137.6,286.6c-1.3,0-2.4,1.1-2.4,2.4s1.1,2.4,2.4,2.4s2.4-1.1,2.4-2.4   S139,286.6,137.6,286.6 M143.2,290c-0.9,0-1.6,0.7-1.6,1.6s0.7,1.6,1.6,1.6s1.6-0.7,1.6-1.6C144.8,290.7,144.1,290,143.2,290    M114.5,239.1c-3.2,0-5.9,2.6-5.9,5.9s2.6,5.9,5.9,5.9s5.9-2.6,5.9-5.9S117.7,239.1,114.5,239.1 M123.7,207.2   c-4.1,0-7.4,3.3-7.4,7.4s3.3,7.4,7.4,7.4s7.4-3.3,7.4-7.4S127.8,207.2,123.7,207.2 M107.7,208.2c-3.5,0-6.4,2.9-6.4,6.4   s2.9,6.4,6.4,6.4s6.4-2.9,6.4-6.4S111.2,208.2,107.7,208.2 M102.6,222.2c-3.3,0-6,2.7-6,6c0,3.3,2.7,5.9,6,5.9s6-2.7,6-5.9   S105.9,222.2,102.6,222.2 M101.5,236.1c-3.1,0-5.5,2.5-5.5,5.5s2.5,5.6,5.5,5.6s5.5-2.5,5.5-5.6S104.6,236.1,101.5,236.1    M103.1,249c-2.6,0-4.6,2.1-4.6,4.6c0,2.5,2.1,4.6,4.6,4.6s4.6-2.1,4.6-4.6S105.6,249,103.1,249 M114.7,252.8   c-2.7,0-4.8,2.2-4.8,4.8c0,2.7,2.2,4.9,4.8,4.9s4.8-2.2,4.8-4.9S117.4,252.8,114.7,252.8"/>
	<path class="st1" d="M30.2,161.5c0,1,0.8,1.9,1.9,1.9h240.8c1,0,1.9-0.9,1.9-1.9s-0.9-1.9-1.9-1.9H32.1   C31,159.6,30.2,160.4,30.2,161.5"/>
	<path class="st1" d="M50.9,144.4l-0.7,3.2c-0.2,0.8-0.6,1-1.2,1H38.1c-3.1,0-4.9-1.6-4.9-5.1v-25.5c0-0.7,0.3-0.9,1.2-0.9h3.8   c0.9,0,1.2,0.2,1.2,0.9v25.5h10.5C50.7,143.4,51.1,143.6,50.9,144.4"/>
	<path class="st1" d="M71.8,144.1l-0.4,3.7c0,0.5-0.2,0.7-0.8,0.7h-12c-3.1,0-4.9-1.6-4.9-5.1v-25.5c0-0.6,0.2-0.9,0.9-0.9H71   c0.5,0,0.8,0.2,0.7,0.7l-0.4,3.7c0,0.5-0.3,0.7-0.8,0.7H60.1v7.9h9.6c0.6,0,0.7,0.2,0.7,0.7l-0.4,3.7c0,0.4-0.3,0.6-0.8,0.6h-9.1   v8.3h11C71.7,143.4,71.9,143.6,71.8,144.1"/>
	<path class="st1" d="M74.4,147.8c2.8-10.7,5.5-21.2,8.2-29.6c0.2-0.8,0.8-1.2,1.7-1.2h5.3c1.1,0,1.5,0.4,1.8,1.2   c2.6,8.3,5.5,18.9,8.3,29.6c0.1,0.5-0.1,0.7-0.7,0.7h-4.7c-0.7,0-1.1-0.3-1.1-0.7l-1.2-5.5h-9.6c-0.4,1.9-0.8,3.7-1.2,5.6   c-0.1,0.4-0.4,0.6-1,0.6h-5C74.4,148.5,74.3,148.3,74.4,147.8 M90.8,137.4c-0.9-4.7-2.3-10.4-3.6-15.2h-0.3   c-1.2,4.8-2.7,10.5-3.5,15.2H90.8L90.8,137.4z"/>
	<path class="st1" d="M117.4,136.1c-2.7,0-4.1-1.5-4.1-4.1v-0.3c0-0.5,0.2-0.8,0.7-0.8h9.3c0.5,0,0.8,0.2,0.8,0.7v13.7   c0,1.1-0.3,1.7-1.1,2c-2.2,1-5.9,1.6-9.3,1.6c-8.2,0-11.9-3.3-11.9-10.6v-10.8c0-7.8,4.3-11,12.6-11c2.8,0,5.7,0.4,7.6,0.9   c0.6,0.2,0.8,0.4,0.8,1.1v3.6c0,0.6-0.4,0.7-1,0.5c-1.8-0.5-4.4-0.8-6.9-0.8c-4,0-6.8,1.3-6.8,6.3v9.5c0,2.4,0.4,3.7,1.2,4.7   c0.7,0.9,2.2,1.4,4.4,1.4c1.6,0,3.5-0.2,4.4-0.5v-7.1L117.4,136.1L117.4,136.1z"/>
	<path class="st1" d="M132.1,146.5c-1.9-1.7-2.8-4.5-2.8-8.3v-20.5c0-0.4,0.2-0.7,0.7-0.7h4.9c0.5,0,0.7,0.2,0.7,0.7v19.9   c0,1.9,0.2,3.6,1.1,4.6c0.7,0.9,2,1.5,3.7,1.5s3-0.5,3.8-1.5c0.9-1.1,1-2.7,1-4.6v-19.9c0-0.4,0.3-0.7,0.8-0.7h4.9   c0.5,0,0.7,0.3,0.7,0.7v20.5c0,3.9-1,6.7-3.1,8.4c-1.9,1.6-4.5,2.4-8.1,2.4C136.6,149,133.9,148.2,132.1,146.5"/>
	<path class="st1" d="M175,144.1l-0.4,3.7c0,0.5-0.2,0.7-0.8,0.7h-12c-3.1,0-4.9-1.6-4.9-5.1v-25.5c0-0.6,0.2-0.9,0.9-0.9h16.4   c0.5,0,0.8,0.2,0.7,0.7l-0.4,3.7c0,0.5-0.3,0.7-0.8,0.7h-10.4v7.9h9.6c0.6,0,0.7,0.2,0.7,0.7l-0.4,3.7c0,0.4-0.3,0.6-0.8,0.6h-9.1   v8.3h11.1C174.9,143.4,175.1,143.6,175,144.1"/>
	<path class="st1" d="M208.1,117.7l-0.6,3.8c-0.1,0.5-0.3,0.7-0.9,0.7h-6.1v25.7c0,0.5-0.2,0.7-0.8,0.7H199c-3.1,0-4.9-1.6-4.9-5.1   v-21.2h-6.9c-0.4,0-0.7-0.2-0.7-0.7v-3.8c0-0.4,0.3-0.7,0.7-0.7h20.1C207.9,117,208.1,117.2,208.1,117.7"/>
	<path class="st1" d="M231.3,143.8l-3.4-19.3h-0.3l-3.9,22.9c-0.2,0.8-0.8,1.1-1.7,1.1h-3.4c-2.8,0-4.1-1.5-4.7-4.7   c-0.8-4.1-3.2-16.8-4.2-25.9c-0.1-0.7,0.2-0.9,0.9-0.9h4.1c0.9,0,1.2,0.2,1.2,0.8c0.8,8.5,2.1,18.5,3.3,25.4h0.2l4-23.8   c0.1-0.8,0.6-1.1,1.5-1.1h5.6c0.9,0,1.4,0.3,1.5,1.1l4.1,23.8h0.2c1.2-7.2,2.6-16.8,3.2-25.4c0-0.6,0.4-0.8,1.3-0.8h4.1   c0.9,0,1,0.4,0.9,1.1c-1.1,9-3,21.8-4.9,29.3c-0.2,0.8-0.9,1.2-1.8,1.2H236C233.2,148.5,231.9,147,231.3,143.8"/>
	<path class="st1" d="M251.6,146.3c-2-1.7-3.1-4.4-3.1-7.9v-11.4c0-4,1.5-6.8,4.1-8.6c1.9-1.3,4.5-1.9,7.5-1.9s5.8,0.7,7.8,2.1   c2.4,1.7,3.8,4.5,3.8,8.4v11.4c0,3.8-1.3,6.6-3.8,8.4c-1.9,1.4-4.6,2.1-7.9,2.1C256.5,149,253.6,148.1,251.6,146.3 M263.9,142.5   c1-1,1.5-2.7,1.5-4.7v-10.1c0-2.3-0.6-3.7-1.5-4.7c-0.8-0.8-2.1-1.2-3.7-1.2s-3,0.4-3.8,1.2c-1,1-1.5,2.4-1.5,4.7v10.1   c0,2,0.5,3.7,1.5,4.7c0.8,0.8,2.2,1.2,3.8,1.2S263.1,143.3,263.9,142.5"/>
	<g>
		<defs>
			<path id="SVGID_1_" d="M146,36.1v62.2c0,2.7,2.2,4.9,4.9,4.9h119.1c2.7,0,4.9-2.2,4.9-4.9V59.7c-0.2,1-0.7,1.6-1.3,2.2     c-0.7,0.7-2.4,0.9-2.4,0.9s-119.8,4.1-121.2,4.2c-1.4,0.1-1.7,0.2-2.6,0.8c-0.9,0.6-1.2,2.2-1.2,2.2V35.3     C146,35.5,146,35.8,146,36.1"/>
		</defs>
		<clipPath id="SVGID_00000075880966621961880350000011824709222928796861_">
			<use xlink:href="#SVGID_1_" style="overflow:visible;"/>
		</clipPath>
		<g style="clip-path:url(#SVGID_00000075880966621961880350000011824709222928796861_);">
			
				<linearGradient id="SVGID_00000090999953771601423370000004165166135844965021_" gradientUnits="userSpaceOnUse" x1="4507.8735" y1="-11827.5205" x2="4509.5933" y2="-11827.5205" gradientTransform="matrix(2.558287e-15 41.78 -41.78 2.558287e-15 -493943.4062 -188304.6406)">
				<stop offset="0" style="stop-color:#E52320"/>
				<stop offset="0.58" style="stop-color:#E2221F"/>
				<stop offset="0.95" style="stop-color:#D9211F"/>
				<stop offset="1" style="stop-color:#D8211F"/>
			</linearGradient>
			
				<rect x="146" y="35.3" style="fill:url(#SVGID_00000090999953771601423370000004165166135844965021_);" width="128.8" height="67.9"/>
		</g>
	</g>
</g>
<g>
	
		<linearGradient id="Plinth_00000052810933371389841480000001826807925874081441_" gradientUnits="userSpaceOnUse" x1="210.2091" y1="221.3" x2="210.2091" y2="293.5118" gradientTransform="matrix(1 0 0 1 0 -189.8898)">
		<stop offset="0.4" style="stop-color:#FF0000"/>
		<stop offset="1" style="stop-color:#D42321"/>
	</linearGradient>
	<path id="Plinth" style="fill:url(#Plinth_00000052810933371389841480000001826807925874081441_);" d="M270,31.4H150.4   c-2.6,0-4.8,2.2-4.8,4.8v62.6c0,2.6,2.2,4.8,4.8,4.8H270c2.6,0,4.8-2.2,4.8-4.8V36.2C274.8,33.6,272.6,31.4,270,31.4z"/>
	
		<linearGradient id="p40_00000000208852846669316940000011022696967366538149_" gradientUnits="userSpaceOnUse" x1="210.6532" y1="256.1248" x2="209.3972" y2="220.1574" gradientTransform="matrix(1 0 0 1 0 -189.8898)">
		<stop offset="0" style="stop-color:#FFFFFF"/>
		<stop offset="1" style="stop-color:#FFFFFF;stop-opacity:0.25"/>
	</linearGradient>
	
		<path id="p40" style="opacity:0.4;fill:url(#p40_00000000208852846669316940000011022696967366538149_);enable-background:new    ;" d="   M149.1,67.2c0,0,0.2,0,0.4,0c14.2-0.5,121.6-4.2,121.6-4.2c1.8-0.1,3.6-1.4,3.6-3.7V36.2c0-2.6-2.2-4.8-4.8-4.8H150.4   c-2.6,0-4.8,2.2-4.8,4.8v34.8C145.6,70.6,145.8,67.6,149.1,67.2z"/>
	
		<linearGradient id="Sky_x5F_Logo_00000085243814916552080990000000589455618971643035_" gradientUnits="userSpaceOnUse" x1="82.5343" y1="225.4567" x2="82.5343" y2="289.3585" gradientTransform="matrix(1 0 0 1 0 -189.8898)">
		<stop offset="0" style="stop-color:#002A91"/>
		<stop offset="0.8" style="stop-color:#002672"/>
	</linearGradient>
	<path id="Sky_x5F_Logo" style="fill:url(#Sky_x5F_Logo_00000085243814916552080990000000589455618971643035_);" d="M102.4,98.4   c0.9,0.4,2.6,1,4.8,1c3.8,0.1,5.8-1.3,7.3-4.7l20.2-45c-0.8-0.4-2.7-0.9-4.2-1c-2.6,0-6.1,0.5-8.3,5.8L115.7,70l-12.8-20.9   c-0.8-0.2-2.9-0.6-4.3-0.6c-4.6,0-7.1,1.7-9.7,4.5L76.4,66.6l10,15.8c1.9,2.9,4.3,4.4,8.3,4.4c2.6,0,4.8-0.6,5.8-1.1L88.4,67.5   l8.6-9.1l14.1,22L102.4,98.4z M75.9,81.4c0,3.3-1.3,5.2-7.8,5.2c-0.9,0-1.6,0-2.3-0.2V42.4c0-3.3,1.1-6.8,7.7-6.8   c0.8,0,1.7,0.1,2.4,0.2L75.9,81.4L75.9,81.4z M62.5,74.7c0,6.2-4,10.7-12.3,11.6c-5.9,0.7-14.6-0.1-18.7-0.6   c-0.1-0.7-0.2-1.5-0.2-2.2c0-5.4,2.9-6.6,5.7-6.6c2.9,0,7.3,0.5,10.7,0.5c3.7,0,4.8-1.3,4.8-2.4c0-1.5-1.5-2.2-4.3-2.7l-7.8-1.5   c-6.5-1.2-10-5.7-10-10.5c0-5.8,4.1-10.6,12.2-11.5c6.1-0.7,13.5,0.1,17.6,0.6c0.1,0.7,0.2,1.3,0.2,2.1c0,5.4-2.9,6.6-5.6,6.6   c-2.1,0-5.4-0.4-9.1-0.4c-3.8,0-5.4,1.1-5.4,2.3c0,1.3,1.5,1.9,3.9,2.3l7.5,1.4C59.2,65,62.5,69.4,62.5,74.7z"/>
	
		<linearGradient id="s25_00000120534378465794110810000013163969852768989077_" gradientUnits="userSpaceOnUse" x1="83.0763" y1="259.3113" x2="82.2315" y2="235.1221" gradientTransform="matrix(1 0 0 1 0 -189.8898)">
		<stop offset="0" style="stop-color:#FFFFFF"/>
		<stop offset="1" style="stop-color:#FFFFFF;stop-opacity:0.25"/>
	</linearGradient>
	
		<path id="s25_11_" style="opacity:0.25;fill:url(#s25_00000120534378465794110810000013163969852768989077_);enable-background:new    ;" d="   M134.8,49.7l-7.4,16.5c-0.2,0.4-1.1,1.9-3.1,1.9c-0.5,0-6.8,0.2-6.8,0.2c-1.2,0-1.6,1.2-1.6,1.2l0,0l6.4-15.1   c2.2-5.3,5.7-5.8,8.3-5.8C132.1,48.7,134,49.2,134.8,49.7z M115.4,69.4l-12.5-20.3c-0.8-0.2-2.9-0.6-4.3-0.6   c-4.6,0-7.1,1.7-9.7,4.5L76.4,66.6l1,1.5c0.4,0.6,1.3,1.5,3,1.5c0.6,0,6.6-0.2,7.1-0.2c1.5,0,2.6,0.6,3.1,1.4l0,0l-2.2-3.3l8.6-9.1   l5.7,9l0,0c1.1,1.3,2.6,1.4,2.9,1.4c0.3,0,7.9-0.3,8.2-0.3C114.4,68.5,115,68.7,115.4,69.4z M73.5,35.6c-6.6,0-7.7,3.5-7.7,6.8   v30.2c0-1.2,0.9-2.5,2.5-2.6c1.1,0,4.2-0.2,5.1-0.2c1,0,2.5-0.7,2.6-2.6V35.9C75.1,35.6,74.3,35.6,73.5,35.6z M51.5,63.6l-7.5-1.4   c-2.4-0.4-3.9-1-3.9-2.3c0-1.3,1.6-2.3,5.4-2.3c3.7,0,7,0.4,9.1,0.4c2.7,0,5.6-1.2,5.6-6.6c0-0.7-0.1-1.4-0.2-2.1   c-4.1-0.5-11.5-1.3-17.6-0.6c-8.1,0.9-12.2,5.7-12.2,11.5c0,3,1.3,5.8,4,7.9c2,1.3,4,1.8,6,2.2c1.7,0.3,5.5,0.5,8.4,0.4   c0.9,0,7.5-0.2,8.9-0.3c3.3-0.1,5.1,2.7,5,5.6c0,0,0-0.1,0-0.1v0c0-0.4,0-0.7,0-1.1C62.5,69.4,59.2,65,51.5,63.6z"/>
	<path class="st0" d="M195.1,67.9c0,11.1-7.8,17.7-16.4,17.7c-5.1,0-9.3-2.4-11.8-5.8v3.3c0,1.4-0.8,2.2-3.1,2.2   c-1,0-2.1-0.2-2.7-0.3V40.9c0-1.3,0.8-2.2,3.1-2.2c1,0,2.1,0.2,2.7,0.3v17.1c2.5-3.4,6.6-5.8,11.8-5.8   C187.3,50.3,195.1,56.8,195.1,67.9z M189.2,67.9c0-7.5-5-12.6-11.6-12.6c-4.5,0-8.7,2.6-10.6,6.4v12.3c1.9,3.8,6.1,6.4,10.6,6.4   C184.2,80.5,189.2,75.4,189.2,67.9z M232.9,70h-26.4c0.8,6.6,5.3,10.3,12.1,10.3c2.9,0,5.2-0.6,7.3-1.3c1.5-0.5,2.1-0.7,2.7-0.7   c1.6,0,2.7,1.3,2.4,4.5c-3.1,1.3-7.7,2.9-12.6,2.9c-10.6,0-17.8-7.2-17.8-17.8c0-10.2,7.6-17.6,16.9-17.6   c10.5,0,15.6,8.2,15.6,16.4C233.1,67.6,233,68.8,232.9,70z M206.5,65.5h20.9c-0.2-5.8-4-10.4-10-10.4   C212.2,55.1,207.4,58.8,206.5,65.5z M260.7,83.3c-3,1.4-6.4,2.3-9.8,2.3c-6.7,0-10.8-4-10.8-10.6V45.8c0-1.5,0.9-2.5,3.1-2.5   c1,0,2.1,0.2,2.7,0.4V51h13.2c0.1,0.5,0.2,1.5,0.2,2.3c0,2.1-0.9,2.8-2.1,2.8H246v18.5c0,4,1.8,5.9,5.6,5.9c3.4,0,5.3-1.5,6.9-1.5   C260.2,79,261,80.5,260.7,83.3z"/>
</g>
</svg>