<svg xmlns="http://www.w3.org/2000/svg" width="36" height="36" viewBox="0 0 36 36" fill="none"><script xmlns="" id="eppiocemhmnlbhjplcgkofciiegomcon"/><script xmlns=""/><script xmlns=""/>
<path d="M10.0129 4.66243C11.4273 5.32804 12.3633 6.13925 12.5297 6.26405C12.4673 5.88965 12.1761 4.12162 11.9889 3.04001C12.8001 3.60162 14.7553 4.95363 15.3793 5.39044C15.6289 4.60003 16.5441 2 16.5441 2C16.5441 2 18.1666 4.60003 18.4162 5.03684C18.7698 4.70403 20.6834 2.54081 21.1826 2C21.2866 3.22721 21.3698 5.01604 21.4114 5.26564C21.5154 5.14084 22.2642 4.10082 23.4914 3.12321C22.9506 4.18403 22.701 5.64004 22.5762 6.82566C21.349 6.47205 20.0594 6.28485 18.749 6.28485C16.2113 6.28485 13.7985 6.95046 11.7185 8.13607C11.3649 6.99206 10.8033 5.57764 10.0129 4.66243ZM29.5235 27.0019L28.4003 25.7539C28.0883 29.1027 26.4243 31.9732 23.4082 33.97L22.9298 32.1604C20.3506 34.0116 15.9617 35.1972 12.1761 33.0756C12.6545 30.6835 13.0497 28.2499 12.1761 25.3379C10.0753 28.5619 8.22404 29.8515 8.22404 29.8515C6.80962 27.4595 6.93442 22.6962 7.35043 21.2818L5 22.0098C5 20.4082 6.16481 17.0178 7.82883 15.1042L6.39362 14.8754C7.39203 12.8369 8.86885 11.0897 10.7201 9.73769C10.1585 10.6529 10.1585 12.7745 11.7601 13.5857C11.0737 12.4001 11.0113 10.9233 11.6977 10.1329C12.4257 9.34249 13.6113 9.63369 14.3601 10.2369C14.1313 9.57129 13.4449 8.73928 12.4881 8.67688C14.3601 7.69927 16.5441 7.17926 18.7906 7.17926C19.2274 7.17926 19.6434 7.22086 20.0386 7.24166C20.7042 7.49126 21.661 8.42728 22.1186 9.03048C22.1186 9.03048 22.1602 8.34407 21.765 7.53286C24.2194 8.13607 25.405 9.13448 25.8834 9.61289C25.9874 10.6737 26.2995 11.2977 26.7363 12.3169C25.9458 11.4433 23.949 9.98729 22.9714 9.65449C22.9714 9.65449 22.8674 10.5697 22.5554 11.0065C20.6418 9.63369 19.7266 9.28009 19.7266 9.28009C17.6049 9.48809 16.2945 10.3201 15.5457 10.9441L16.1697 11.4849C14.9217 11.8593 14.0897 12.9617 14.0897 12.9617C14.0897 13.0033 15.2129 13.1489 15.2129 13.1489C15.2129 13.1489 15.0881 14.4593 16.7521 15.2914C18.1666 15.9778 20.1634 15.125 22.077 15.8946C20.829 14.4593 19.9762 13.7937 19.9762 13.7937C19.9762 13.7937 19.477 13.6897 19.1234 13.6897C18.6866 13.6897 18.021 13.7937 17.3345 13.5025C16.9809 13.3777 16.5857 13.1281 16.2945 12.9409C16.2945 12.9409 17.1681 12.0257 18.4578 11.8385C18.4578 11.8385 19.6226 12.1505 20.5378 12.8369C21.141 12.2337 21.7858 12.2753 21.7858 12.2753C21.7858 12.2753 21.1618 12.8785 21.349 13.5649C22.2642 14.3761 23.2626 15.541 23.2626 15.541C24.261 14.9794 26.4659 15.1042 26.9235 15.645C26.3619 14.8962 25.509 14.2929 24.885 13.7729C24.8226 13.4817 24.0946 12.5249 24.0114 12.4209C24.0114 12.4209 24.677 12.6497 25.2594 13.1489C25.4258 12.8993 25.7586 12.6497 26.1747 12.5457C26.6115 12.9201 26.7155 13.4817 26.6739 13.5857C26.4867 13.8353 26.2579 13.9393 26.2579 13.9393L27.3187 15.1042L27.4227 14.2513C29.8979 17.7666 31.2499 21.8642 29.5235 27.0019ZM24.8642 19.4098V17.6002C24.8642 17.6002 24.053 17.3506 23.1794 16.6642C21.4322 16.9138 19.3314 18.6818 19.3314 18.6818C19.3314 18.6818 20.0594 20.0338 20.829 21.5106C22.2018 21.6562 24.2402 19.9506 24.8642 19.4098ZM26.6115 22.6962C26.6115 22.6962 26.4867 21.9474 25.8626 21.261L24.5106 21.3026C24.5106 21.3026 22.6594 22.8626 21.557 22.9042C21.557 22.9042 22.181 24.0691 22.493 24.6515C23.117 24.5267 24.1778 24.0275 24.6354 23.5283C24.6354 23.5283 24.9266 24.4643 24.8642 25.5667C25.4882 25.1715 26.3411 24.2147 26.6115 22.6962ZM27.1731 16.7058C26.4867 17.2674 25.925 17.621 25.925 17.621V19.4306C26.4243 19.9714 26.9027 20.429 27.2771 21.2402C27.9635 20.0338 27.7971 18.2242 27.1731 16.7058Z" fill="#360D3A"/>
</svg>