<svg xmlns="http://www.w3.org/2000/svg" width="36" height="36" viewBox="0 0 36 36" fill="none"><script xmlns="" id="eppiocemhmnlbhjplcgkofciiegomcon"/><script xmlns=""/><script xmlns=""/>
<g clip-path="url(#clip0_1044_4628)">
<path d="M18.0796 1.35465C18.2381 1.22635 18.3739 1.02257 18.6003 1.00748C18.7664 0.984836 18.9324 1.04521 19.0381 1.17352C19.1588 1.30936 19.3701 1.39238 19.355 1.6037C19.3098 1.81503 19.2343 2.04899 19.3249 2.26031C19.423 2.63012 19.8154 2.8188 19.8909 3.19616C19.9437 3.52069 19.755 3.86031 19.4758 4.02635C19.355 4.10936 19.2041 4.13201 19.0984 4.23767C19.1286 4.38861 19.1437 4.5471 19.1362 4.69804C19.7475 4.73578 20.3664 4.89427 20.872 5.24899C21.106 5.41503 21.2947 5.65654 21.34 5.95087C20.2909 5.64899 19.1966 5.55842 18.1098 5.6037C17.3928 5.64144 16.6758 5.73955 15.989 5.95087C16.0041 5.64899 16.2079 5.40748 16.4418 5.24144C16.9475 4.89427 17.5664 4.73578 18.1701 4.69804C18.1852 4.52446 18.1928 4.35087 18.1701 4.17729C17.7852 4.07918 17.4305 3.7622 17.4154 3.3471C17.4003 3.09804 17.5437 2.87918 17.7022 2.71314C17.9211 2.47918 18.1022 2.15465 17.9966 1.83012C17.9739 1.67163 17.9211 1.46031 18.0796 1.35465ZM13.9739 7.41503C15.2117 6.80371 16.5852 6.50182 17.9588 6.41125C18.6305 6.39616 19.3098 6.36597 19.9815 6.47918C19.3852 6.73578 18.7815 7.03767 18.3664 7.55842C18.1626 7.78484 18.0569 8.10937 17.7701 8.25276C16.6154 8.32069 15.4758 8.60748 14.389 8.99993C14.2305 8.50182 14.0871 7.98861 13.8607 7.51314C13.8909 7.48295 13.9437 7.43767 13.9739 7.41503ZM9.2192 9.71691C9.32486 9.28672 9.4758 8.87163 9.73241 8.50182C9.89845 8.88672 10.0796 9.26408 10.2532 9.64144C10.2532 9.81503 10.1852 9.98106 10.1626 10.1622C9.97392 11.332 10.2305 12.5697 10.8947 13.5509C11.2796 14.1245 11.8607 14.5697 12.5324 14.7358C12.5928 15.0528 12.5852 15.3773 12.5852 15.6943C12.5475 15.7018 12.4645 15.7169 12.4267 15.7245C12.2079 15.7094 11.9966 15.649 11.8079 15.5358C11.5513 15.3924 11.272 15.2716 11.0305 15.0905C10.8041 14.932 10.6305 14.7056 10.3815 14.5773L10.3437 14.5546C10.3362 14.532 10.3286 14.4867 10.3286 14.4641C9.92109 13.9962 9.63429 13.4301 9.42297 12.849C9.40033 12.7811 9.37769 12.7207 9.35505 12.6528C9.05316 11.7169 9.00033 10.683 9.2192 9.71691ZM14.7966 9.77729C15.7022 9.44522 16.6456 9.20371 17.6117 9.14333C17.3324 10.6377 17.6343 12.1471 17.8456 13.6263C18.0494 14.9622 18.3135 16.2905 18.4796 17.6263C17.6192 17.6188 16.7739 17.7547 15.9362 17.9131C16.0117 17.5811 15.9362 17.2414 15.8984 16.9094C15.7701 16.1245 15.5286 15.3396 15.0532 14.6905C15.1286 14.0792 15.0984 13.4679 15.106 12.8565C15.0532 11.8603 14.9475 10.849 14.6532 9.8905C14.6305 9.80748 14.7513 9.80748 14.7966 9.77729ZM26.7286 11.5433C27.0456 12.3131 27.1362 13.1811 26.9098 13.9811C26.6079 15.0679 25.8683 16.0565 24.8494 16.5773C24.8645 16.2075 24.7362 15.7924 24.9324 15.4528C25.8532 14.7207 26.389 13.4377 26.0418 12.2754C26.223 11.9962 26.5173 11.8075 26.7286 11.5433ZM17.1815 18.5999C17.506 18.5471 17.8758 18.5622 18.14 18.7811C18.3135 18.9169 18.3513 19.1584 18.3437 19.3622C18.3437 20.6226 18.3437 21.8905 18.3437 23.1509C18.3437 23.249 18.3286 23.3396 18.3135 23.4377C18.1098 23.4377 17.8984 23.4452 17.6947 23.4679C17.4607 23.5207 17.2192 23.5207 16.9852 23.5811C16.3739 22.5848 16.1701 21.4075 16.072 20.2603C16.0645 19.8603 16.0192 19.4226 16.2456 19.0679C16.4569 18.7584 16.8343 18.6452 17.1815 18.5999ZM16.9852 25.2565C17.4909 25.2339 17.989 25.166 18.4947 25.166C18.4494 25.6641 18.3513 26.1546 18.2758 26.6452C17.906 26.6377 17.5286 26.6528 17.1588 26.6905C17.1588 26.2226 17.1739 25.7546 17.1588 25.2867C17.1286 25.2867 17.0607 25.2792 17.0305 25.2792L16.9852 25.2565ZM16.8569 27.6188C16.8871 27.6113 16.9475 27.5886 16.9777 27.5811C17.1437 27.5735 17.3173 27.566 17.4834 27.5584C17.6796 27.5509 17.8758 27.5584 18.072 27.5735C17.8305 28.7056 17.4834 29.815 17.0909 30.9094C16.8117 30.9245 16.54 30.9471 16.2607 30.9697C16.6305 29.883 16.9098 28.766 17.0456 27.6263C17.0079 27.6263 16.9098 27.6188 16.8569 27.6188ZM15.906 31.9509C16.1626 31.9282 16.4192 31.898 16.6683 31.8679C16.4041 32.4792 16.0645 33.0603 15.755 33.649C15.8079 33.649 15.906 33.6565 15.9513 33.6565C15.672 33.6867 15.3852 33.7018 15.106 33.7396C15.3777 33.1433 15.672 32.5622 15.906 31.9509Z" fill="#E30613"/>
<path d="M19.9813 6.47925C20.6153 6.50189 21.2493 6.64529 21.8606 6.81887C21.6493 6.99246 21.4304 7.15849 21.2719 7.37736C21.1134 7.59623 20.8945 7.76981 20.7512 8.01132C20.6681 8.14717 20.5851 8.29057 20.4493 8.38868C20.2832 8.3434 20.1172 8.32831 19.9436 8.31321C19.7323 8.23774 19.5059 8.28302 19.287 8.24529C18.8644 8.18491 18.4342 8.18491 18.0115 8.24529C17.9285 8.24529 17.8455 8.25283 17.77 8.25283C18.0568 8.10944 18.1625 7.78491 18.3662 7.55849C18.7813 7.03774 19.3851 6.73585 19.9813 6.47925Z" fill="#B71A23"/>
<path d="M21.8605 6.81128C22.2379 6.90939 22.6077 7.04524 22.9624 7.19618C23.0379 7.23392 23.136 7.24902 23.1813 7.33203C23.0983 7.63392 22.8492 7.83015 22.7058 8.10185C22.57 8.3509 22.3737 8.56222 22.2454 8.81883L22.2002 8.83392C21.6266 8.66034 21.053 8.46411 20.4492 8.38864C20.5851 8.29052 20.6681 8.14713 20.7511 8.01128C20.8945 7.77732 21.1058 7.60373 21.2719 7.37732C21.4379 7.15845 21.6568 6.98486 21.8605 6.81128Z" fill="#CD101B"/>
<path d="M23.1815 7.33201L23.2041 7.27917C23.5513 7.49804 23.9286 7.67163 24.2607 7.92068C23.9135 8.15465 23.8003 8.59993 23.7022 8.98484C23.6645 9.18106 23.5135 9.33201 23.3852 9.4754C23.0381 9.21125 22.6456 9.02257 22.2532 8.85653L22.2456 8.8188C22.3815 8.56974 22.5701 8.35087 22.706 8.10182C22.8494 7.83767 23.0984 7.63389 23.1815 7.33201Z" fill="#E00714"/>
<path d="M10.1772 8.01139C10.6678 7.67931 11.2565 7.49063 11.8452 7.50572C12.2829 7.52837 12.7131 7.65667 13.098 7.86799C13.2942 8.40384 13.5131 8.93969 13.6414 9.49818C13.581 9.71705 13.4225 9.88308 13.2867 10.0567C13.1206 10.268 13.0074 10.502 12.8489 10.7133C12.6678 10.9548 12.4188 11.1435 12.2603 11.4001C12.1395 11.5812 12.0263 11.7699 11.8829 11.9359C11.3244 10.6303 10.7584 9.31705 10.1772 8.01139Z" fill="#C91A21"/>
<path d="M23.7017 8.98481C23.7998 8.5999 23.9055 8.15462 24.2602 7.92065C24.6979 8.25273 25.0979 8.66028 25.2866 9.18858C24.9017 9.70179 24.6526 10.3056 24.4338 10.9093C23.8526 12.6225 23.6187 14.4565 23.7243 16.2678C23.8074 17.2942 24.0262 18.3433 24.5772 19.2263C24.4413 19.1886 24.3357 19.098 24.2225 19.0225C23.8979 18.8112 23.5432 18.6452 23.1885 18.4942C23.1432 18.3961 23.0904 18.298 23.0677 18.1848C22.9923 17.6112 22.8262 17.0452 22.7659 16.4716C22.7508 16.4037 22.8036 16.3433 22.8262 16.2829C22.8413 16.3433 22.8715 16.4565 22.8866 16.5169C22.8187 16.1169 22.8715 15.7093 22.8262 15.3093C22.8036 15.0678 22.8338 14.8339 22.8489 14.5999C22.8489 13.5357 23.0149 12.4716 23.2866 11.4452C23.3168 11.3395 23.347 11.2339 23.3772 11.1282C23.4149 10.9999 23.4526 10.8716 23.4904 10.7433C23.5885 10.4414 23.6942 10.1395 23.7998 9.84518C23.6715 9.71688 23.5357 9.59613 23.3998 9.47537C23.513 9.33198 23.664 9.18103 23.7017 8.98481Z" fill="#EA0210"/>
<path d="M17.6188 9.09824C17.966 9.09069 18.3132 9.0756 18.6603 9.04541C19.2113 9.09824 19.7698 9.0756 20.3132 9.21145C20.2226 9.25673 20.132 9.30201 20.0566 9.36994C19.9056 9.71711 19.8754 10.1096 19.8 10.4794C19.6868 10.9926 19.5434 11.5133 19.5962 12.0416C19.6415 12.7133 19.5811 13.3926 19.6415 14.0643C19.6566 14.3284 19.6264 14.5926 19.6566 14.8567C19.7245 15.4077 19.6717 15.9662 19.7698 16.5171C19.8377 16.8718 19.8151 17.2416 19.9056 17.5964C19.883 17.6265 19.8377 17.6794 19.8226 17.702C19.3849 17.6265 18.9396 17.6341 18.4943 17.6341C18.3283 16.2907 18.0641 14.9699 17.8603 13.6341C17.649 12.1548 17.3471 10.6379 17.6264 9.15107L17.6188 9.09824Z" fill="#B81923"/>
<path d="M20.0566 9.36979C20.1321 9.30187 20.2227 9.25659 20.3132 9.2113C20.5246 9.2113 20.7283 9.30942 20.9397 9.30187C20.9472 9.32451 20.9623 9.36225 20.9623 9.37734C20.834 10.0415 20.5321 10.6679 20.5095 11.3547C20.4944 11.9811 20.3963 12.6075 20.4189 13.2339C20.351 14.5547 20.5321 15.8679 20.6227 17.1887C20.6378 17.3924 20.6831 17.5887 20.751 17.7773C20.434 17.7924 20.1321 17.6717 19.8227 17.7019C19.8453 17.6792 19.8906 17.6264 19.9057 17.5962C19.8151 17.2415 19.8378 16.8717 19.7698 16.517C19.6793 15.966 19.7246 15.4075 19.6566 14.8566C19.6264 14.5924 19.6566 14.3283 19.6415 14.0641C19.5812 13.3924 19.6415 12.7132 19.5963 12.0415C19.5434 11.5132 19.6868 10.9924 19.8 10.4792C19.8755 10.1094 19.8981 9.71696 20.0566 9.36979Z" fill="#C8121D"/>
<path d="M20.9623 9.38495C21.0831 9.31703 21.234 9.43778 21.3623 9.45288C21.8001 9.58118 22.2303 9.76231 22.6303 9.98118C22.434 10.1623 22.4491 10.4491 22.3284 10.668C22.1397 11 22.1246 11.4 22.0416 11.7699C21.8755 12.4189 21.9057 13.0982 21.8227 13.7623C21.7548 14.2151 21.868 14.6604 21.8076 15.1133C21.7321 15.951 21.9208 16.7736 22.0265 17.5963C22.0567 17.7699 22.0944 17.9434 22.1321 18.1095C21.9133 18.0491 21.702 17.9812 21.4831 17.9434C21.2491 17.8755 21.0076 17.8151 20.7586 17.8227C20.751 17.8076 20.7435 17.785 20.7435 17.7699C20.6755 17.5812 20.6378 17.3774 20.6152 17.1812C20.5246 15.868 20.3435 14.5548 20.4114 13.2265C20.3887 12.6 20.4869 11.9736 20.502 11.3472C20.5397 10.6755 20.834 10.0491 20.9623 9.38495Z" fill="#D70B17"/>
<path d="M13.6338 9.50569L13.6489 9.44531C13.981 10.683 14.2376 11.9585 14.2527 13.2491C14.2753 14.7736 14.0564 16.3359 13.347 17.7019C12.698 18.9246 11.5734 19.7849 10.5093 20.6302C10.5244 20.5774 10.547 20.5321 10.5847 20.4944C11.1206 19.8981 11.6112 19.2491 11.9432 18.5095C12.3206 17.6566 12.5319 16.7283 12.5923 15.8C12.5319 15.7774 12.4791 15.7547 12.4187 15.7321C12.4564 15.7246 12.5395 15.7095 12.5772 15.7019C12.5772 15.3849 12.5847 15.0604 12.5244 14.7434C12.5395 14.7283 12.5621 14.6906 12.5772 14.668C12.4715 13.7321 12.1998 12.834 11.8753 11.951C12.0112 11.7849 12.1319 11.5963 12.2527 11.4151C12.4187 11.1585 12.6602 10.9698 12.8414 10.7283C12.9998 10.517 13.1206 10.2755 13.2791 10.0717C13.4149 9.88305 13.581 9.72456 13.6338 9.50569Z" fill="#C01B21"/>
<path d="M22.3279 10.668C22.4487 10.4491 22.4336 10.1623 22.6298 9.9812C22.6977 10.0491 22.8789 10.0869 22.8185 10.2152C22.5996 11.3171 22.4713 12.4416 22.5015 13.5737C22.5619 14.4189 22.6374 15.2642 22.811 16.0944C22.8185 16.1548 22.8562 16.2227 22.826 16.2906C22.8034 16.351 22.7581 16.4038 22.7657 16.4793C22.8336 17.0529 22.9921 17.6189 23.0676 18.1925C23.0902 18.2982 23.143 18.3963 23.1883 18.502C22.8487 18.351 22.494 18.2378 22.1393 18.1246C22.1015 17.951 22.0562 17.785 22.0336 17.6114C21.9279 16.7887 21.7393 15.9661 21.8147 15.1284C21.8751 14.6755 21.7619 14.2227 21.8298 13.7774C21.9128 13.1133 21.8902 12.434 22.0487 11.785C22.1242 11.4001 22.1393 11.0076 22.3279 10.668Z" fill="#E40512"/>
<path d="M24.4337 13.483C24.6299 12.351 24.8865 11.2038 25.4148 10.1774C26.0035 10.4642 26.4413 10.9698 26.7281 11.551C26.5167 11.8151 26.2224 12.0038 26.0413 12.2906C25.3469 13.2189 24.9771 14.3585 24.8714 15.5057L24.9243 15.4604C24.7281 15.8 24.8564 16.2151 24.8413 16.5849C24.6828 16.6679 24.5243 16.7359 24.3507 16.7585C24.2677 16.3208 24.2752 15.883 24.2752 15.4377C24.2601 14.7811 24.3431 14.1321 24.4337 13.483Z" fill="#AE1D22"/>
<path d="M10.3735 14.585C10.6226 14.7133 10.7962 14.9397 11.0226 15.0982C11.2641 15.2793 11.5433 15.3925 11.8 15.5435C11.7169 15.7095 11.7396 15.8982 11.7018 16.0718C11.6566 16.5095 11.566 16.9397 11.4603 17.3699C11.2867 17.9661 11.0905 18.5699 10.7811 19.1133C10.9773 17.5963 10.7283 16.0642 10.3735 14.585Z" fill="#C11B21"/>
<path d="M15.0602 14.698C15.5282 15.3471 15.7697 16.132 15.9055 16.9169C15.9433 17.2489 16.0187 17.5886 15.9433 17.9206C15.9433 17.9357 15.9357 17.9584 15.9357 17.9735C15.6489 17.9735 15.3848 18.1093 15.1055 18.1395C15.0678 17.7395 15.0225 17.3395 14.8942 16.9621C14.864 16.8565 14.781 16.7961 14.6904 16.7357C14.8414 16.0565 14.9923 15.3848 15.0602 14.698Z" fill="#B51A25"/>
<path d="M14.6532 16.7133L14.6834 16.7284C14.7664 16.7812 14.857 16.8491 14.8872 16.9548C15.0079 17.3321 15.0607 17.7321 15.0985 18.1321V18.1623C14.6004 18.2755 14.1249 18.4642 13.6494 18.6604C14.1022 18.0793 14.4645 17.4227 14.6532 16.7133Z" fill="#C01521"/>
<path d="M19.415 18.6076C19.8377 18.517 20.2905 18.5699 20.6905 18.751C21.015 18.9019 21.2188 19.2642 21.2113 19.6189C21.2264 20.0265 21.1962 20.4265 21.1811 20.834C21.0452 21.7774 20.7962 22.7284 20.3358 23.5736C20.2981 23.5661 20.2301 23.5434 20.1924 23.5359C20.2679 23.317 20.0792 23.1283 20.0943 22.9095C20.1169 22.6604 20.0188 22.434 20.0113 22.185C19.9207 21.1057 19.649 20.0491 19.5584 18.9623C19.5509 18.834 19.4754 18.7208 19.415 18.6076Z" fill="#C2141F"/>
<path d="M18.9395 19.1661C18.9319 18.8868 19.181 18.6981 19.4149 18.6151C19.4753 18.7283 19.5508 18.8415 19.5583 18.9774C19.6489 20.0566 19.9206 21.1132 20.0112 22.2C20.0263 22.4415 20.1168 22.6755 20.0942 22.9245C20.0791 23.1434 20.2678 23.3321 20.1923 23.551C20.23 23.5585 20.298 23.5812 20.3357 23.5887C19.8678 23.551 19.4074 23.4453 18.9395 23.4604C18.947 22.0189 18.9395 20.5925 18.9395 19.1661ZM15.9357 25.4604C16.298 25.3925 16.6602 25.2868 17.03 25.2868C17.0602 25.2868 17.1281 25.2944 17.1583 25.2944C17.1734 25.7623 17.1583 26.2302 17.1583 26.6981C16.9093 26.7283 16.6602 26.7585 16.4187 26.8113C16.2376 26.8642 16.0489 26.8717 15.8602 26.8793C15.8451 26.8642 15.8225 26.8264 15.8149 26.8113C15.8753 26.5774 15.9357 26.3434 15.9206 26.1019C15.9055 25.951 15.9281 25.8 15.9885 25.6566C15.9734 25.6038 15.9508 25.5434 15.9357 25.4906C15.9281 25.483 15.9357 25.4679 15.9357 25.4604Z" fill="#B51A24"/>
<path d="M14.0342 19.4528C14.2908 19.3245 14.57 19.2415 14.8644 19.2717C15.0983 19.2491 15.4002 19.3396 15.453 19.5962C15.4455 19.9887 15.5134 20.3736 15.5285 20.7661C15.6266 21.7774 15.8832 22.7736 16.3587 23.6717C16.3512 23.6868 16.3361 23.7245 16.321 23.7472C16.1021 23.8151 15.8832 23.883 15.687 24.0038C15.2568 23.7396 14.9172 23.3547 14.6002 22.9698C14.5776 22.9245 14.5097 22.8868 14.5172 22.8264C14.6229 22.5698 14.5398 22.2981 14.5021 22.0415C14.4342 21.7321 14.5097 21.4076 14.404 21.1057C14.2455 20.5698 14.3134 19.9585 14.0342 19.4528Z" fill="#C21420"/>
<path d="M21.883 19.4905C21.9359 19.3773 22.0717 19.3396 22.1698 19.2792C22.2 19.415 22.2151 19.5811 22.3509 19.6641C22.3132 19.6716 22.2377 19.6792 22.2 19.6867C22.8642 19.6037 22.1547 19.7697 22.4038 19.8377C22.3736 19.9886 22.5019 20.1094 22.5019 20.2603C22.5321 20.6603 22.7208 21.0226 22.766 21.415C22.8189 21.7773 22.9245 22.1245 23.0076 22.4716C22.6528 23.0679 22.1698 23.5886 21.6113 24.0037C21.3925 23.898 21.166 23.8226 20.9396 23.7396C20.8717 23.6867 20.9623 23.6037 20.9774 23.5433C21.0453 23.415 21.1057 23.2867 21.166 23.1584C21.5736 22.1773 21.7472 21.1131 21.8 20.0641C21.8302 19.8754 21.7774 19.6641 21.883 19.4905ZM12.3132 32.849C12.6528 32.698 12.9925 32.5396 13.3547 32.449C13.3245 32.766 13.1887 33.0528 13.1132 33.3546C13.0377 33.6037 13.0302 33.8679 12.9698 34.1169C12.9698 34.132 12.9623 34.1546 12.9547 34.1697C12.8793 34.1773 12.8038 34.1848 12.7359 34.1924C12.4793 34.2905 12.2226 34.3811 11.9585 34.4641C12.0642 33.9282 12.2151 33.4075 12.3057 32.8716L12.3132 32.849Z" fill="#D50C18"/>
<path d="M22.1698 19.2793C22.5622 19.2642 22.9924 19.2566 23.3245 19.5208C23.6566 19.7547 23.7321 20.2 23.7094 20.5774C23.6113 21.2491 23.3622 21.8981 23.0226 22.4793C22.9321 22.1245 22.8339 21.7774 22.7811 21.4227C22.7283 21.0302 22.5471 20.6604 22.517 20.2679C22.517 20.117 22.3887 19.9962 22.4188 19.8453C22.1622 19.7698 22.8792 19.6113 22.2151 19.6944C22.2528 19.6868 22.3283 19.6793 22.366 19.6717C22.2226 19.5736 22.2075 19.4151 22.1698 19.2793ZM12.3207 20.8642C12.4868 20.6906 12.7962 20.5019 13 20.7283C12.9924 20.7434 12.9849 20.7661 12.9849 20.7736C12.849 21.0377 12.9773 21.3245 13.0226 21.5962C13.166 22.1925 13.1811 22.8038 13.2566 23.4076C13.2717 23.5661 13.249 23.717 13.2188 23.8679C12.6981 23.4981 12.2151 23.0227 12.0188 22.3962C11.8604 21.883 11.9358 21.2642 12.3207 20.8642ZM11.8679 33.1057C12.0113 33.0227 12.1547 32.9321 12.3132 32.8793C12.2226 33.4151 12.0717 33.9359 11.966 34.4717L11.9585 34.4944C11.6717 34.5925 11.4377 34.7887 11.166 34.9019C11.2566 34.5019 11.3245 34.0944 11.4226 33.6944C11.4679 33.4378 11.6717 33.2642 11.8679 33.1057Z" fill="#E30512"/>
<path d="M13.6491 19.9433C13.7246 19.7396 13.8605 19.5811 14.034 19.4528C14.3133 19.9584 14.2454 20.5697 14.4039 21.1131C14.5095 21.415 14.434 21.7396 14.502 22.049C14.5397 22.3056 14.6227 22.5848 14.5171 22.8339C14.1246 22.3433 13.8906 21.7471 13.7095 21.1584C13.5737 20.766 13.5284 20.3433 13.6491 19.9433Z" fill="#CE0E1B"/>
<path d="M25.5808 20.2754C25.5883 20.2603 25.5959 20.2226 25.5959 20.2075C26.3506 21.2037 26.9997 22.3132 27.2563 23.5509C27.6261 25.1962 27.294 26.932 26.5695 28.4264C26.3431 28.0868 26.094 27.7622 25.8676 27.4151C25.4223 27.3924 24.977 27.4151 24.5317 27.4C25.2487 26.6377 25.8449 25.732 26.1242 24.7056C26.5619 23.2415 26.3355 21.6037 25.5808 20.2754ZM28.1997 24.366C28.2525 24.4415 28.2902 24.5245 28.3204 24.6226C28.7053 25.7924 29.0223 27 28.9921 28.2377C29.0072 29.4754 28.5695 30.6603 28.0714 31.7773C27.8299 31.4302 27.6261 31.0604 27.3997 30.6981C26.977 30.6981 26.5619 30.6453 26.1468 30.6226C26.9468 29.7547 27.5506 28.7132 27.9129 27.5887C28.2525 26.5547 28.328 25.4453 28.1997 24.366Z" fill="#A01E22"/>
<path d="M24.3135 20.7133C24.4645 20.5171 24.7362 20.6529 24.8796 20.7888C25.2041 21.0454 25.3097 21.468 25.3626 21.868C25.3399 22.3737 25.1211 22.8567 24.789 23.2416C24.4645 23.619 24.0494 23.9057 23.6192 24.1548C23.5588 23.7699 23.4003 23.4076 23.3701 23.0227C23.7173 22.4944 23.989 21.9057 24.1475 21.2944C24.2079 21.0982 24.2229 20.8944 24.3135 20.7133Z" fill="#EA0310"/>
<path d="M13.015 21.6036C12.9697 21.3319 12.8489 21.0452 12.9772 20.781C13.0603 20.9169 13.0754 21.0753 13.1131 21.2263C13.3018 22.0112 13.6867 22.7433 14.1697 23.3848C14.1395 23.7244 14.215 24.064 14.1772 24.4036C13.8301 24.2829 13.5206 24.0716 13.2112 23.8753C13.2414 23.7244 13.264 23.5659 13.2489 23.415C13.1735 22.8036 13.1584 22.1923 13.015 21.6036Z" fill="#D80A17"/>
<path d="M9.42992 21.5811C9.47521 21.5359 9.52804 21.5057 9.58841 21.483C8.66011 22.7057 8.26011 24.2755 8.35068 25.8C8.38087 26.034 8.40351 26.2679 8.4186 26.5019C8.53181 27.1661 8.69785 27.8151 8.90917 28.4491C8.69785 28.7208 8.562 29.0453 8.3054 29.2793C7.94313 29.5887 7.78464 30.0642 7.44502 30.3962C7.24124 29.7396 7.12804 29.0604 7.04502 28.3811C7.01483 28.0793 7.03747 27.7774 6.99219 27.4755C7.02238 26.8415 7.05256 26.2151 7.18841 25.5887L7.2186 25.5434C7.53558 24.034 8.35823 22.6679 9.42992 21.5811Z" fill="#B91C22"/>
<path d="M9.32457 24.1245C9.41514 23.7094 9.55099 23.3019 9.76986 22.9471C9.65665 24.0717 10.0491 25.1811 10.6 26.1471C10.9925 26.849 11.5283 27.4604 12.117 28.0113C11.7019 28.0113 11.2868 28.049 10.8717 28.0415C10.6227 28.3283 10.4038 28.6453 10.1623 28.9396C10.1397 28.9396 10.0944 28.9396 10.0717 28.9396C9.67174 28.0717 9.38495 27.1434 9.27174 26.1924C9.18872 25.4981 9.19627 24.7962 9.32457 24.1245Z" fill="#B61C22"/>
<path d="M22.1397 24.3585C22.6 23.9585 23.0302 23.5208 23.3698 23.0151C23.4076 23.4 23.5585 23.7623 23.6189 24.1472C23.2264 24.3661 22.8113 24.5774 22.3812 24.6831C22.3057 24.5774 22.2302 24.4642 22.1397 24.3585ZM22.4566 27.9661C23.0076 28.117 23.5585 28.2906 24.0717 28.5548C24.1246 28.5849 24.2 28.6227 24.2 28.6906C24.2755 29.8 24.3434 30.9925 24.9698 31.951C24.7963 31.9133 24.6604 31.8 24.5019 31.7321C23.7547 31.4076 22.9547 31.2642 22.1547 31.1283C22.034 31.0982 21.9132 31.068 21.7925 31.0529C21.9208 30.6755 22.0189 30.2831 22.1925 29.9208C22.2227 29.6114 22.3434 29.3246 22.4113 29.0227C22.4642 28.6755 22.4038 28.3208 22.4566 27.9661Z" fill="#DB0916"/>
<path d="M14.1771 23.3773C14.4564 23.7245 14.7658 24.0641 15.1281 24.3207C15.0677 24.4415 14.9998 24.5547 14.9319 24.6754C14.7432 24.6981 14.5847 24.5698 14.4036 24.5245C14.3281 24.4868 14.2375 24.4641 14.1771 24.4037C14.2224 24.0641 14.1394 23.7245 14.1771 23.3773Z" fill="#CC0F1C"/>
<path d="M18.4943 25.1661C18.9094 25.1661 19.3471 25.1283 19.7546 25.2264C19.8301 25.6038 19.7471 25.9887 19.7169 26.3661C19.6943 26.4717 19.7999 26.5397 19.8527 26.6151C19.7924 26.6378 19.732 26.6604 19.6641 26.6755C19.2037 26.6302 18.7358 26.6604 18.2754 26.6529C18.3509 26.1547 18.449 25.6642 18.4943 25.1661Z" fill="#B01D26"/>
<path d="M19.7553 25.2264C20.095 25.2189 20.427 25.2868 20.7516 25.3472C20.7214 25.649 20.6384 25.9434 20.6535 26.2453C20.6535 26.4189 20.7063 26.6075 20.6082 26.7585C20.2912 26.7132 19.9742 26.7132 19.6572 26.6755C19.7176 26.6528 19.778 26.6302 19.8459 26.6151C19.7931 26.5396 19.695 26.4717 19.7101 26.366C19.7478 25.9887 19.8308 25.6038 19.7553 25.2264Z" fill="#B91922"/>
<path d="M20.7586 25.3472C21.2265 25.4075 21.6718 25.5736 22.1171 25.7245V25.7547C22.1397 26.1849 22.2605 26.6226 22.1473 27.0528C21.8907 26.9849 21.6265 26.9547 21.3699 26.8943C21.1284 26.8189 20.8718 26.7887 20.6152 26.7585C20.7133 26.6 20.6605 26.4113 20.6605 26.2453C20.6454 25.9434 20.7209 25.6491 20.7586 25.3472ZM14.1548 28.1547C14.5926 28.0113 15.0303 27.8906 15.4831 27.8151C15.4831 28.2226 15.3624 28.6075 15.3397 29.0151C15.3322 29.3623 15.1737 29.6792 15.1435 30.0264C15.1133 30.366 15.1058 30.7887 14.8039 31C14.8718 31.0604 14.9397 31.1132 15.0152 31.1585C14.4945 31.234 13.9812 31.3472 13.4756 31.483C13.6492 30.6528 13.9812 29.8604 14.0492 29.0075C14.0643 28.7208 14.1095 28.4415 14.1548 28.1547Z" fill="#C5131E"/>
<path d="M15.1513 25.7623C15.3702 25.6265 15.6645 25.5359 15.9287 25.4906C15.9438 25.5434 15.9664 25.6038 15.9815 25.6566C15.9211 25.7925 15.8985 25.9434 15.9136 26.1019C15.9362 26.3434 15.8758 26.5774 15.8079 26.8114C15.823 26.8264 15.8457 26.8642 15.8532 26.8793L15.8834 26.917C15.6192 26.9321 15.3626 27 15.0985 27.0529C15.023 26.6302 15.1513 26.1925 15.1513 25.7623Z" fill="#BF1520"/>
<path d="M14.1471 26.4943C14.3962 26.1547 14.7585 25.9132 15.1509 25.7622C15.1585 26.1924 15.0226 26.6301 15.1056 27.0603C14.7132 27.1358 14.3358 27.2792 13.9434 27.3547C14.049 27.0754 13.9585 26.7433 14.1471 26.4943Z" fill="#CA101C"/>
<path d="M22.1167 25.7548C22.5016 25.9057 22.8714 26.1397 23.1205 26.4793C23.3167 26.7283 23.2337 27.0604 23.279 27.3548C22.9016 27.2491 22.5318 27.1359 22.1469 27.0529C22.2601 26.6227 22.1393 26.1925 22.1167 25.7548Z" fill="#D30C18"/>
<path d="M17.1588 26.6982C17.5286 26.6604 17.8985 26.6453 18.2758 26.6529C18.7362 26.6604 19.2041 26.6378 19.6645 26.6755C19.9815 26.7133 20.2985 26.7208 20.6154 26.7585C20.872 26.7812 21.1211 26.8114 21.3702 26.8944C20.94 26.8718 20.5098 26.7887 20.0796 26.7435C19.7777 26.7435 19.4758 26.7208 19.1815 26.6755C18.4494 26.6453 17.7249 26.6906 17.0003 26.7661C16.8117 26.8038 16.623 26.8189 16.4268 26.8114C16.6607 26.7585 16.9098 26.7284 17.1588 26.6982Z" fill="#6D0A10"/>
<path d="M17.4907 27.5585C18.102 27.5284 18.7058 27.4831 19.3171 27.5208C19.5662 27.5736 19.8228 27.5435 20.0719 27.5585C20.502 27.6189 20.9322 27.6567 21.3624 27.717L21.302 27.7321C21.1285 27.7397 20.9398 27.7019 20.7662 27.7548C20.6681 27.8755 20.6379 28.0416 20.6304 28.1925C20.6077 28.668 20.4719 29.1284 20.3209 29.5736C20.253 29.8076 20.0643 29.9812 19.9888 30.2152C19.9058 30.434 19.8228 30.6604 19.7398 30.8793C18.8568 30.8944 17.9737 30.8642 17.0907 30.9019C17.4832 29.8076 17.8303 28.6982 18.0719 27.5661C17.8832 27.5585 17.6794 27.551 17.4907 27.5585ZM14.3058 32.185C14.6907 32.1019 15.0756 32.0038 15.4681 31.9812C15.6115 31.9736 15.7624 31.9585 15.9058 31.951C15.6719 32.5623 15.3775 33.1435 15.1058 33.7321L15.0983 33.7548C14.7662 33.7699 14.4341 33.8755 14.102 33.868C14.0643 33.8076 13.9888 33.7548 14.0115 33.6718C14.0719 33.3246 14.1851 32.985 14.3058 32.6529C14.3587 32.5095 14.3209 32.3435 14.3058 32.185Z" fill="#B31B25"/>
<path d="M16.4115 27.6414C16.5625 27.6188 16.7134 27.6112 16.8644 27.6188C16.9172 27.6188 17.0153 27.6188 17.0606 27.6188C16.9247 28.7584 16.6455 29.8829 16.2757 30.9622L16.253 31.015C15.8379 31.0226 15.4304 31.1056 15.0228 31.1509C14.9474 31.098 14.8794 31.0452 14.8115 30.9924C15.121 30.7735 15.121 30.3509 15.1511 30.0188C15.1813 29.6716 15.3398 29.3546 15.3474 29.0075C15.37 28.6075 15.4908 28.215 15.4908 27.8075C15.7851 27.7169 16.1021 27.7169 16.4115 27.6414Z" fill="#B41B24"/>
<path d="M20.7659 27.7623C20.9395 27.7095 21.1207 27.7397 21.3018 27.7397C21.6942 27.7774 22.0791 27.8755 22.4641 27.9736C22.4112 28.3283 22.4641 28.6831 22.4188 29.0378C22.3433 29.3397 22.2301 29.6265 22.1999 29.9359C22.0263 30.2982 21.9282 30.6906 21.7999 31.068C21.1207 30.9774 20.4339 30.9472 19.7471 30.8944C19.8301 30.6755 19.9131 30.4491 19.9961 30.2302C20.0716 30.0038 20.2603 29.8227 20.3282 29.5887C20.4791 29.1434 20.6074 28.6831 20.6376 28.2076C20.6376 28.0491 20.6678 27.8831 20.7659 27.7623Z" fill="#C7121D"/>
<path d="M13.0528 28.6831C13.3547 28.4038 13.7773 28.3057 14.1471 28.1548C14.1018 28.4416 14.0566 28.7208 14.0339 29.0076C13.9735 29.8604 13.6339 30.6529 13.4603 31.4831C13.0981 31.5887 12.7358 31.7171 12.4113 31.9208L12.2905 31.9359C12.5849 31.5737 12.7207 31.1208 12.8339 30.6755C12.9773 30.0189 13.0528 29.3472 13.0528 28.6831Z" fill="#D60B17"/>
<path d="M8.91728 28.4491L8.92482 28.434C9.40784 29.7472 10.1173 30.9774 11.0833 32.0038C10.5626 31.9887 10.0418 32.0491 9.52105 32.0641C9.20407 32.4566 8.93237 32.8943 8.5852 33.2566C8.12482 32.3358 7.71728 31.3774 7.45312 30.3811C7.79275 30.0491 7.95124 29.5811 8.3135 29.2641C8.57011 29.0453 8.70596 28.7208 8.91728 28.4491Z" fill="#B21C22"/>
<path d="M16.2682 30.9697C16.5399 30.9546 16.8192 30.9245 17.0984 30.9094C17.9815 30.8716 18.8645 30.9018 19.7475 30.8867C20.4343 30.9471 21.1211 30.9773 21.8003 31.0603C21.9211 31.0754 22.0418 31.1056 22.1626 31.1358C21.8079 31.1509 21.4607 31.0377 21.106 31.0452C20.789 30.9697 20.4645 30.9924 20.1399 30.9697C19.3324 30.8641 18.5098 30.9245 17.6947 30.9094C17.2116 30.9848 16.7286 30.9546 16.2456 31.015L16.2682 30.9697Z" fill="#64080D"/>
<path d="M16.9852 31.7849C17.4154 31.8075 17.8381 31.7245 18.2683 31.7245C18.706 31.7396 19.1513 31.7018 19.5815 31.7547C19.9362 31.8151 20.306 31.7396 20.6607 31.8301C21.1739 31.8603 21.6796 31.9283 22.1852 32.0037C22.2003 32.0188 22.2456 32.0415 22.2607 32.0566C21.9739 32.0339 21.6871 31.9811 21.3928 31.9509C20.6909 31.8528 19.9739 31.8151 19.2645 31.7924C18.8947 31.7471 18.5173 31.7396 18.1475 31.7773C17.6569 31.8301 17.1588 31.7849 16.6683 31.8754C16.4117 31.9056 16.1626 31.9358 15.906 31.9585C15.7626 31.9735 15.6117 31.9811 15.4683 31.9886C15.5739 31.9056 15.7098 31.9283 15.8305 31.9132C16.2154 31.8679 16.6003 31.8301 16.9852 31.7849Z" fill="#72090F"/>
<path d="M16.6676 31.868C17.1582 31.785 17.6563 31.8227 18.1468 31.7699C18.5167 31.7246 18.894 31.7397 19.2638 31.785C18.7431 32.2529 18.4563 32.9246 17.9355 33.3925C17.9506 33.551 18.1695 33.4982 18.2902 33.5359C17.7921 33.5812 17.2865 33.5359 16.7959 33.5963C16.5167 33.6265 16.2374 33.6265 15.9506 33.6491C15.9053 33.6491 15.7997 33.6416 15.7544 33.6416C16.0714 33.0605 16.4035 32.4793 16.6676 31.868Z" fill="#B61A24"/>
<path d="M19.2714 31.7849C19.9808 31.8076 20.6978 31.8453 21.3997 31.9434C21.3167 32.1472 21.1129 32.2226 20.9393 32.3132C20.6525 32.4415 20.5016 32.7359 20.2525 32.9094C20.0337 33.1132 19.7318 33.2038 19.5506 33.4453C19.8072 33.5057 20.0789 33.4906 20.328 33.5585C19.6488 33.5736 18.9695 33.5132 18.2903 33.5283C18.1695 33.4906 17.9506 33.551 17.9355 33.3849C18.4638 32.9245 18.7506 32.2604 19.2714 31.7849Z" fill="#CA111C"/>
<path d="M21.3999 31.9509C21.6867 31.9811 21.9735 32.0339 22.2678 32.0566C23.015 32.1547 23.7395 32.366 24.4414 32.6226C24.1923 32.8566 24.1697 33.2189 23.9735 33.483C23.8527 33.6415 23.7395 33.8075 23.6565 33.9811C22.9169 33.8377 22.1772 33.7321 21.4301 33.6641C21.0678 33.6038 20.698 33.649 20.3433 33.566C20.0867 33.4905 19.8225 33.5132 19.5659 33.4528C19.7471 33.2113 20.0489 33.1207 20.2678 32.917C20.5169 32.7358 20.6678 32.449 20.9546 32.3207C21.1131 32.2302 21.3169 32.1472 21.3999 31.9509Z" fill="#DD0814"/>
<path d="M13.3551 32.4415C13.6721 32.351 13.9815 32.2529 14.3061 32.1849C14.3212 32.3434 14.3589 32.5095 14.3061 32.6604C14.1853 32.9925 14.0721 33.3321 14.0117 33.6793C13.9891 33.7623 14.0646 33.8151 14.1023 33.8755L14.1325 33.9132C13.7325 33.9208 13.3627 34.0944 12.9702 34.1246C13.0306 33.8755 13.0381 33.6113 13.1136 33.3623C13.1891 33.0604 13.3249 32.7736 13.3551 32.4566V32.4415Z" fill="#C4131E"/>
<path d="M23.9661 33.4831C24.1699 33.2189 24.1925 32.8566 24.4341 32.6227C24.8114 32.7812 25.1963 32.9472 25.5208 33.1963C25.7095 33.3397 25.8378 33.5585 25.8831 33.8C25.951 34.1699 26.0416 34.5472 26.0869 34.917C25.3624 34.4114 24.4944 34.1699 23.6416 33.9812C23.7322 33.8076 23.8454 33.6415 23.9661 33.4831Z" fill="#EB020F"/>
</g>
<defs>
<clipPath id="clip0_1044_4628">
<rect width="22" height="33.917" fill="white" transform="translate(7 1)"/>
</clipPath>
</defs>
</svg>