<svg xmlns:dc="http://purl.org/dc/elements/1.1/" xmlns:cc="http://creativecommons.org/ns#" xmlns:rdf="http://www.w3.org/1999/02/22-rdf-syntax-ns#" xmlns:svg="http://www.w3.org/2000/svg" xmlns="http://www.w3.org/2000/svg" viewBox="0 0 180.67999 204.01334" height="204.01334" width="180.67999" xml:space="preserve" id="svg2" version="1.1"><script xmlns="" id="eppiocemhmnlbhjplcgkofciiegomcon"/><script xmlns=""/><script xmlns=""/><metadata id="metadata8"><rdf:RDF><cc:Work rdf:about=""><dc:format>image/svg+xml</dc:format><dc:type rdf:resource="http://purl.org/dc/dcmitype/StillImage"/></cc:Work></rdf:RDF></metadata><defs id="defs6"/><g transform="matrix(1.3333333,0,0,-1.3333333,0,204.01333)" id="g10"><g transform="scale(0.1)" id="g12"><path id="path14" style="fill:#e6e6e8;fill-opacity:1;fill-rule:nonzero;stroke:none" d="M 677.555,0 650.047,17.2891 C 189.469,306.719 -39.4102,796.902 5.5625,1397.54 l 2.60547,34.81 33.26953,10.59 c 102.2535,32.54 320.8675,87.15 636.1175,87.15 315.246,0 533.865,-54.61 636.125,-87.15 l 33.26,-10.59 2.61,-34.81 C 1394.53,796.902 1165.64,306.719 705.063,17.2891 L 677.555,0"/><path id="path16" style="fill:#eb2023;fill-opacity:1;fill-rule:nonzero;stroke:none" d="M 677.555,25.4492 661.512,35.5313 C 208.02,320.512 -17.3047,803.641 27.0469,1395.93 l 1.5195,20.3 19.4063,6.18 c 101.0623,32.17 317.2423,86.14 629.5823,86.14 312.332,0 528.515,-53.97 629.585,-86.14 l 19.41,-6.18 1.52,-20.3 C 1372.42,803.637 1147.1,320.512 693.598,35.5313 L 677.555,25.4492"/><path id="path18" style="fill:#ffffff;fill-opacity:1;fill-rule:nonzero;stroke:none" d="m 1297.99,1393.68 c -139.9,44.53 -353.736,84.71 -620.435,84.71 -266.703,0 -480.539,-40.18 -620.4339,-84.71 C 13.8398,815.652 228.223,377.629 677.555,95.2695 1126.89,377.629 1341.28,815.652 1297.99,1393.68"/><path id="path20" style="fill:#eb2023;fill-opacity:1;fill-rule:nonzero;stroke:none" d="m 451.234,837.828 c -47.949,4.934 -88.839,-15.312 -107.394,-70.058 -19.852,-82.614 -9.293,-172.668 36.539,-252.059 29.43,-50.981 69.961,-91.563 116.766,-120.449 -16.989,17.367 -38.68,44.699 -63.258,91.398 -60.532,122.895 -40.328,289.813 17.347,351.168 z M 632.766,397.48 C 592.68,461.582 603.34,579.641 657.258,686.566 628.703,732.355 590.855,770.914 551.129,797.734 443.547,671.32 478.734,324.391 709.547,345.281 c 0.262,0.02 0.527,0.028 0.793,0.051 -27.492,6.5 -54.973,15.977 -77.574,52.148 z M 973.285,576.574 C 897.137,462.711 742.477,396.75 660.5,416.02 c 19.699,-43.989 57.68,-69.29 114.367,-57.981 81.469,24.121 154.192,78.293 200.02,157.672 29.433,50.98 44.313,106.359 45.943,161.352 -6.56,-23.399 -19.38,-55.86 -47.545,-100.489 z M 688.48,670.07 c -25.371,-47.625 -39.843,-99.675 -43.207,-147.5 163.27,-29.961 446.127,173.985 312.633,363.434 -0.144,0.215 -0.293,0.434 -0.449,0.648 8.125,-27.05 13.66,-55.589 -6.367,-93.25 C 915.609,726.633 808.043,676.84 688.48,670.07 Z m -62.757,328.688 c 136.695,-9.024 271.148,-109.977 295.445,-190.606 28.242,39.059 31.16,84.598 -6.973,128.043 -61.621,58.485 -144.89,94.385 -236.562,94.385 -58.867,0 -114.27,-14.81 -162.699,-40.896 23.539,6.023 58.058,11.146 110.789,9.074 z M 449.051,871.121 c 75.554,2.66 172.469,-65.601 238.113,-165.758 53.926,1.836 106.238,15.332 149.336,36.328 -55.684,156.372 -373.734,299.369 -471.059,89.036 -0.109,-0.243 -0.226,-0.481 -0.332,-0.715 19.36,20.562 41.313,39.621 83.942,41.109"/><path id="path22" style="fill:#eb2023;fill-opacity:1;fill-rule:nonzero;stroke:none" d="m 671.168,1185.96 c 13.262,0.03 26.512,-0.04 39.773,-0.21 0,70.41 0,140.84 0,211.27 -13.261,0.17 -26.511,0.24 -39.773,0.21 0,-70.43 0,-140.85 0,-211.27"/><path id="path24" style="fill:#eb2023;fill-opacity:1;fill-rule:nonzero;stroke:none" d="m 1085.23,1363.74 c -31.46,-65.22 -63,-131.04 -94.589,-197.47 14.389,-1.82 28.759,-3.77 43.129,-5.84 24.4,52.12 48.76,103.87 73.09,155.27 13.01,-32.25 26.01,-64.61 38.99,-97.06 -18.18,3.46 -36.39,6.73 -54.62,9.79 -5.35,-11.47 -10.7,-22.97 -16.05,-34.48 28.92,-4.66 57.77,-9.84 86.53,-15.52 5.89,-14.45 11.77,-28.91 17.66,-43.4 14.35,-2.94 28.68,-6.01 42.99,-9.21 -31.2,77.4 -62.51,154.19 -93.9,230.38 -14.39,2.64 -28.81,5.15 -43.23,7.54"/><path id="path26" style="fill:#eb2023;fill-opacity:1;fill-rule:nonzero;stroke:none" d="m 967.84,1291.28 c -27.707,3.24 -55.453,6.01 -83.215,8.32 -5.41,-11.42 -10.82,-22.86 -16.23,-34.31 20.964,-1.61 41.921,-3.49 62.863,-5.62 0,-10.33 0,-20.65 0,-30.97 -13.457,-13.18 -32.746,-20.45 -54.184,-18.74 -40.738,3.29 -73.816,37.7 -73.816,78.31 0,40.57 33.078,71.96 73.816,68.67 10.766,-0.87 20.981,-4.04 30.188,-9.02 5.031,10.73 10.066,21.45 15.105,32.15 -13.816,7.55 -29.148,12.38 -45.293,13.68 -61.14,4.94 -110.828,-43.02 -110.828,-103.89 0,-60.96 49.688,-111.76 110.828,-116.7 37.629,-3 70.813,12.1 90.766,38.34 v 0.01 c 0,26.58 0,53.17 0,79.77"/><path id="path28" style="fill:#eb2023;fill-opacity:1;fill-rule:nonzero;stroke:none" d="m 515.309,1391.96 c -13.34,-0.87 -26.676,-1.85 -40.004,-2.92 0,-70.43 0,-140.85 0,-211.27 49.675,4.03 99.441,6.58 149.23,7.63 0,12.28 0,24.55 0,36.82 -36.43,-0.77 -72.851,-2.34 -109.226,-4.71 0,58.15 0,116.3 0,174.45"/><path id="path30" style="fill:#eb2023;fill-opacity:1;fill-rule:nonzero;stroke:none" d="m 133.637,1276 c 3.871,50.69 46.511,74.32 86.691,81.71 39.262,7.41 81.707,-1.84 81.707,-51.36 0.008,-54.03 -40.051,-72.04 -84.398,-80.4 -17.692,-3.26 -45.5,-13.47 -45.492,-36.42 0,-6.04 0,-12.08 0,-18.12 43.328,8.96 86.843,16.75 130.488,23.38 0,-12.38 0,-24.74 0,-37.12 -56.887,-8.63 -113.543,-19.25 -169.883,-31.84 0.004,18.51 0.004,37.01 0,55.53 0,48.6 43.508,72.83 84.887,80.49 15.871,3.04 44.996,13.18 45,37.28 0,22.91 -18.028,27.79 -42.309,24.18 -23.086,-4.27 -46.691,-17.9 -47.578,-38.91 -13.051,-2.69 -26.09,-5.49 -39.113,-8.4"/><path id="path32" style="fill:#eb2023;fill-opacity:1;fill-rule:nonzero;stroke:none" d="m 379.234,1187.11 c -0.011,-28.56 -43.461,-34.17 -43.453,-5.62 -0.015,28.79 43.442,34.4 43.453,5.62"/></g></g></svg>