<svg xmlns="http://www.w3.org/2000/svg" xmlns:xlink="http://www.w3.org/1999/xlink" height="268" viewBox="0 0 184 268" width="184"><script xmlns="" id="eppiocemhmnlbhjplcgkofciiegomcon"/><script xmlns=""/><script xmlns=""/><mask id="a" fill="#fff"><path d="m0 1.00006858h183.886139v266.81705442h-183.886139z" fill="#fff" fill-rule="evenodd"/></mask><mask id="b" fill="#fff"><path d="m137.993464 110.817192h-.022647-.091732c-4.071895.0696-8.624183 1.9952-13.702614 6.728-4.506308 4.1992-9.379314 9.0944-13.130491 13.8968l.274281.4176c1.715915 2.3896 3.888889 4.2688 6.336373 5.5912s.023105 0 .023105.0232c.022875.0232.068627.0232.091503.046168.022876 0 .022876.023432.045751.023432.022876.0232.045752.0232.068399.0232.023105.0232.045981.0232.091732.0464.206111.116.411765.2088.617647.301368 2.584968 1.229832 5.444445 1.879432 8.303922 1.879432h.137255c.388889 0 .777777-.0232 1.166666-.046168 1.990425-.139664 3.980393-.557032 5.879314-1.322632.320033-.1392.662941-.2784.983431-.4176.068628-.0232.137255-.069832.183007-.093032.022876 0 .022876-.022736.045752-.022736.022875-.023432.04598-.023432.068627-.046632.022647-.0232.045752-.0232.068628-.0464.022875-.0232.045751-.0232.068627-.0232.045752-.023432.068627-.0464.11415-.0464.023105 0 .023105-.0232.045981-.0232.045751-.0232.068627-.046168.11415-.0696.023105 0 .023105-.0232.04598-.0232.045752-.0232.068628-.0464.091732-.0464.022648 0 .022648-.0232.045523-.0232.045523-.023432.091504-.0464.137255-.0696.022876 0 .022876-.0232.022876-.0232.045752-.022968.068399-.0464.114379-.0696.022876 0 .022876-.023432.045752-.023432.022876-.022968.068627-.046168.091732-.046168.022647 0 .022647-.023432.045294-.023432.04598-.022968.091732-.046168.137712-.069368.022647 0 .022647-.0232.045523-.0232.022876-.0232.068628-.0464.091503-.069832.023105-.022968.045752-.022968.045752-.022968.022876-.0232.068399-.0464.091503-.0464.022876 0 .022876-.0232.045523-.0232.045981-.022968.091732-.0464.137484-.0696.022647 0 .045752-.0232.045752-.0232.022875-.0232.068627-.0464.091503-.0464.023104-.023432.045751-.023432.068399-.046168.023104-.023432.068856-.046632.091732-.0696.022875 0 .022875-.023432.045751-.023432.045981-.0232.091275-.046632.137255-.0928.022876-.0232.022876-.0232.045752-.0232.022876-.022968.068627-.0464.091503-.0696.022876-.022968.022876-.022968.045523-.022968.04598-.023432.091732-.070064.137712-.093032 1.074935-.7424 2.058824-1.5776 2.927876-2.4824.045752-.046168.068628-.0928.114379-.116l.022876-.0232c.045523-.0464.068627-.093032.11415-.115768.045981-.046632.069085-.069832.114608-.116232.022876-.0232.022876-.0464.045523-.0464.023105-.0232.04598-.0464.068856-.069368.022876-.023432.045752-.046632.068856-.069832.022648-.0232.022648-.0464.045295-.0464.04598-.0464.091732-.0928.137483-.1624l.022876-.0232c.023105-.0232.045752-.0696.068399-.0928 0-.0232.023104-.0232.023104-.0464.022876-.0232.045752-.0696.068628-.0928l.022876-.0232c.068627-.0928.16013-.1856.228758-.278168 0-.023432.023104-.023432.023104-.046632.022419-.0232.045523-.0464.068399-.0696.022647-.0232.022647-.0464.045752-.0696.022875-.022968.04598-.0464.04598-.0696.022647-.0464.068399-.0696.091046-.116.023104-.0232.04598-.069368.068856-.0928 2.013072-2.6912 3.22549-5.8464 3.568856-9.1176v-.0464-.0696-.0232-.0464-.0464-.022968c.022647-.139432.022647-.255432.022647-.394632.022647-.348.045752-.696.045752-1.044v-.0696-.2552c0-.8352-.068399-1.6936-.206111-2.5056-.297157-2.0648-.960785-4.082968-1.990196-5.9856v-.0232c-.045523-.0928-.091275-.162168-.137026-.2552s0-.0232-.022876-.0232c-.022876-.0464-.045752-.0696-.068628-.116s0-.0232-.022876-.0232c-.022875-.0464-.04598-.0928-.068627-.115768-1.555556-.6728-3.202614-1.090632-4.918301-1.160232h-.022647-.137483-.045981-.091274-.091732-.091046c.182778-.0232.137026-.0232.11415-.0232z" fill="#fff" fill-rule="evenodd"/></mask><g fill="none" fill-rule="evenodd" transform="translate(0 -.817192)"><path d="m92.9108911 267.611387c-20.7683168 0-40.3752475-2.377169-58.2970297-7.040753-12.6386139-3.291781-20.449505-6.76621-22.7267327-7.863699-7.40099009-2.834589-11.65940593-8.32089-11.65940593-15.064469l.2049505-208.6394694c0-6.7207192 4.23564356-12.2298802 11.63663363-15.1101884 5.0326733-2.2402397 31.2891089-12.6870719 79.019802-12.6870719 48.5732671 0 77.3346531 11.2469178 80.7960401 12.6870719 7.492079 2.8117295 11.796039 8.3208904 11.796039 15.1101884l.022772 208.6394694c0 6.675228-4.190099 12.16153-11.477227 15.064469-5.283169 2.674572-31.949505 14.904452-79.3158419 14.904452" fill="#fff"/><path d="m92.9108911 267.611387v.205736c-20.7910891 0-40.4207921-2.377397-58.3653465-7.063613-12.6386139-3.291552-20.4722773-6.766438-22.7722773-7.86347l.0910891-.205965-.0683168.205965c-7.46930693-2.857448-11.7960396-8.412557-11.7960396-15.247574l.2049505-208.6394694c0-6.8121576 4.32673267-12.4127569 11.7732673-15.3159247l.0683169.2057363-.0910892-.2057363c5.1009901-2.2402397 31.3801981-12.6870719 79.1336634-12.6870719 48.5960401 0 77.4029701 11.2697774 80.8643561 12.6870719l-.091089.2057363.068317-.2057363c7.560396 2.8345891 11.932673 8.4351884 11.932673 15.3159247l.022773 208.6394694c0 6.789526-4.258416 12.344178-11.613862 15.270205l-.068317-.205736.09109.183105c-5.305941 2.697203-31.972278 14.927083-79.4069312 14.927083v-.205736-.205508c47.3435642 0 73.9643562-12.207249 79.2019802-14.881821 7.241584-2.903168 11.340594-8.275171 11.340594-14.858733v-208.6394688c0-6.675-4.212871-12.0927226-11.659406-14.9044521-3.393069-1.4401541-32.154455-12.68707191-80.6821781-12.68707191-47.7079208 0-73.9188119 10.42397261-78.9514851 12.64135271-7.35544558 2.8803083-11.50000004 8.2980309-11.50000004 14.9273117l-.20495049 208.6394694c0 6.65214 4.16732673 12.024144 11.52277223 14.858733 2.2772278 1.074629 10.0881189 4.549058 22.7039604 7.840839 17.8990099 4.663584 37.5059406 7.040753 58.2514852 7.040753z" fill="#a5a6aa" mask="url(#a)"/><path d="m6.19410495 230.78468c0 4.229024 2.84653465 7.612244 8.01584155 9.532449.2504951.091438 28.6475248 14.447032 78.7009901 14.447032 50.6455444 0 76.6059404-14.287243 76.8564354-14.378453 5.123763-1.966153 7.947525-5.372004 7.947525-9.578168v-201.7815924c0-4.229024-2.846535-7.6122431-7.993069-9.5324486-.250495-.0914384-28.62498-12.27559934-78.6099013-12.27559934-50.5772277 0-76.5148515 12.11558214-76.7653465 12.20702054-5.12376238 1.9659247-7.94752475 5.3720034-7.94752475 9.5781678z" fill="#008740" mask="url(#a)"/><path d="m174.868408 229.893065c0 3.291781-1.776465 5.646319-5.465347 7.177911-.250722.114298-28.647752 14.858733-77.2663362 15.064469h-.7059406-.7059406c-48.6188119-.228596-76.2415842-15.064469-76.4920792-15.178767-3.6663367-1.531592-5.4425743-3.88613-5.4425743-7.177911l.2730396-200.410017c0-3.2460616 1.8447822-5.6920377 5.4883465-7.2693493 1.1386139-.4800514 28.5336634-12.43561645 76.8334357-12.45847604h.0457723.0455445c48.3227723.02285959 76.7881193 11.97842464 77.9267323 12.43561644 3.643565 1.5773116 5.488119 4.0232877 5.488119 7.2693493z" fill="#fff" mask="url(#a)"/><path d="m65.3792307 256.29589-.6148515 6.12637s-18.650495-1.623031-37.3693069-7.315068c-20.4267327-6.21758-21.20099012-10.60685-21.20099012-10.60685v-6.949315s2.3 4.274744 8.72178222 6.880965c5.3287128 2.171661 20.8366336 8.572346 50.4633663 11.863898" fill="#008740" mask="url(#a)"/><path d="m118.689154 256.593019.614852 6.126599s18.627723-1.62326 37.369307-7.315069c20.426733-6.217808 21.200762-10.607078 21.200762-10.607078v-6.949315s-2.299772 4.274743-8.721554 6.880965c-5.328713 2.171661-20.836634 8.572346-50.463367 11.863898" fill="#e42332" mask="url(#a)"/><g fill="#008d4c"><path d="m52.1029248 163.897386h4.9188118c.1821783 1.417294.7287129 2.400257 1.6168317 2.971746.9336634.662928 2.2316832.983191 3.8712871.983191 1.4574258 0 2.5504951-.251684 3.3019802-.777454.7514852-.525542 1.1158416-1.279909 1.1158416-2.2631 0-1.508733-2.0950495-2.720062-6.330693-3.657534l-.1366337-.068579-.5693069-.136929c-2.3910891-.503139-3.9851486-1.051769-4.7821783-1.623259-.9336633-.525771-1.5940594-1.280137-1.9584158-2.262871-.4782178-.846033-.7059406-1.920434-.7059406-3.24629 0-2.30859.7970297-4.114726 2.3910891-5.417723 1.5940594-1.279908 3.9168317-1.897345 6.9455446-1.897345 2.8465346 0 5.0554455.663156 6.6039604 1.965924 1.5940594 1.463014 2.4366336 3.36036 2.5277227 5.714897h-2.8009901c-1.070297 0-1.8445544-.502682-2.3227722-1.485873-.2277228-.480051-.569307-.868664-.979208-1.18847-.8425742-.617209-2.0039604-.914383-3.4386138-.914383-1.4118812 0-2.4138614.251226-3.0287129.776997-.7059406.525771-1.0475247 1.257277-1.0475247 2.194749 0 1.279909 1.3663366 2.217152 4.0762376 2.81173.7970297.228595 1.3891089.388613 1.7534653.434103.8425743.274315 1.5712872.502911 2.2089109.662928.6376238.160246 1.1386139.297175 1.5029703.388842.6603961.274315 1.3207921.57149 1.9584159.845805.9336633.571489 1.6623762 1.302768 2.1861386 2.194292.5009901.982962.7742574 2.057363.7742574 3.24629 0 2.537186-.8425743 4.503339-2.5277228 5.920405-1.6851485 1.326085-4.0762376 1.966153-7.1732673 1.966153-3.1881188 0-5.5792079-.685788-7.1732673-2.034732-1.6851485-1.394206-2.6415842-3.428938-2.7782178-6.10351" mask="url(#a)"/><path d="m78.5187663 160.171318h7.1732674c-.0910891-1.280136-.4326733-2.21738-.979208-2.811729-.6148514-.662928-1.480198-.982962-2.5960396-.982962-1.0247524 0-1.8673267.320034-2.5277227.982962-.6831684.640069-1.0247525 1.57754-1.0702971 2.811729m8.4257426 5.486302h3.5069307c-.5237624 1.966153-1.5029703 3.474657-2.9376238 4.503339-1.4574257 1.074401-3.2792079 1.623031-5.4881188 1.623031-2.6643564 0-4.7594059-.868665-6.2623762-2.605993-1.5029703-1.69161-2.2544555-4.114726-2.2544555-7.269121 0-3.017694.7287129-5.372004 2.1861387-7.040982 1.5029703-1.737329 3.5752475-2.605993 6.2623762-2.605993 2.8009901 0 4.9871287.846033 6.5356436 2.537414 1.5029703 1.737557 2.2544554 4.160445 2.2544554 7.269349v.480052.274543l-.0683168.479823h-12.1603961c.0455446 1.463242.3871287 2.537415 1.0475248 3.246062.6148515.754366 1.5257426 1.12012 2.7326733 1.12012.7970297 0 1.480198-.159789 2.0267326-.502683l.3871287-.251684.3871288-.388613c.0455445-.137157.2277227-.320034.5237623-.571489.3188119-.182877.7514852-.297175 1.3207921-.297175" mask="url(#a)"/><path d="m92.7058495 171.44105v-9.098116c0-1.828767.2732673-3.383219.7970297-4.617637.5465347-1.234189 1.2754753-2.24024 2.2089109-2.994606.8883465-.708419 1.9356436-1.21133 3.119802-1.554224 1.1843859-.320263 2.4138609-.503139 3.6893369-.503139h.364128.341585v5.006478h-1.616604c-1.366337 0-2.3685449.319806-3.0287132.982962-.6606238.6627-.9794357 1.691381-.9794357 3.108676v9.669606z" mask="url(#a)"/><path d="m105.344463 152.696187h2.527951c.660168 0 1.206703.228596 1.684921.708876.455445.479823.706168 1.028682.706168 1.691381v16.367694h-4.91904zm0-5.509161h2.527951c.660168 0 1.206703.228596 1.684921.708647.455445.457192.706168 1.028682.706168 1.69161v1.485873h-4.91904z" mask="url(#a)"/><path d="m117.550541 160.171318h7.173267c-.091089-1.280136-.409901-2.21738-.979208-2.811729-.614851-.662928-1.480198-.982962-2.59604-.982962-1.024752 0-1.867326.320034-2.527722.982962-.683169.640069-1.024753 1.57754-1.070297 2.811729m8.425742 5.486302h3.506703c-.523535 1.966153-1.502742 3.474657-2.960396 4.503339-1.457198 1.074401-3.27898 1.623031-5.465346 1.623031-2.664129 0-4.759179-.868665-6.262377-2.605993-1.502742-1.69161-2.254227-4.114726-2.254227-7.269121 0-3.017694.728712-5.372004 2.186138-7.040982 1.502971-1.737329 3.575248-2.605993 6.262376-2.605993 2.800763 0 4.987129.846033 6.535644 2.537414 1.502743 1.737557 2.254455 4.160445 2.254455 7.269349v.480052.274543l-.068544.479823h-12.160168c.045544 1.463242.387128 2.537415 1.047524 3.246062.614852.754366 1.525743 1.12012 2.732674 1.12012.797029 0 1.480198-.159789 2.026732-.502683l.387129-.251684.386901-.388613c.045772-.137157.227723-.320034.52399-.571489.318812-.182877.751485-.297175 1.320792-.297175" mask="url(#a)"/></g><path d="m50.9416297 232.224789c8.1980198 0 13.6405941-5.143408 14.870297-13.144264l5.6019802-36.232448-31.4029703-.02286c-8.1980198 0-13.640594 5.143407-14.870297 13.144264l-5.6019802 36.232448z" fill="#7cb93f" mask="url(#a)"/><path d="m40.4207921 204.221792h7.0366336c1.9811882 0 4.4178218-.52577 4.2128713-2.331678-.2049505-1.760188-1.890099-2.080222-4.1217821-2.080222h-6.4217822zm-1.7990099 10.858305h8.0158416c2.2089109 0 5.2148514-.57149 4.9188118-2.948887-.2732673-2.171661-2.5277227-2.491695-5.1237623-2.491695h-6.8772278zm-8.4940594-22.196661h20.8366336c8.790099 0 12.3653466 2.194521 12.8663367 6.400685.4554455 3.680394-1.8217822 6.080651-6.5811881 7.017894h-.0455446v.091438c3.8257426.57149 6.5128713 3.154624 6.8544554 5.829195.8653466 7.017894-6.6495049 9.806764-15.5079208 9.806764h-23.2732673z" fill="#fff" mask="url(#a)"/><path d="m96.9872198 232.224789c8.1980202 0 13.6403662-5.143408 14.8702972-13.144264l5.601752-36.232448-31.37997-.02286c-8.1980198 0-13.640594 5.143407-14.870297 13.144264l-5.6019802 36.232448z" fill="#3dab50" mask="url(#a)"/><path d="m74.5336178 192.883528h12.2059406l-1.5712871 9.577939.1138614.091667 12.3883465-9.669606h15.8948218l-17.5118812 12.001284 13.4811882 17.144692h-13.708911l-8.6079208-11.315497-3.8485148 2.788641-1.3663366 8.526856h-12.2059406z" fill="#fff" mask="url(#a)"/><path d="m143.055491 232.224789c8.19802 0 13.640366-5.143408 14.870297-13.144264l5.601753-36.232448-31.402743-.02286c-8.19802 0-13.640594 5.143407-14.870297 13.144264l-5.60198 36.232448z" fill="#008d4c" mask="url(#a)"/><path d="m131.988028 200.335662h-11.226733l1.229931-7.475085h34.97799l-1.229475 7.475085h-11.249733l-3.597792 21.69375h-12.502208z" fill="#fff" mask="url(#a)"/><path d="m116.912962 46.3992124c-3.848514-.1142979-7.811118-3.223202-9.837623-7.7265411-1.457654-3.2689212-1.685377-6.8121575-.546763-9.509589.751485-1.8516267 2.049505-3.1546233 3.757426-3.7946918.82003-.3200343 1.685376-.4571918 2.596267-.4343322 3.848287.1142979 7.810891 3.2232021 9.837624 7.7265411 1.457198 3.2460616 1.684921 6.8121575.569307 9.509589-.774257 1.8287672-2.072505 3.1546233-3.757426 3.8175514-.842574.2743151-1.707921.4343322-2.618812.4114726" fill="#006aaf" mask="url(#a)"/><path d="m51.032696 124.78472c-.6831683-.022859-1.2980198-.457191-1.7534653-1.280137l-.0455446-.091438c-2.3227722-6.537842.9108911-15.613099 13.3445545-21.14512 5.3970297-2.4002567 9.4732673-4.5261985 12.4792079-6.4921231 4.8277228-3.1546233 4.6455446-7.8865582 3.8029703-9.6924658-.250495-.5486301-.5465346-1.3258561-.1594059-1.8973459.1594059-.2514554.5009901-.5029109 1.1613861-.4800513s1.5485149.3200342 2.3683168.6400685c2.1405941.8458048 7.1732674 3.2460616 7.3326733 7.5208048.1821782 5.00625-6.3306931 10.6754278-19.4019802 16.9160958-12.3653465 5.897774-16.5554455 13.578596-16.9881188 14.424401l-.0227723.045719c-.660396 1.028681-1.3663366 1.531592-2.1178218 1.531592" fill="#ee7a2e" mask="url(#a)"/><path d="m96.8960396 128.419372-.5237624-.091438c-6.6950495-2.011644-9.450495-8.046576-9.6554455-10.492552-.2504951-2.971746 0-6.172089 3.6891089-9.41815 2.8237624-2.468836 6.5584158-4.823374 10.1792084-7.086473 5.943564-3.7032533 12.092079-7.5436642 12.729702-11.3612156.227723-1.3258562-.20495-2.6059931-1.320792-3.9318493-2.732673-3.2460617-10.40693-3.8861301-17.2158412-4.4347603-7.0594059-.5714897-13.1396039-1.0744007-14.8930693-4.0690068-.3415841-.5486302-.409901-1.1658391-.2049505-1.8059076.7742574-2.6745719 6.2851485-5.6005993 12.6158416-9.006678 7.4009901-3.954709 16.6009904-8.9152398 15.8495054-12.9156679-.819802-4.3433219-12.6841589-7.8865582-35.2970301-10.4925513-6.1257426-1.0515411-20.4267327-8.5266267-20.039604-11.7269692.1821782-1.4858733 2.3683168-1.4401541 3.0970297-1.4172945.4326733 0 .9336634.0457192 1.480198.1142979 22.7039604 2.5374144 53.5831684 13.738613 55.9287124 22.7224315 1.366337 5.1891267-5.715841 9.5553082-11.932673 13.3957192-3.7801978 2.3316781-8.0841582 4.9833904-7.4009899 6.4464041.6376238 1.3258562 5.8069307 2.2630993 10.8396039 3.2003425 8.448515 1.554452 18.946535 3.4746575 21.428713 8.8238014 2.983168 6.4692636-5.624753 13.2585616-14.756436 20.4821919-4.645544 3.657534-9.427722 7.452226-12.7069304 11.224058-2.2772277 3.566096-1.3891089 6.857877-.2277228 8.960959.3871288.708647.3871288 1.463014 0 2.057363-.3415841.502911-.9792079.822945-1.6623762.822945" fill="#009b49" mask="url(#a)"/><path d="m137.993464 110.817192h-.022647-.091732c-4.071895.0696-8.624183 1.9952-13.702614 6.728-4.506308 4.1992-9.379314 9.0944-13.130491 13.8968l.274281.4176c1.715915 2.3896 3.888889 4.2688 6.336373 5.5912s.023105 0 .023105.0232c.022875.0232.068627.0232.091503.046168.022876 0 .022876.023432.045751.023432.022876.0232.045752.0232.068399.0232.023105.0232.045981.0232.091732.0464.206111.116.411765.2088.617647.301368 2.584968 1.229832 5.444445 1.879432 8.303922 1.879432h.137255c.388889 0 .777777-.0232 1.166666-.046168 1.990425-.139664 3.980393-.557032 5.879314-1.322632.320033-.1392.662941-.2784.983431-.4176.068628-.0232.137255-.069832.183007-.093032.022876 0 .022876-.022736.045752-.022736.022875-.023432.04598-.023432.068627-.046632.022647-.0232.045752-.0232.068628-.0464.022875-.0232.045751-.0232.068627-.0232.045752-.023432.068627-.0464.11415-.0464.023105 0 .023105-.0232.045981-.0232.045751-.0232.068627-.046168.11415-.0696.023105 0 .023105-.0232.04598-.0232.045752-.0232.068628-.0464.091732-.0464.022648 0 .022648-.0232.045523-.0232.045523-.023432.091504-.0464.137255-.0696.022876 0 .022876-.0232.022876-.0232.045752-.022968.068399-.0464.114379-.0696.022876 0 .022876-.023432.045752-.023432.022876-.022968.068627-.046168.091732-.046168.022647 0 .022647-.023432.045294-.023432.04598-.022968.091732-.046168.137712-.069368.022647 0 .022647-.0232.045523-.0232.022876-.0232.068628-.0464.091503-.069832.023105-.022968.045752-.022968.045752-.022968.022876-.0232.068399-.0464.091503-.0464.022876 0 .022876-.0232.045523-.0232.045981-.022968.091732-.0464.137484-.0696.022647 0 .045752-.0232.045752-.0232.022875-.0232.068627-.0464.091503-.0464.023104-.023432.045751-.023432.068399-.046168.023104-.023432.068856-.046632.091732-.0696.022875 0 .022875-.023432.045751-.023432.045981-.0232.091275-.046632.137255-.0928.022876-.0232.022876-.0232.045752-.0232.022876-.022968.068627-.0464.091503-.0696.022876-.022968.022876-.022968.045523-.022968.04598-.023432.091732-.070064.137712-.093032 1.074935-.7424 2.058824-1.5776 2.927876-2.4824.045752-.046168.068628-.0928.114379-.116l.022876-.0232c.045523-.0464.068627-.093032.11415-.115768.045981-.046632.069085-.069832.114608-.116232.022876-.0232.022876-.0464.045523-.0464.023105-.0232.04598-.0464.068856-.069368.022876-.023432.045752-.046632.068856-.069832.022648-.0232.022648-.0464.045295-.0464.04598-.0464.091732-.0928.137483-.1624l.022876-.0232c.023105-.0232.045752-.0696.068399-.0928 0-.0232.023104-.0232.023104-.0464.022876-.0232.045752-.0696.068628-.0928l.022876-.0232c.068627-.0928.16013-.1856.228758-.278168 0-.023432.023104-.023432.023104-.046632.022419-.0232.045523-.0464.068399-.0696.022647-.0232.022647-.0464.045752-.0696.022875-.022968.04598-.0464.04598-.0696.022647-.0464.068399-.0696.091046-.116.023104-.0232.04598-.069368.068856-.0928 2.013072-2.6912 3.22549-5.8464 3.568856-9.1176v-.0464-.0696-.0232-.0464-.0464-.022968c.022647-.139432.022647-.255432.022647-.394632.022647-.348.045752-.696.045752-1.044v-.0696-.2552c0-.8352-.068399-1.6936-.206111-2.5056-.297157-2.0648-.960785-4.082968-1.990196-5.9856v-.0232c-.045523-.0928-.091275-.162168-.137026-.2552s0-.0232-.022876-.0232c-.022876-.0464-.045752-.0696-.068628-.116s0-.0232-.022876-.0232c-.022875-.0464-.04598-.0928-.068627-.115768-1.555556-.6728-3.202614-1.090632-4.918301-1.160232h-.022647-.137483-.045981-.091274-.091732-.091046c.182778-.0232.137026-.0232.11415-.0232z" mask="url(#b)"/><path d="m145.784218 118.405718c.113757.8.182011 1.6.182011 2.4v.091428.251429.068571c0 .457143-.022979.937143-.068254 1.394286v.068571.045715.045714.091428c-.318519 3.131429-1.478836 6.148572-3.389947 8.777143v.022857c-.022752.022858-.045731.045715-.045731.068572-.022523.022857-.045502.045714-.045502.068571s-.022524.022857-.022524.045715c0 .022857-.022751.022857-.022751.045714s-.022979.022857-.045503.045714c0 0 0 .022857-.022979.022857-1.182841 1.554286-2.638926 2.948572-4.368026 4.114286-1.206048.822857-2.479895 1.462857-3.776947 1.988571-1.888133.754286-3.867725 1.165715-5.869614 1.302858-.387.022857-.750794.045714-1.137566.045714h-.045731-.068026-.068254-.045503c-2.843915-.022857-5.665306-.64-8.236206-1.851429 2.161376 2.88 6.142857 4.411429 10.579365 4.411429 3.845201 0 8.008693-1.142857 11.580651-3.565714 4.641042-3.131429 7.029931-8.022858 7.143688-12.617143v-.64c-.045275-2.354286-.727815-4.617143-2.02464-6.468572z" fill="#eaedf7" mask="url(#b)"/><path d="m137.889463 136.051363c8.099471-5.462628 10.420106-15.931428 5.619577-24.068571-5.369312-2.308343-11.739682-1.485714-19.27037 5.485714-4.482011 4.137143-9.328042 8.96-13.059259 13.691657l.273015.4112c6.00635 8.251429 17.837037 10.285715 26.437037 4.48" fill="#fff" mask="url(#b)"/><path d="m143.463538 117.194335c-.113757.297143-.409524.411428-.68254.228571l-5.210053-3.36c-.273243-.16-.52328-.571428-.591534-.891428l-1.183069-6.811429c-.045503-.32.159259-.64.455026-.731429l.637037-.182857c.318519-.091428.796297-.045714 1.069312.114286 0 0 5.301059 2.742857 6.256614 9.462857z" fill="#ee7a2e" mask="url(#b)"/><path d="m119.347135 117.171455c.227514-.228572.659561-.297143.955556-.182857l8.053968 3.177142c.29554.114286.523053.48.500529.8l-.432502 8.571429c-.022524.32-.250037.708571-.545805.845714l-6.188359 3.245715c-.273016.137142-.750794.16-1.02381.022857l-5.528571-2.674286c-.295767-.137143-.568783-.502857-.614286-.822857l-1.160317-6.514286c-.045503-.32.091005-.754286.318518-.982857z" fill="#e42332" mask="url(#b)"/><path d="m131.132275 137.262975.227513-.548572 1.911111-3.360228.614286-.639772 7.075662-4.342857h.773545l.364021.228572.250264.685714s-1.38783 4.731428-10.806878 7.839771z" fill="#006aaf" mask="url(#b)"/><path d="m6.47780053 230.588643c0 4.137143 2.7984127 7.451429 7.87195767 9.325715.0227513 0 .0455026.022628.1137566.045714 3.0714286 1.462628 31.3058201 14.376914 78.4465609 14.376914 8.1449733 0 50.1439153-.685714 76.5809523-14.308343.091005-.045714.136508-.068571.136508-.068571 5.028042-1.92 7.803704-5.257143 7.803704-9.371429v-201.7599997c0-4.1371429-2.798413-7.4285714-7.849207-9.3257143-3.071428-1.2571428-30.828042-12.25142856-78.4920632-12.25142856-20.5216931 0-39.405291 1.96571428-56.1502645 5.82857146-11.8761905 2.7428571-18.610582 5.5314285-20.3851852 6.3314285l-.0910053.0457143c-5.02804231 1.9428572-7.80370369 5.2571429-7.80370369 9.3714286zm86.43227517 24.182857c-47.2544974 0-75.5571429-12.937142-78.6285715-14.4l-.0910053-.045714c-5.25555551-1.942857-8.1449735-5.394286-8.1449735-9.737143l.2047619-201.7599997c0-4.2971429 2.86666667-7.7714286 8.0767196-9.7828571l.0682539-.0228572c1.7973545-.8 8.5544974-3.6114286 20.4534392-6.3542857 16.7677249-3.88571429 35.6968254-5.85142858 56.2412698-5.85142858 47.7550262 0 75.5571432 11.01714288 78.5830692 12.27428568 5.278307 1.9657143 8.167724 5.4171429 8.167724 9.7371429v201.7599997c0 4.319772-2.866666 7.794286-8.076719 9.782857l-.091005.045715c-1.865609.96-8.873016 4.342857-20.771958 7.542857-16.722222 4.525714-35.560318 6.811428-55.9910053 6.811428z" fill="#009b49" mask="url(#b)"/></g></svg>