<svg xmlns="http://www.w3.org/2000/svg" xmlns:xlink="http://www.w3.org/1999/xlink" version="1.1" id="bwin-logo" x="0px" y="0px" viewBox="0 0 600 297.8" style="enable-background:new 0 0 600 297.8;" xml:space="preserve">
    <style type="text/css">
      .st0 {
        fill: #FFFFFF;
      }

      .st1 {
        fill-rule: evenodd;
        clip-rule: evenodd;
        fill: #FFFFFF;
      }

      .st2 {
        fill: #FFD300;
      }
    </style>
    <g id="bwin-txt">
      <polygon class="st0" points="397.1,165.8 365.5,294.5 416.8,294.5 449.8,160.5  "></polygon>
      <path class="st0" d="M566.4,160.2c-15.3-1.5-39.2,3.2-51,12.2c-0.3-4.9-1.2-8.8-2.2-12.7l-45.4,5.6c1.8,12.7,0,26.8-4.4,45.7   l-20.4,83.5h51.3l21-85.2c5.1-7.4,13.3-12.3,20.2-12.3c8.6,0,10.6,6.3,8,16.5l-19.7,81h51.3l22-88   C602.4,182.6,594.7,163,566.4,160.2z"></path>
      <path class="st1" d="M335,161.8l-16.2,37.5c-6,14.1-11.3,27.4-15.9,40.4l-0.6-77.9h-46.3l-38.4,78.6l4.2-80.4l-51,6.4L181,294.5   h45.1c0,0,34.2-69.1,37.3-77.1l0.5,77.1h46.3l76.4-132.6H335z"></path>
      <path class="st1" d="M115.4,158.5c-13.3,0-23.3,3.5-29.2,6.8c8.4-26,10.3-50.1,10.3-50.1l0,0c0.4-3.9,0.4-8.5,0.3-11.6L43,110.1   c0.6,8.6-0.7,22.3-7.6,51.4L9.5,269c-1.2,5.1-4.1,14.9-6.5,18.5c16.2,5.4,34.8,10.3,65.5,10.3c16.8,0,30.1-3.1,43.7-11.1   c23.3-13.6,37.7-38.2,43.7-61.9C166.9,180.3,148.7,158.5,115.4,158.5z M101.8,227.1c-5.9,24.7-13.6,35.7-26.6,35.7   c-5.3,0-9.7-1.3-12.1-3.1l14.2-58.9c2.7-2.3,7.4-6.4,15.1-6.4C103.9,194.5,108,200.9,101.8,227.1z"></path>
    </g>
    <ellipse class="st2" cx="430.6" cy="124" rx="29" ry="25"></ellipse>
  </svg>