<svg xmlns="http://www.w3.org/2000/svg" id="Layer_1" version="1.1" viewBox="0 0 800 193"><script xmlns="" id="eppiocemhmnlbhjplcgkofciiegomcon"/><script xmlns=""/><script xmlns=""/>
  <!-- Generator: Adobe Illustrator 29.7.1, SVG Export Plug-In . SVG Version: 2.1.1 Build 8)  -->
  <defs>
    <style>
      .st0 {
        fill: #69a507;
      }
    </style>
  </defs>
  <path class="st0" d="M392.43,39.45c-6.72-3.4-14.41-5.09-22.51-5.09s-15.5,1.52-22.17,4.57c-6.61,2.99-12.3,7.11-17.08,12.34-4.71,5.18-8.36,11.07-10.95,17.69-2.57,6.62-3.87,13.52-3.87,20.71,0,9.03,1.96,16.73,5.87,23.12,3.91,6.39,9.21,11.25,15.88,14.58,6.73,3.33,14.18,5.02,22.4,5.02s15.39-1.5,22-4.49c6.67-2.99,12.42-7.08,17.25-12.25,4.83-5.18,8.54-11.07,11.13-17.69,2.64-6.62,3.96-13.55,3.96-20.8,0-9.08-1.99-16.79-5.95-23.12-3.9-6.4-9.23-11.26-15.96-14.59ZM379.09,84.41c-.75,3.86-1.91,7.6-3.46,11.22-1.55,3.57-3.56,6.53-6.04,8.89-2.41,2.35-5.31,3.55-8.7,3.55-3.57,0-6.3-1.44-8.21-4.26h0c-1.85-2.87-2.76-6.67-2.76-11.38,0-2.99.37-6.38,1.12-10.18.8-3.85,1.98-7.56,3.53-11.13,1.62-3.62,3.64-6.61,6.05-8.97,2.48-2.35,5.39-3.53,8.72-3.53,3.56,0,6.27,1.41,8.11,4.23,1.9,2.8,2.85,6.6,2.85,11.38,0,2.93-.41,6.33-1.21,10.18Z"/>
  <path class="st0" d="M163.61,127.9c6.67-2.99,12.42-7.08,17.25-12.25,4.83-5.18,8.54-11.07,11.13-17.69,2.64-6.62,3.96-13.55,3.96-20.8,0-9.08-1.99-16.79-5.95-23.12-3.9-6.4-9.23-11.26-15.96-14.59-6.72-3.4-14.41-5.09-22.51-5.09s-15.5,1.52-22.17,4.57c-6.61,2.99-12.3,7.11-17.08,12.34-4.71,5.18-8.36,11.07-10.95,17.69-2.57,6.62-3.87,13.52-3.87,20.71,0,9.03,1.96,16.73,5.87,23.12,3.91,6.39,9.21,11.25,15.88,14.58,6.73,3.33,14.18,5.02,22.4,5.02s15.39-1.5,22-4.49ZM134.29,103.81h0c-1.85-2.87-2.76-6.67-2.76-11.38,0-2.99.37-6.38,1.12-10.18.8-3.85,1.98-7.56,3.53-11.13,1.62-3.62,3.64-6.61,6.05-8.97,2.48-2.35,5.39-3.53,8.72-3.53,3.56,0,6.27,1.41,8.11,4.23,1.9,2.8,2.85,6.6,2.85,11.38,0,2.93-.41,6.33-1.21,10.18-.75,3.86-1.91,7.6-3.46,11.22-1.55,3.57-3.56,6.53-6.04,8.89-2.41,2.35-5.31,3.55-8.7,3.55-3.57,0-6.3-1.44-8.21-4.26Z"/>
  <path class="st0" d="M359.43,146.33c-35.17,10.98-71.44,17.6-107.99,17.65-36.54-.05-72.85-6.7-108.02-17.66-2.4-.75-4.17,1.83-2.41,3.63,21.24,21.22,49.91,34.27,79.46,39.9,10.2,1.92,20.6,2.88,30.99,2.93,10.39-.04,20.77-1,30.99-2.93,29.55-5.63,58.22-18.66,79.46-39.9,1.75-1.8-.08-4.37-2.48-3.62Z"/>
  <path class="st0" d="M95.58,99.75h-51.7c-1.05,0-1.83-.96-1.61-1.98L61.2,7.68c.21-1.01-.57-1.98-1.61-1.98h-30.56c-.78,0-1.44.55-1.61,1.31L2.03,127.98c-.21,1.01.57,1.98,1.61,1.98h86.31c.78-.01,1.44-.56,1.61-1.32l5.62-26.91c.21-1.03-.57-1.98-1.61-1.98Z"/>
  <path class="st0" d="M670.07,39.72h0c-3.91-3.61-9.61-5.43-17.09-5.43-6.62,0-12.4,1.6-17.34,4.83-4.54,2.99-8.77,7.45-12.71,13.35l2.9-13.85c.2-.98-.55-1.91-1.55-1.91h-29.07c-.78,0-1.46.55-1.61,1.31l-19.31,91.88h31.81c.77,0,1.44-.54,1.6-1.3l7.84-36.76c2.64-12.32,5.6-21.07,8.88-26.24,3.28-5.23,7.28-7.85,11.99-7.85,3.05,0,5.12.9,6.21,2.68,1.14,1.79,1.66,4.06,1.55,6.82-.05,2.7-.41,5.55-1.03,8.54l-10.81,52.13c-.21,1.03.57,1.98,1.61,1.98h29.69c.78,0,1.46-.55,1.61-1.31l11.3-54c1.56-7.42,1.84-14.18.86-20.28-.91-6.1-3.37-10.97-7.33-14.59Z"/>
  <path class="st0" d="M201.89,60.93h7.51c1.04,0,1.82.96,1.6,1.98l-8.39,39.69c-1.9,8.92-.77,15.71,3.37,20.37,4.2,4.67,11.24,6.99,21.14,6.99h19.35c.77,0,1.43-.54,1.6-1.3l4.4-20.88c.22-1.01-.56-1.98-1.6-1.98h-11.69c-1.72,0-2.78-.31-3.19-.95-.34-.63-.32-1.92.09-3.88l8.18-38.74c.16-.76.84-1.31,1.61-1.31h21.82c1.04,0,1.83.97,1.61,1.99l-8.39,39.69c-1.89,8.92-.77,15.71,3.37,20.37,4.2,4.67,11.24,6.99,21.14,6.99h19.37c.77-.01,1.43-.56,1.6-1.32l4.4-20.87c.23-1.01-.56-1.98-1.6-1.98h-11.69c-1.72,0-2.78-.31-3.19-.95-.34-.63-.32-1.92.09-3.88l8.18-38.74c.15-.76.83-1.31,1.6-1.31h11.05c.78,0,1.44-.55,1.61-1.31l4.4-20.87c.22-1.01-.56-1.98-1.6-1.98h-9.76c-1.04,0-1.82-.96-1.6-1.98l4.55-21.42c.26-1.18-.81-2.22-1.99-1.93l-31.41,7.75c-.61.15-1.08.65-1.21,1.26l-3.21,15.04c-.15.75-.83,1.3-1.6,1.3h-11.36s-10.46-.01-10.46-.01c-1.04,0-1.82-.96-1.6-1.98l4.55-21.42c.24-1.18-.83-2.22-2.01-1.93l-31.4,7.75c-.61.14-1.09.64-1.22,1.25l-3.21,15.04c-.15.75-.83,1.3-1.6,1.3h-8.82c-.78,0-1.44.55-1.6,1.31l-4.4,20.87c-.02.09-.14.78.34,1.37.48.59,1.18.61,1.27.61Z"/>
  <path class="st0" d="M457.67,105.79h-3.49c-1.72,0-2.78-.31-3.19-.95-.34-.63-.32-1.92.09-3.88L471.8,2.51c.22-1.01-.56-1.98-1.6-1.98h-29.77c-.79,0-1.45.55-1.61,1.31l-21.21,100.76c-1.89,8.92-.77,15.71,3.37,20.37,4.14,4.67,11.16,6.99,21.05,6.99h11.25c.77-.01,1.43-.56,1.6-1.32l4.4-20.87c.21-1.01-.57-1.98-1.61-1.98Z"/>
  <path class="st0" d="M569.08,105.77h-3.58c-1.72,0-2.76-.31-3.1-.95-.34-.69-.32-1.99.09-3.88l13.12-62.22c.21-1.01-.57-1.98-1.61-1.98h-29.77c-.78,0-1.44.55-1.61,1.31l-2.36,11.17c-1.7-3.78-4.07-6.9-7.13-9.36-4.48-3.67-10.88-5.51-19.16-5.51-7.37,0-13.72,1.38-19.07,4.14-5.36,2.71-9.85,6.33-13.47,10.88-3.62,4.49-6.51,9.47-8.63,14.93-2.12,5.41-3.66,10.81-4.57,16.22-.93,5.4-1.39,10.36-1.39,14.84,0,7.82,1.23,14.51,3.71,20.02,2.54,5.52,6.22,9.75,11.05,12.69,4.83,2.87,10.77,4.31,17.85,4.31h.04v-.03h.01c8.22,0,15.52-2.01,21.9-6.04,3.94-2.52,7.26-5.85,9.98-9.97.61,2.53,1.65,4.73,3.14,6.61,3.8,4.66,10.08,6.99,18.89,6.99h11.27c.78,0,1.44-.55,1.61-1.31l4.4-20.88c.21-1.01-.57-1.98-1.61-1.98ZM534.04,86.06c-.74,3.44-1.94,6.76-3.62,9.92-1.61,3.1-3.75,5.69-6.39,7.76h0c-2.58,2.02-5.71,3.02-9.39,3.02-4.08-.01-7.22-1.35-9.4-4.06-2.12-2.75-3.19-6.55-3.19-11.38,0-2.7.34-5.83,1.04-9.4.73-3.57,1.92-7.02,3.53-10.35,1.61-3.39,3.68-6.18,6.21-8.37,2.58-2.25,5.69-3.37,9.31-3.37,3.91,0,7.08,1.47,9.49,4.4,2.41,2.89,3.62,7.02,3.62,12.43,0,2.82-.41,5.94-1.21,9.4Z"/>
  <path class="st0" d="M797.97,2.49h0c.21-1.01-.57-1.98-1.61-1.98h-29.78c-.78,0-1.44.55-1.61,1.31l-9.96,47.38c-1.69-3.76-4.06-6.87-7.1-9.33-4.5-3.67-10.88-5.51-19.16-5.51-7.37,0-13.72,1.38-19.07,4.14-5.35,2.71-9.85,6.33-13.47,10.88-3.56,4.55-6.41,9.52-8.54,14.93-2.07,5.4-3.57,10.84-4.48,16.3-.93,5.4-1.39,10.35-1.39,14.84,0,7.76,1.23,14.42,3.71,19.93,2.48,5.52,6.12,9.75,10.95,12.69,4.83,2.87,10.79,4.28,17.8,4.28,8.22,0,15.51-2.01,21.9-6.04,4-2.5,7.38-5.85,10.14-10.01.61,2.54,1.66,4.76,3.15,6.65,3.78,4.67,10.06,6.99,18.8,6.99h11.27c.77,0,1.44-.55,1.6-1.31l4.4-20.88c.21-1.01-.57-1.98-1.61-1.98h-3.58c-1.71,0-2.76-.31-3.1-.95-.34-.69-.32-1.99.09-3.88l20.65-98.45ZM748.8,86.05c-.74,3.44-1.94,6.76-3.62,9.92-1.6,3.1-3.74,5.69-6.38,7.76h0c-2.58,2.02-5.72,3.02-9.4,3.02h-.02c-4.08-.01-7.21-1.35-9.4-4.06-2.12-2.75-3.19-6.55-3.19-11.38,0-2.7.35-5.83,1.04-9.4.73-3.57,1.92-7.02,3.53-10.35,1.61-3.39,3.68-6.18,6.21-8.37,2.6-2.25,5.71-3.37,9.33-3.37,3.91,0,7.08,1.47,9.49,4.4,2.41,2.89,3.62,7.02,3.62,12.43,0,2.82-.41,5.94-1.21,9.4Z"/>
</svg>