<svg xmlns="http://www.w3.org/2000/svg" version="1.1" viewBox="0 0 1000 325"><script xmlns="" id="eppiocemhmnlbhjplcgkofciiegomcon"/><script xmlns=""/><script xmlns=""/>
  <g>
    <path d="M0,0l155.3,194.9V69.6c0-4.6,2.4-7,7.1-7h30.6c2.4,0,7.1,4.6,7.1,7v255.2L44.7,123v136.9c0,4.6-2.4,7-7.1,7 H7.1c-2.4,0-7.1-4.6-7.1-7V0L0,0z" fill="#EB0143"/>
    <path d="M241.7,67.7c0-2.3,2.5-4.6,5-4.6h126.8c2.5,0,5,2.3,5,4.6v22.9c0,2.3-2.5,4.6-5,4.6h-92v48.1h77.1 c2.5,0,5,2.3,5,4.6v22.9c0,2.3-2.5,4.6-5,4.6h-77.1v55h92c2.5,0,5,2.3,5,4.6v22.9c0,2.3-2.5,4.6-5,4.6H246.7c-2.5,0-5-2.3-5-4.6 V67.7L241.7,67.7z" fill="#00A1E7"/>
    <path d="M596.6,217.4c-4.5-2.5-9.7-3.9-15.2-3.9c-17.4,0-31.5,14.1-31.5,31.4c0,4.2,0.8,8.3,2.4,12 c-14,6.6-29.9,10.3-46.9,10.3c-57.7,0-103.9-46-103.9-103.6S447.6,57.6,505.4,57.6s106.2,46,106.2,105.9 C611.6,183.3,606.2,201.7,596.6,217.4L596.6,217.4z M505.4,230.3c37,0,67-29.9,67-66.8s-30-66.8-67-66.8s-67,29.9-67,66.8 S470.7,230.3,505.4,230.3L505.4,230.3z" fill="#43CC3C"/>
    <path d="M651,253.4V62.9c0-2.9,2.5-5.5,5.4-5.5h16.4c2.8,0,5.4,2.6,5.4,5.5v84.3c2.5-0.9,12.7-6.3,27.1-6.3 c31.3,0,55.6,26.8,55.6,60.4c0,33.1-22.9,60.4-52.8,60.4c-22.3,0-35.9-16.1-35.9-16.1l-2.3,8.3c-0.8,2.9-2.5,4.9-5.1,4.9h-8.5 C653.5,258.9,651,256.3,651,253.4L651,253.4z M678.2,219.9c1.4,3.2,9.6,17.3,26.9,17.3c18.1,0,30-16.4,30-35.8 c0-19.6-13.3-35.5-32.2-35.5c-14.7,0-24.6,6.6-24.6,6.6V219.9L678.2,219.9z" fill="#f2f2f2"/>
    <path d="M783.7,201.2c0-32.6,22.7-60.6,56.8-60.6c29.5,0,52.2,22.5,52.2,53.4c0,2-0.3,5.8-0.6,7.8 c-0.3,2.9-2.6,4.9-5.1,4.9h-77.2c0.9,15.6,14.2,30.9,32.7,30.9c10.2,0,19.6-4.6,25.3-8.4c3.4-2,5.4-3.2,7.7-0.3l8,11 c2,2.3,2.8,4.6-0.6,7.5c-8.2,7.2-23,14.4-42,14.4C806.4,261.8,783.7,234.4,783.7,201.2L783.7,201.2z M813.2,188.9h54.5 c-0.8-13.7-12.1-25.3-25.9-25.3C826.6,163.6,814.8,174.7,813.2,188.9L813.2,188.9z" fill="#f2f2f2"/>
    <path d="M934.7,227.5v-60h-11.9c-3.1,0-5.4-2.6-5.4-5.5v-13c0-3.2,2.3-5.5,5.4-5.5h11.9v-32c0-2.9,2.6-5.5,5.4-5.5 l16.2-0.3c2.8,0,5.1,2.6,5.1,5.5v32.3h28.9c3.1,0,5.4,2.3,5.4,5.5v13c0,2.9-2.3,5.5-5.4,5.5h-28.9v57.1c0,9.8,3.7,11.5,9.1,11.5 c6,0,13.9-3.5,17.3-5.2c3.7-1.7,5.4,0,6.5,2.6l5.1,12.7c1.4,3.2,0.3,5.5-2.6,6.9c-2.8,1.7-19.6,8.7-33.2,8.7 C941.3,261.8,934.7,247.9,934.7,227.5L934.7,227.5z" fill="#f2f2f2"/>
    <path d="M581.3,262.3c9.4,0,16.9-7.7,16.9-17.2s-7.6-17.2-16.9-17.2c-9.4,0-16.9,7.7-16.9,17.2S572,262.3,581.3,262.3 L581.3,262.3z" fill="#f2f2f2"/>
  </g>
</svg>