<svg xmlns="http://www.w3.org/2000/svg" width="95" height="30" viewBox="0 0 95 30"><script xmlns="" id="eppiocemhmnlbhjplcgkofciiegomcon"/><script xmlns=""/><script xmlns=""/><path d="M60.64 24.791c-4.83 0-5.193-3.725-4.565-6.428l.893-3.956c1.092-4.583 3.276-6.726 7.808-6.726h9.263c.33 0 .563.264.463.594l-.926 3.79c-.066.33-.397.594-.761.594h-7.774c-1.655 0-3.01.165-3.441 1.715l-.76 3.527c-.232 1.022-.2 1.912 1.025 1.912h9.494c.331 0 .563.264.464.594l-.794 3.758c-.067.33-.397.593-.761.593l-9.627.033zm-28.252 0h6.451c4.532 0 6.253-1.846 7.344-6.428l.894-3.956c.628-2.704.364-6.726-4.466-6.726h-6.452c-4.532 0-6.715 2.176-7.807 6.726L25.01 29.374c-.067.33.132.593.463.593h4.003c.33 0 .661-.264.728-.593l1.025-4.649c.364.033.728.066 1.158.066zm.728-10.417c.463-1.55 1.786-1.748 3.44-1.748h4.632c1.092 0 1.489.66 1.257 1.682l-.76 3.263c-.43 1.78-1.126 2.275-2.846 2.275H33.38c-1.224 0-1.29-.89-1.025-1.912l.76-3.56zm46.68 0c.463-1.55 1.852-1.748 3.506-1.748h4.599c1.091 0 1.488.66 1.257 1.682l-.761 3.263c-.43 1.78-1.125 2.275-2.845 2.275H80.06c-1.224 0-1.29-.89-1.025-1.912l.76-3.56zm5.756 10.417c4.532 0 6.253-1.846 7.344-6.428l.893-3.956c.629-2.704.364-6.726-4.466-6.726h-6.45c-4.533 0-6.717 2.176-7.808 6.726l-.894 3.956c-.628 2.703-.264 6.428 4.566 6.428h6.815zm-67.323-.593c-.067.33.132.593.463.593h4.003c.33 0 .661-.264.728-.593l3.54-15.99c.066-.329-.133-.593-.464-.593h-4.003a.775.775 0 00-.728.594l-3.54 15.989zm28.88 0c-.065.33.133.593.464.593h4.003c.33 0 .662-.264.728-.593l3.54-15.99c.066-.329-.133-.593-.464-.593h-4.003a.775.775 0 00-.727.594l-3.54 15.989zM.299 12.033c-.066.33.132.593.463.593h4.07l-1.258 5.737c-.629 2.703.1 6.428 4.896 6.428l6.054.033c.298 0 .629-.264.695-.56l.728-3.198c.066-.297-.132-.593-.463-.593H9.925c-1.323 0-1.39-.99-1.125-2.11l1.29-5.737h7.146c.33 0 .662-.263.728-.593l.86-3.824c.066-.33-.132-.594-.463-.594H1.886a.775.775 0 00-.728.594l-.86 3.824zm12.009-8.868A2.96 2.96 0 009.329.198a2.96 2.96 0 00-2.977 2.967 2.96 2.96 0 002.977 2.967c1.621 0 2.978-1.319 2.978-2.967z" fill="#FFF" fill-rule="evenodd"/></svg>