<svg xmlns="http://www.w3.org/2000/svg" width="283.464" height="88.851" viewBox="0 0 283.464 88.851"><script xmlns="" id="eppiocemhmnlbhjplcgkofciiegomcon"/><script xmlns=""/><script xmlns=""/>
  <g id="Gruppe_6" data-name="Gruppe 6">
    <g id="Gruppe_1" data-name="Gruppe 1">
      <path id="Pfad_1" data-name="Pfad 1" d="M0 39.641h8.824L3.778 59.9a20.553 20.553 0 0 0-.678 4.927 8.3 8.3 0 0 0 1.532 5.242c1.59 2.033 4.349 3.02 8.439 3.02h25.468L40.77 64H27.907c-1.918 0-2.852-.2-3.227-.676s-.269-1.05.092-2.517l5.2-21.17h16.783l2.07-8.443H32.044c.092-.363 3.881-15.8 3.881-15.8h-21.1L10.935 31.2H2.056z" fill="#f6a800"/>
    </g>
    <g id="Gruppe_2" data-name="Gruppe 2">
      <path id="Pfad_2" data-name="Pfad 2" d="M45.563 73.089H66.92L77.238 31.2H55.851z" fill="#f6a800"/>
    </g>
    <path id="Pfad_1-2" data-name="Pfad 1" d="M57.517 24.413l2.214-9.013h35.843c21.145 0 65.652.006 69.423-15.4h50.544c-6.137 24.451-81.727 24.413-110.5 24.413z" fill="#f6a800"/>
    <g id="Gruppe_3" data-name="Gruppe 3">
      <path id="Pfad_4" data-name="Pfad 4" d="M268.879 44.243s10.148-.221 11.974-7.652c1.412-5.751 2.081-8.846 2.081-8.846a10.193 10.193 0 0 0-.868-8.463c-2.085-2.912-4.2-3.876-14.567-3.876h-46.323l-2.228 9.075h38.541c3 0 3.74.864 4.224 1.538.317.446.111 1.478-.179 2.488l-1.68 6.992c-.973 2.857-1.995 4.123-6.424 4.123h-14.182l-14.6.019-2.231 9.084L237.8 48.7h14.19c2.249 0 3.64.019 4.123.693.317.446.046 1.136-.284 2.478l-2.053 8.213c-.976 2.85-2.416 3.916-6.85 3.916h-37.685l-2.229 9.075h50.9c8.144 0 14.09-3.114 16.4-9.9 0 0 .594-2.255 2.42-9.738 2.196-9.011-7.853-9.194-7.853-9.194z" fill="#f6a800"/>
    </g>
    <g id="Gruppe_4" data-name="Gruppe 4">
      <path id="Pfad_5" data-name="Pfad 5" d="M105.466 31.2h-19.09l-1.921 7.822-12.239 49.829h21.356l1.9-7.9 1.966-7.865h21.751c8.766 0 14.3-4.383 16.457-13.028l3.936-15.753c1.078-4.336.752-7.651-.969-9.852-1.689-2.162-4.736-3.256-9.062-3.256h-24.09zm13.292 11.423l-4.51 18.323c-.549 2.178-1.581 3.065-3.567 3.065h-8.322a2.293 2.293 0 0 1-1.881-.605 1.714 1.714 0 0 1-.295-1.067 5.564 5.564 0 0 1 .193-1.322l4.5-18.313c.557-2.213 1.619-3.063 3.63-3.063h8.323a2.27 2.27 0 0 1 1.878.611c.352.46.344 1.222.051 2.371z" fill="#f6a800"/>
    </g>
    <g id="Gruppe_5" data-name="Gruppe 5">
      <path id="Pfad_6" data-name="Pfad 6" d="M170.445 31.2h-19.089l-1.921 7.822L137.2 88.851h21.355l1.9-7.9 1.967-7.865h21.751c8.765 0 14.3-4.383 16.457-13.028l3.936-15.753c1.078-4.336.752-7.651-.969-9.852-1.689-2.162-4.736-3.256-9.063-3.256h-24.09zm13.292 11.423l-4.51 18.323c-.548 2.178-1.581 3.065-3.566 3.065h-8.323a2.29 2.29 0 0 1-1.88-.605 1.714 1.714 0 0 1-.295-1.067 5.557 5.557 0 0 1 .192-1.322l4.5-18.313c.557-2.213 1.619-3.063 3.629-3.063h8.316a2.271 2.271 0 0 1 1.878.611c.36.46.352 1.222.059 2.371z" fill="#f6a800"/>
    </g>
  </g>
</svg>