<svg xmlns="http://www.w3.org/2000/svg" xmlns:xlink="http://www.w3.org/1999/xlink" version="1.1" id="Layer_1" x="0px" y="0px" viewBox="0 0 101.3 31.5" enable-background="new 0 0 101.3 31.5" xml:space="preserve"><script xmlns="" id="eppiocemhmnlbhjplcgkofciiegomcon"/><script xmlns=""/><script xmlns=""/>
<linearGradient id="SVGID_1_" gradientUnits="userSpaceOnUse" x1="60.3698" y1="11.9462" x2="60.3698" y2="30.4542" gradientTransform="matrix(1 0 0 -1 0 37)">
	<stop offset="0" style="stop-color:#231F20"/>
	<stop offset="1" style="stop-color:#3E3E3F"/>
</linearGradient>
<path fill="url(#SVGID_1_)" stroke="#231F20" d="M65,25.1h-6.4L58,16l-5.1,9.1h-6.1L44.9,6.5h6.5l0.6,9.3l5.1-9.3h6.1l0.7,9.4  l5.1-9.3h6.8L65,25.1z"/>
<linearGradient id="SVGID_2_" gradientUnits="userSpaceOnUse" x1="77.7181" y1="11.9462" x2="77.7181" y2="30.4542" gradientTransform="matrix(1 0 0 -1 0 37)">
	<stop offset="0" style="stop-color:#231F20"/>
	<stop offset="1" style="stop-color:#3E3E3F"/>
</linearGradient>
<path fill="url(#SVGID_2_)" stroke="#231F20" d="M78.7,25.1h-6.5l4.6-18.5h6.5L78.7,25.1z"/>
<linearGradient id="SVGID_3_" gradientUnits="userSpaceOnUse" x1="90.9592" y1="11.9462" x2="90.9592" y2="30.4542" gradientTransform="matrix(1 0 0 -1 0 37)">
	<stop offset="0" style="stop-color:#231F20"/>
	<stop offset="1" style="stop-color:#3E3E3F"/>
</linearGradient>
<path fill="url(#SVGID_3_)" stroke="#231F20" d="M100.2,16.1c-0.3,1.9-1,4.9-2,8.9h-6.4l2.8-11.1l0.2-0.7l0.1-0.6l0-0.3  c-0.1-0.1-0.5-0.2-1.1-0.2l-1.6,0h-1.4l-3.3,12.9h-6.3l4.6-18.5h8.9c2.6,0,4.4,0.5,5.4,1.5c0.5,0.5,0.8,1.4,0.8,2.8  C100.8,12.2,100.6,13.9,100.2,16.1z"/>
<linearGradient id="SVGID_4_" gradientUnits="userSpaceOnUse" x1="8.3452" y1="11.9462" x2="8.3452" y2="36.5" gradientTransform="matrix(1 0 0 -1 0 37)">
	<stop offset="0" style="stop-color:#AB1917"/>
	<stop offset="1" style="stop-color:#DC0D15"/>
</linearGradient>
<path fill="url(#SVGID_4_)" stroke="#E31119" d="M14.7,11.8H10l-1.6,6l-0.1,1.1c0,0.2,0,0.4,0.1,0.6c0.1,0.2,0.3,0.2,0.7,0.3  c0.3,0.1,0.9,0.1,1.7,0.1h1.9l-1.3,5.1H6.7c-2,0-3.4-0.6-4.1-1.8c-0.1-0.1-0.2-0.3-0.3-0.7l0-0.1l-0.1-1.2c0-1.8,0.5-4.9,1.6-9.5h-3  l1.3-5.2h3l1.6-6h6.4l-1.5,6H16L14.7,11.8L14.7,11.8z"/>
<linearGradient id="SVGID_5_" gradientUnits="userSpaceOnUse" x1="19.3185" y1="11.9462" x2="19.3185" y2="30.4542" gradientTransform="matrix(1 0 0 -1 0 37)">
	<stop offset="0" style="stop-color:#AB1917"/>
	<stop offset="1" style="stop-color:#DC0D15"/>
</linearGradient>
<path fill="url(#SVGID_5_)" stroke="#E31119" d="M20.3,25.1h-6.5l4.6-18.5h6.5L20.3,25.1z"/>
<linearGradient id="SVGID_6_" gradientUnits="userSpaceOnUse" x1="32.5751" y1="5.9825" x2="32.5751" y2="30.4127" gradientTransform="matrix(1 0 0 -1 0 37)">
	<stop offset="0" style="stop-color:#AB1917"/>
	<stop offset="1" style="stop-color:#DC0D15"/>
</linearGradient>
<path fill="url(#SVGID_6_)" stroke="#E31119" d="M36.9,6.6h-9.5L26,12.1h9.3c0.7,0,1.3,0.2,1.6,0.6c0.2,0.3,0.2,0.6,0.2,1.1  c0,0.5-0.1,1.1-0.3,2c-0.4,1.6-1.1,2.7-2.1,3.3c-0.7,0.5-2.1,0.7-4,0.7h-0.4l1.1-4.6l-5.6-3L21.2,31h6.3l1.5-6l2.9,0  c0.3,0,0.6,0,0.9,0H33c1.8,0,8.3-0.7,10.3-8.3C45.4,9.1,41.1,6.6,36.9,6.6z"/>
</svg>