<svg xmlns="http://www.w3.org/2000/svg" viewBox="0 0 106 32" fill="none"><script xmlns="" id="eppiocemhmnlbhjplcgkofciiegomcon"/><script xmlns=""/><script xmlns=""/><g clip-path="url(#clip0_3059_307750)"><path d="M25.2199 7.5562H27.2197C27.2197 7.5562 28.9713 7.52345 28.5296 9.54272C28.2745 10.7098 24.5208 26.0669 24.1899 27.2984C23.9081 28.344 23.5509 28.9418 22.0861 29.2301C20.7267 29.4974 19.7846 29.6489 19.7846 29.6489C19.7846 29.6489 18.1941 29.9859 17.6713 27.8981L15.082 17.0794L12.3176 29.3024C12.3176 29.3024 12.0023 30.9672 10.4365 31.4138C9.51011 31.6453 7.58528 31.9629 7.58528 31.9629C7.58528 31.9629 5.74993 32.3639 5.24045 30.5293L0.138035 10.2692C-0.0142761 9.50921 -0.410287 7.63692 1.54996 7.55963H4.33154C4.33154 7.55963 6.09302 7.4591 6.35499 9.20916L8.93133 23.9285L11.3615 12.1255C11.7525 10.0846 12.1143 8.69244 13.7063 8.69244H16.0229C16.9977 8.69244 17.8499 8.74803 18.3666 10.4029C18.9157 11.9275 20.9235 22.3395 20.9235 22.3395L23.1747 9.46694C23.2946 9.00544 23.5513 7.5543 25.2199 7.5562ZM35.8824 9.34319C35.882 7.48652 34.6018 7.55239 34.1758 7.55239H32.4958C30.7091 7.55239 30.788 8.60867 30.788 9.61621L30.7876 25.9257C30.7826 27.7565 32.2757 27.4724 32.4089 27.4602L34.5184 27.0558C35.9521 26.6903 35.8828 25.4882 35.8828 25.1443L35.8824 9.34319ZM33.3483 5.64965C34.0965 5.64955 34.814 5.35228 35.3431 4.82323C35.8721 4.29418 36.1694 3.57666 36.1695 2.82846C36.1694 2.08027 35.8721 1.36275 35.3431 0.833698C34.814 0.304645 34.0965 0.00738274 33.3483 0.00728178C32.6001 0.00738274 31.8826 0.304645 31.3536 0.833698C30.8245 1.36275 30.5272 2.08027 30.5271 2.82846C30.5272 3.57666 30.8245 4.29418 31.3536 4.82323C31.8826 5.35228 32.6001 5.64955 33.3483 5.64965ZM54.4997 3.26598C54.4997 3.26598 53.9788 1.99228 55.3394 1.24938C56.3233 0.718576 59.4883 -0.526188 62.3636 0.246029C65.2388 1.01825 66.9565 2.6773 67.4774 5.615C67.9983 8.5527 66.1074 11.182 64.6406 12.504L61.4661 15.3027C61.4661 15.3027 59.0443 17.4446 58.996 19.4327L66.0404 18.7183C66.0404 18.7183 67.501 18.4898 67.501 19.7712V20.9706C67.501 21.3 67.5505 22.3052 66.2814 22.4812L55.9379 23.9091C55.759 23.9148 54.4461 24.1406 54.416 22.3848C54.3722 20.7185 54.4521 16.4314 57.7615 13.0733C58.8136 12.0121 61.8008 9.51682 61.8008 9.51682C61.8008 9.51682 63.3163 8.18601 63.4256 6.96295C63.5398 5.63023 62.8544 4.54615 61.6595 4.13377C60.5408 3.74728 59.0874 4.17185 58.6681 4.35729L56.6355 5.15692C56.3088 5.28791 55.8104 5.32827 55.3599 4.86829C54.8801 4.37785 54.4994 3.27435 54.4994 3.27435M80.7921 19.5553V3.49787C80.7921 2.33421 79.9521 2.35554 79.6116 2.35554H78.317C77.2508 2.35554 77.2531 3.28311 77.2531 3.47122V8.40609C76.1207 7.27366 74.5827 7.27024 74.4811 7.27024C74.3794 7.27024 72.4058 7.16628 70.7178 8.60181C68.9929 10.0693 69.133 12.8353 69.133 12.8353V16.8152C69.133 16.9523 69.1186 18.9864 70.1687 20.3183C71.2189 21.6503 72.4481 21.9683 74.1562 21.8415C75.8644 21.7147 77.1884 20.3507 77.5718 19.9814C77.5718 21.1008 78.3638 21.0247 78.5835 21.019C78.6711 21.0159 79.7583 20.8842 79.8401 20.8636C79.9022 20.8484 80.7913 20.762 80.7921 19.5515M73.0052 12.555C73.0052 12.555 72.9404 11.367 73.7873 10.7403C74.6113 10.131 75.6904 10.4726 75.8713 10.5449C76.0521 10.6173 76.653 10.9284 77.2421 11.4969V17.2466C77.2421 17.2466 75.8233 18.7697 74.5062 18.6288C73.4644 18.5146 73.001 17.7195 73.001 16.6701V12.5512M95.6789 15.4086L94.6623 8.63342C94.6394 8.40495 94.585 8.02913 94.944 7.74849C95.0411 7.67234 95.2993 7.54516 95.6534 7.54516H96.8795C97.0718 7.54516 97.4214 7.56724 97.7104 7.86196C97.9827 8.13993 98.0428 8.40648 98.0999 8.79639L98.9909 14.831C98.9909 14.831 99.0892 15.4006 99.2525 15.6809C99.4159 15.9611 99.7 16.3404 100.514 16.3076C101.389 16.2726 101.803 16.1115 101.803 16.1115L102.26 8.43199C102.283 8.18448 102.369 7.78467 102.886 7.61712C103.046 7.57261 103.212 7.54969 103.379 7.54896H104.471C104.471 7.54896 105.345 7.54097 105.345 8.3307C105.345 9.12043 104.727 19.259 104.724 19.28C104.722 19.3009 104.625 21.3095 102.88 22.3997C102.34 22.7374 101.452 23.0653 100.796 23.162L98.7846 23.4087C98.633 23.4202 97.7382 23.5382 97.6498 22.6597L97.592 21.9846C97.5805 21.6735 97.413 21.035 98.4411 20.904L100.429 20.7105C100.429 20.7105 101.247 20.725 101.49 19.8233C101.722 18.9651 101.683 18.598 101.683 18.598C101.683 18.598 100.84 18.8322 100.409 18.8779C100.149 18.9053 98.0028 19.1901 96.7424 17.8163C95.8842 16.8807 95.6831 15.409 95.6831 15.409" fill="#D70A2D"/><path d="M49.2766 24.8504L50.9589 24.561C52.2406 24.3135 52.1363 23.4666 52.1363 22.8855V12.2877C52.0487 8.515 49.9651 7.44426 47.4527 7.27024C44.892 7.09318 42.8693 8.98374 42.8693 8.98374C42.8693 7.48348 41.5739 7.53679 41.5739 7.53679H40.2617C38.6891 7.53679 38.7782 8.6894 38.7782 9.09531L38.782 24.6413C38.782 26.3636 40.1132 26.0906 40.2305 26.0784C40.2305 26.0784 41.765 25.7737 42.118 25.6736C43.4328 25.2867 43.3388 24.3093 43.3388 23.7629V12.6956C44.5953 11.2543 45.9776 10.8983 46.6904 11.0582C47.9446 11.2897 47.9355 12.8239 47.9355 12.8239V23.4956C47.9355 23.6334 47.8837 25.0788 49.2732 24.8462M89.7281 12.236C87.7405 12.2169 85.0191 12.5391 83.6684 13.7644C82.3178 14.9897 82.4819 16.6012 82.4819 16.6975C82.4819 16.7939 82.4241 18.3284 83.4084 19.3123C84.3927 20.2963 85.6371 20.5476 87.2679 20.345C88.8988 20.1424 89.8633 18.9742 90.1337 18.6562C90.1817 19.631 90.7703 19.631 90.8952 19.6402C91.0201 19.6493 91.7687 19.6851 92.4488 19.4764C93.0097 19.3043 93.1239 18.9198 93.1239 18.4011V11.7764C93.1239 10.7921 92.8345 9.69198 92.0821 8.88169C91.3297 8.07139 90.4082 7.5741 89.0572 7.34259C87.7062 7.11107 85.6367 7.47053 84.5465 7.66625C83.4636 7.85664 83.5337 8.51919 83.6125 8.79335L83.9285 9.86562C84.1288 10.5537 84.8812 10.4612 85.0861 10.4158C85.9132 10.2403 86.7514 10.121 87.5947 10.0587C87.8361 10.0492 89.0233 10.0065 89.454 10.6622C89.77 11.1431 89.7232 11.4116 89.7281 12.236ZM89.7266 16.4078C89.3021 16.9191 88.8394 17.2759 88.0192 17.4359C87.755 17.4892 87.5147 17.4968 87.3011 17.4671C86.656 17.4092 86.15 16.8674 86.15 16.2105C86.1498 15.9899 86.2075 15.7731 86.3171 15.5817C86.4267 15.3902 86.5845 15.2308 86.7748 15.1192C87.6955 14.5648 89.727 14.5937 89.727 14.5937L89.7266 16.4078Z" fill="#D70A2D"/></g><defs><clipPath id="clip0_3059_307750"><rect width="105.345" height="32" fill="white"/></clipPath></defs></svg>